G75*
%MOIN*%
%OFA0B0*%
%FSLAX25Y25*%
%IPPOS*%
%LPD*%
%AMOC8*
5,1,8,0,0,1.08239X$1,22.5*
%
%ADD10C,0.06000*%
%ADD11OC8,0.07000*%
%ADD12C,0.01600*%
%ADD13C,0.02200*%
%ADD14C,0.01200*%
%ADD15C,0.06600*%
D10*
X0019200Y0017800D02*
X0028800Y0017800D01*
X0028800Y0027800D02*
X0019200Y0027800D01*
X0019200Y0037800D02*
X0028800Y0037800D01*
X0028800Y0047800D02*
X0019200Y0047800D01*
X0019200Y0057800D02*
X0028800Y0057800D01*
X0028800Y0067800D02*
X0019200Y0067800D01*
X0019200Y0077800D02*
X0028800Y0077800D01*
X0028800Y0087800D02*
X0019200Y0087800D01*
X0019200Y0097800D02*
X0028800Y0097800D01*
X0028800Y0107800D02*
X0019200Y0107800D01*
X0019200Y0117800D02*
X0028800Y0117800D01*
X0028800Y0127800D02*
X0019200Y0127800D01*
X0019200Y0137800D02*
X0028800Y0137800D01*
X0028800Y0147800D02*
X0019200Y0147800D01*
X0019200Y0157800D02*
X0028800Y0157800D01*
X0028800Y0167800D02*
X0019200Y0167800D01*
X0019200Y0177800D02*
X0028800Y0177800D01*
X0028800Y0187800D02*
X0019200Y0187800D01*
X0019200Y0197800D02*
X0028800Y0197800D01*
X0028800Y0207800D02*
X0019200Y0207800D01*
X0038800Y0207800D02*
X0048400Y0207800D01*
X0048400Y0197800D02*
X0038800Y0197800D01*
X0038800Y0187800D02*
X0048400Y0187800D01*
X0048400Y0177800D02*
X0038800Y0177800D01*
X0038800Y0167800D02*
X0048400Y0167800D01*
X0048400Y0157800D02*
X0038800Y0157800D01*
X0038800Y0147800D02*
X0048400Y0147800D01*
X0048400Y0137800D02*
X0038800Y0137800D01*
X0038800Y0127800D02*
X0048400Y0127800D01*
X0048400Y0117800D02*
X0038800Y0117800D01*
X0038800Y0107800D02*
X0048400Y0107800D01*
X0048400Y0097800D02*
X0038800Y0097800D01*
X0038800Y0087800D02*
X0048400Y0087800D01*
X0048400Y0077800D02*
X0038800Y0077800D01*
X0038800Y0067800D02*
X0048400Y0067800D01*
X0048400Y0057800D02*
X0038800Y0057800D01*
X0038800Y0047800D02*
X0048400Y0047800D01*
X0048400Y0037800D02*
X0038800Y0037800D01*
X0038800Y0027800D02*
X0048400Y0027800D01*
X0048400Y0017800D02*
X0038800Y0017800D01*
X0085800Y0018800D02*
X0085800Y0024800D01*
X0095800Y0024800D02*
X0095800Y0018800D01*
D11*
X0137800Y0017800D03*
X0137800Y0027800D03*
X0137800Y0037800D03*
X0137800Y0047800D03*
X0137800Y0057800D03*
X0137800Y0067800D03*
X0137800Y0077800D03*
X0137800Y0087800D03*
X0137800Y0097800D03*
X0137800Y0107800D03*
X0137800Y0117800D03*
X0137800Y0127800D03*
X0137800Y0137800D03*
X0137800Y0147800D03*
X0137800Y0157800D03*
X0137800Y0167800D03*
X0137800Y0177800D03*
X0137800Y0187800D03*
X0137800Y0197800D03*
X0137800Y0207800D03*
X0147800Y0207800D03*
X0147800Y0197800D03*
X0147800Y0187800D03*
X0147800Y0177800D03*
X0147800Y0167800D03*
X0147800Y0157800D03*
X0147800Y0147800D03*
X0147800Y0137800D03*
X0147800Y0127800D03*
X0147800Y0117800D03*
X0147800Y0107800D03*
X0147800Y0097800D03*
X0147800Y0087800D03*
X0147800Y0077800D03*
X0147800Y0067800D03*
X0147800Y0057800D03*
X0147800Y0047800D03*
X0147800Y0037800D03*
X0147800Y0027800D03*
X0147800Y0017800D03*
D12*
X0014100Y0014100D02*
X0014100Y0210500D01*
X0015229Y0210500D01*
X0015095Y0210316D01*
X0014752Y0209643D01*
X0014518Y0208924D01*
X0014400Y0208178D01*
X0014400Y0208000D01*
X0028600Y0208000D01*
X0028600Y0207600D01*
X0029000Y0207600D01*
X0029000Y0208000D01*
X0033600Y0208000D01*
X0033600Y0208178D01*
X0033482Y0208924D01*
X0033248Y0209643D01*
X0032905Y0210316D01*
X0032771Y0210500D01*
X0034853Y0210500D01*
X0034816Y0210462D01*
X0034100Y0208735D01*
X0034100Y0196865D01*
X0034816Y0195138D01*
X0035153Y0194800D01*
X0034628Y0194800D01*
X0032996Y0196432D01*
X0033200Y0196925D01*
X0033200Y0198675D01*
X0032530Y0200292D01*
X0031292Y0201530D01*
X0029675Y0202200D01*
X0018325Y0202200D01*
X0016708Y0201530D01*
X0015470Y0200292D01*
X0014800Y0198675D01*
X0014800Y0196925D01*
X0015470Y0195308D01*
X0016708Y0194070D01*
X0018325Y0193400D01*
X0029675Y0193400D01*
X0030168Y0193604D01*
X0032972Y0190800D01*
X0035577Y0190800D01*
X0035070Y0190292D01*
X0034400Y0188675D01*
X0034400Y0186925D01*
X0035070Y0185308D01*
X0035577Y0184800D01*
X0034628Y0184800D01*
X0032996Y0186432D01*
X0033200Y0186925D01*
X0033200Y0188675D01*
X0032530Y0190292D01*
X0031292Y0191530D01*
X0029675Y0192200D01*
X0018325Y0192200D01*
X0016708Y0191530D01*
X0015470Y0190292D01*
X0014800Y0188675D01*
X0014800Y0186925D01*
X0015470Y0185308D01*
X0016708Y0184070D01*
X0018325Y0183400D01*
X0029675Y0183400D01*
X0030168Y0183604D01*
X0032972Y0180800D01*
X0035577Y0180800D01*
X0035070Y0180292D01*
X0034400Y0178675D01*
X0034400Y0176925D01*
X0035070Y0175308D01*
X0035577Y0174800D01*
X0034628Y0174800D01*
X0032996Y0176432D01*
X0033200Y0176925D01*
X0033200Y0178675D01*
X0032530Y0180292D01*
X0031292Y0181530D01*
X0029675Y0182200D01*
X0018325Y0182200D01*
X0016708Y0181530D01*
X0015470Y0180292D01*
X0014800Y0178675D01*
X0014800Y0176925D01*
X0015470Y0175308D01*
X0016708Y0174070D01*
X0018325Y0173400D01*
X0029675Y0173400D01*
X0030168Y0173604D01*
X0032972Y0170800D01*
X0035577Y0170800D01*
X0035070Y0170292D01*
X0034400Y0168675D01*
X0034400Y0166925D01*
X0035070Y0165308D01*
X0035577Y0164800D01*
X0032972Y0164800D01*
X0030168Y0161996D01*
X0029675Y0162200D01*
X0018325Y0162200D01*
X0016708Y0161530D01*
X0015470Y0160292D01*
X0014800Y0158675D01*
X0014800Y0156925D01*
X0015470Y0155308D01*
X0016708Y0154070D01*
X0018325Y0153400D01*
X0029675Y0153400D01*
X0031292Y0154070D01*
X0032530Y0155308D01*
X0033200Y0156925D01*
X0033200Y0158675D01*
X0032996Y0159168D01*
X0034628Y0160800D01*
X0035577Y0160800D01*
X0035070Y0160292D01*
X0034400Y0158675D01*
X0034400Y0156925D01*
X0035070Y0155308D01*
X0035577Y0154800D01*
X0032972Y0154800D01*
X0030168Y0151996D01*
X0029675Y0152200D01*
X0018325Y0152200D01*
X0016708Y0151530D01*
X0015470Y0150292D01*
X0014800Y0148675D01*
X0014800Y0146925D01*
X0015470Y0145308D01*
X0016708Y0144070D01*
X0018325Y0143400D01*
X0029675Y0143400D01*
X0031292Y0144070D01*
X0032530Y0145308D01*
X0033200Y0146925D01*
X0033200Y0148675D01*
X0032996Y0149168D01*
X0034628Y0150800D01*
X0035577Y0150800D01*
X0035070Y0150292D01*
X0034400Y0148675D01*
X0034400Y0146925D01*
X0035070Y0145308D01*
X0035577Y0144800D01*
X0032972Y0144800D01*
X0030168Y0141996D01*
X0029675Y0142200D01*
X0018325Y0142200D01*
X0016708Y0141530D01*
X0015470Y0140292D01*
X0014800Y0138675D01*
X0014800Y0136925D01*
X0015470Y0135308D01*
X0016708Y0134070D01*
X0018325Y0133400D01*
X0029675Y0133400D01*
X0031292Y0134070D01*
X0032530Y0135308D01*
X0033200Y0136925D01*
X0033200Y0138675D01*
X0032996Y0139168D01*
X0034628Y0140800D01*
X0035577Y0140800D01*
X0035070Y0140292D01*
X0034400Y0138675D01*
X0034400Y0136925D01*
X0035070Y0135308D01*
X0036308Y0134070D01*
X0037925Y0133400D01*
X0049275Y0133400D01*
X0050892Y0134070D01*
X0052130Y0135308D01*
X0052334Y0135800D01*
X0096972Y0135800D01*
X0103300Y0129472D01*
X0103300Y0089336D01*
X0103181Y0089216D01*
X0102800Y0088297D01*
X0102800Y0087303D01*
X0103181Y0086384D01*
X0103884Y0085681D01*
X0104803Y0085300D01*
X0105797Y0085300D01*
X0105800Y0085301D01*
X0105800Y0084336D01*
X0105681Y0084216D01*
X0105300Y0083297D01*
X0105300Y0082303D01*
X0105681Y0081384D01*
X0106384Y0080681D01*
X0107303Y0080300D01*
X0108297Y0080300D01*
X0108300Y0080301D01*
X0108300Y0074336D01*
X0108181Y0074216D01*
X0107800Y0073297D01*
X0107800Y0072303D01*
X0108181Y0071384D01*
X0108884Y0070681D01*
X0109803Y0070300D01*
X0110797Y0070300D01*
X0110800Y0070301D01*
X0110800Y0069336D01*
X0110681Y0069216D01*
X0110300Y0068297D01*
X0110300Y0067303D01*
X0110681Y0066384D01*
X0111384Y0065681D01*
X0112303Y0065300D01*
X0113297Y0065300D01*
X0113300Y0065301D01*
X0113300Y0064336D01*
X0113181Y0064216D01*
X0112800Y0063297D01*
X0112800Y0062303D01*
X0113181Y0061384D01*
X0113884Y0060681D01*
X0114803Y0060300D01*
X0115797Y0060300D01*
X0115800Y0060301D01*
X0115800Y0059336D01*
X0115681Y0059216D01*
X0115300Y0058297D01*
X0115300Y0057303D01*
X0115681Y0056384D01*
X0116384Y0055681D01*
X0117303Y0055300D01*
X0118297Y0055300D01*
X0118300Y0055301D01*
X0118300Y0054336D01*
X0118181Y0054216D01*
X0117800Y0053297D01*
X0117800Y0052303D01*
X0118181Y0051384D01*
X0118884Y0050681D01*
X0119803Y0050300D01*
X0120797Y0050300D01*
X0120800Y0050301D01*
X0120800Y0049336D01*
X0120681Y0049216D01*
X0120300Y0048297D01*
X0120300Y0047303D01*
X0120681Y0046384D01*
X0121384Y0045681D01*
X0122303Y0045300D01*
X0123297Y0045300D01*
X0123300Y0045301D01*
X0123300Y0034336D01*
X0123181Y0034216D01*
X0122800Y0033297D01*
X0122800Y0032303D01*
X0123181Y0031384D01*
X0123884Y0030681D01*
X0124803Y0030300D01*
X0125797Y0030300D01*
X0125800Y0030301D01*
X0125800Y0024336D01*
X0125681Y0024216D01*
X0125300Y0023297D01*
X0125300Y0022303D01*
X0125681Y0021384D01*
X0126384Y0020681D01*
X0127303Y0020300D01*
X0128297Y0020300D01*
X0128300Y0020301D01*
X0128300Y0020000D01*
X0100711Y0020000D01*
X0100200Y0020511D01*
X0100200Y0025675D01*
X0099530Y0027292D01*
X0098292Y0028530D01*
X0096675Y0029200D01*
X0094925Y0029200D01*
X0093308Y0028530D01*
X0092070Y0027292D01*
X0091400Y0025675D01*
X0091400Y0017925D01*
X0092070Y0016308D01*
X0093308Y0015070D01*
X0094925Y0014400D01*
X0096675Y0014400D01*
X0098292Y0015070D01*
X0098856Y0015633D01*
X0098889Y0015600D01*
X0133070Y0015600D01*
X0134570Y0014100D01*
X0050923Y0014100D01*
X0052130Y0015308D01*
X0052334Y0015800D01*
X0052514Y0015800D01*
X0052634Y0015681D01*
X0053553Y0015300D01*
X0054547Y0015300D01*
X0055466Y0015681D01*
X0056169Y0016384D01*
X0056550Y0017303D01*
X0056550Y0018297D01*
X0056169Y0019216D01*
X0055466Y0019919D01*
X0054547Y0020300D01*
X0053553Y0020300D01*
X0052634Y0019919D01*
X0052514Y0019800D01*
X0052334Y0019800D01*
X0052130Y0020292D01*
X0050892Y0021530D01*
X0049275Y0022200D01*
X0037925Y0022200D01*
X0036308Y0021530D01*
X0035070Y0020292D01*
X0034400Y0018675D01*
X0034400Y0016925D01*
X0035070Y0015308D01*
X0036277Y0014100D01*
X0031323Y0014100D01*
X0032530Y0015308D01*
X0033200Y0016925D01*
X0033200Y0018675D01*
X0032530Y0020292D01*
X0031292Y0021530D01*
X0029675Y0022200D01*
X0018325Y0022200D01*
X0016708Y0021530D01*
X0015470Y0020292D01*
X0014800Y0018675D01*
X0014800Y0016925D01*
X0015470Y0015308D01*
X0016677Y0014100D01*
X0014100Y0014100D01*
X0014100Y0014997D02*
X0015780Y0014997D01*
X0014936Y0016596D02*
X0014100Y0016596D01*
X0014100Y0018194D02*
X0014800Y0018194D01*
X0015263Y0019793D02*
X0014100Y0019793D01*
X0014100Y0021391D02*
X0016569Y0021391D01*
X0018325Y0023400D02*
X0029675Y0023400D01*
X0031292Y0024070D01*
X0032530Y0025308D01*
X0033200Y0026925D01*
X0033200Y0028675D01*
X0032996Y0029168D01*
X0034628Y0030800D01*
X0035577Y0030800D01*
X0035070Y0030292D01*
X0034400Y0028675D01*
X0034400Y0026925D01*
X0035070Y0025308D01*
X0036308Y0024070D01*
X0037925Y0023400D01*
X0049275Y0023400D01*
X0050892Y0024070D01*
X0052130Y0025308D01*
X0052334Y0025800D01*
X0056264Y0025800D01*
X0056384Y0025681D01*
X0057303Y0025300D01*
X0058297Y0025300D01*
X0059216Y0025681D01*
X0059919Y0026384D01*
X0060300Y0027303D01*
X0060300Y0028297D01*
X0059919Y0029216D01*
X0059216Y0029919D01*
X0058297Y0030300D01*
X0057303Y0030300D01*
X0056384Y0029919D01*
X0056264Y0029800D01*
X0052334Y0029800D01*
X0052130Y0030292D01*
X0051623Y0030800D01*
X0060014Y0030800D01*
X0060134Y0030681D01*
X0061053Y0030300D01*
X0062047Y0030300D01*
X0062966Y0030681D01*
X0063669Y0031384D01*
X0064050Y0032303D01*
X0064050Y0033297D01*
X0063669Y0034216D01*
X0062966Y0034919D01*
X0062047Y0035300D01*
X0061053Y0035300D01*
X0060134Y0034919D01*
X0060014Y0034800D01*
X0051623Y0034800D01*
X0052130Y0035308D01*
X0052334Y0035800D01*
X0063764Y0035800D01*
X0063884Y0035681D01*
X0064803Y0035300D01*
X0065797Y0035300D01*
X0066716Y0035681D01*
X0067419Y0036384D01*
X0067800Y0037303D01*
X0067800Y0038297D01*
X0067419Y0039216D01*
X0066716Y0039919D01*
X0065797Y0040300D01*
X0064803Y0040300D01*
X0063884Y0039919D01*
X0063764Y0039800D01*
X0052334Y0039800D01*
X0052130Y0040292D01*
X0051623Y0040800D01*
X0066264Y0040800D01*
X0066384Y0040681D01*
X0067303Y0040300D01*
X0068297Y0040300D01*
X0069216Y0040681D01*
X0069919Y0041384D01*
X0070300Y0042303D01*
X0070300Y0043297D01*
X0069919Y0044216D01*
X0069216Y0044919D01*
X0068297Y0045300D01*
X0067303Y0045300D01*
X0066384Y0044919D01*
X0066264Y0044800D01*
X0051623Y0044800D01*
X0052130Y0045308D01*
X0052334Y0045800D01*
X0069264Y0045800D01*
X0069384Y0045681D01*
X0070303Y0045300D01*
X0071297Y0045300D01*
X0072216Y0045681D01*
X0072919Y0046384D01*
X0073300Y0047303D01*
X0073300Y0048297D01*
X0072919Y0049216D01*
X0072216Y0049919D01*
X0071297Y0050300D01*
X0070303Y0050300D01*
X0069384Y0049919D01*
X0069264Y0049800D01*
X0052334Y0049800D01*
X0052130Y0050292D01*
X0051623Y0050800D01*
X0068764Y0050800D01*
X0068884Y0050681D01*
X0069803Y0050300D01*
X0070797Y0050300D01*
X0071716Y0050681D01*
X0072419Y0051384D01*
X0072800Y0052303D01*
X0072800Y0053297D01*
X0072419Y0054216D01*
X0071716Y0054919D01*
X0070797Y0055300D01*
X0069803Y0055300D01*
X0068884Y0054919D01*
X0068764Y0054800D01*
X0051623Y0054800D01*
X0052130Y0055308D01*
X0052334Y0055800D01*
X0071264Y0055800D01*
X0071384Y0055681D01*
X0072303Y0055300D01*
X0073297Y0055300D01*
X0074216Y0055681D01*
X0074919Y0056384D01*
X0075300Y0057303D01*
X0075300Y0058297D01*
X0074919Y0059216D01*
X0074216Y0059919D01*
X0073297Y0060300D01*
X0072303Y0060300D01*
X0071384Y0059919D01*
X0071264Y0059800D01*
X0052334Y0059800D01*
X0052130Y0060292D01*
X0051623Y0060800D01*
X0073764Y0060800D01*
X0073884Y0060681D01*
X0074803Y0060300D01*
X0075797Y0060300D01*
X0076716Y0060681D01*
X0077419Y0061384D01*
X0077800Y0062303D01*
X0077800Y0063297D01*
X0077419Y0064216D01*
X0076716Y0064919D01*
X0075797Y0065300D01*
X0074803Y0065300D01*
X0073884Y0064919D01*
X0073764Y0064800D01*
X0051623Y0064800D01*
X0052130Y0065308D01*
X0052800Y0066925D01*
X0052800Y0068675D01*
X0052130Y0070292D01*
X0051623Y0070800D01*
X0076264Y0070800D01*
X0076384Y0070681D01*
X0077303Y0070300D01*
X0078297Y0070300D01*
X0079216Y0070681D01*
X0079919Y0071384D01*
X0080300Y0072303D01*
X0080300Y0073297D01*
X0079919Y0074216D01*
X0079216Y0074919D01*
X0078297Y0075300D01*
X0077303Y0075300D01*
X0076384Y0074919D01*
X0076264Y0074800D01*
X0051623Y0074800D01*
X0052130Y0075308D01*
X0052334Y0075800D01*
X0078764Y0075800D01*
X0078884Y0075681D01*
X0079803Y0075300D01*
X0080797Y0075300D01*
X0081716Y0075681D01*
X0082419Y0076384D01*
X0082800Y0077303D01*
X0082800Y0078297D01*
X0082419Y0079216D01*
X0081716Y0079919D01*
X0080797Y0080300D01*
X0079803Y0080300D01*
X0078884Y0079919D01*
X0078764Y0079800D01*
X0052334Y0079800D01*
X0052130Y0080292D01*
X0051623Y0080800D01*
X0081264Y0080800D01*
X0081384Y0080681D01*
X0082303Y0080300D01*
X0083297Y0080300D01*
X0084216Y0080681D01*
X0084919Y0081384D01*
X0085300Y0082303D01*
X0085300Y0083297D01*
X0084919Y0084216D01*
X0084216Y0084919D01*
X0083297Y0085300D01*
X0082303Y0085300D01*
X0081384Y0084919D01*
X0081264Y0084800D01*
X0051623Y0084800D01*
X0052130Y0085308D01*
X0052334Y0085800D01*
X0083764Y0085800D01*
X0083884Y0085681D01*
X0084803Y0085300D01*
X0085797Y0085300D01*
X0086716Y0085681D01*
X0087419Y0086384D01*
X0087800Y0087303D01*
X0087800Y0088297D01*
X0087419Y0089216D01*
X0086716Y0089919D01*
X0085797Y0090300D01*
X0084803Y0090300D01*
X0083884Y0089919D01*
X0083764Y0089800D01*
X0052334Y0089800D01*
X0052130Y0090292D01*
X0050892Y0091530D01*
X0049275Y0092200D01*
X0037925Y0092200D01*
X0036308Y0091530D01*
X0035070Y0090292D01*
X0034400Y0088675D01*
X0034400Y0086925D01*
X0035070Y0085308D01*
X0035577Y0084800D01*
X0032972Y0084800D01*
X0030168Y0081996D01*
X0029675Y0082200D01*
X0018325Y0082200D01*
X0016708Y0081530D01*
X0015470Y0080292D01*
X0014800Y0078675D01*
X0014800Y0076925D01*
X0015470Y0075308D01*
X0016708Y0074070D01*
X0018325Y0073400D01*
X0029675Y0073400D01*
X0031292Y0074070D01*
X0032530Y0075308D01*
X0033200Y0076925D01*
X0033200Y0078675D01*
X0032996Y0079168D01*
X0034628Y0080800D01*
X0035577Y0080800D01*
X0035070Y0080292D01*
X0034400Y0078675D01*
X0034400Y0076925D01*
X0035070Y0075308D01*
X0035577Y0074800D01*
X0032972Y0074800D01*
X0031800Y0073628D01*
X0030168Y0071996D01*
X0029675Y0072200D01*
X0018325Y0072200D01*
X0016708Y0071530D01*
X0015470Y0070292D01*
X0014800Y0068675D01*
X0014800Y0066925D01*
X0015470Y0065308D01*
X0016708Y0064070D01*
X0018325Y0063400D01*
X0029675Y0063400D01*
X0031292Y0064070D01*
X0032530Y0065308D01*
X0033200Y0066925D01*
X0033200Y0068675D01*
X0032996Y0069168D01*
X0034628Y0070800D01*
X0035577Y0070800D01*
X0035070Y0070292D01*
X0034400Y0068675D01*
X0034400Y0066925D01*
X0035070Y0065308D01*
X0035577Y0064800D01*
X0032972Y0064800D01*
X0031800Y0063628D01*
X0030168Y0061996D01*
X0029675Y0062200D01*
X0018325Y0062200D01*
X0016708Y0061530D01*
X0015470Y0060292D01*
X0014800Y0058675D01*
X0014800Y0056925D01*
X0015470Y0055308D01*
X0016708Y0054070D01*
X0018325Y0053400D01*
X0029675Y0053400D01*
X0031292Y0054070D01*
X0032530Y0055308D01*
X0033200Y0056925D01*
X0033200Y0058675D01*
X0032996Y0059168D01*
X0034628Y0060800D01*
X0035577Y0060800D01*
X0035070Y0060292D01*
X0034400Y0058675D01*
X0034400Y0056925D01*
X0035070Y0055308D01*
X0035577Y0054800D01*
X0032972Y0054800D01*
X0030168Y0051996D01*
X0029675Y0052200D01*
X0018325Y0052200D01*
X0016708Y0051530D01*
X0015470Y0050292D01*
X0014800Y0048675D01*
X0014800Y0046925D01*
X0015470Y0045308D01*
X0016708Y0044070D01*
X0018325Y0043400D01*
X0029675Y0043400D01*
X0031292Y0044070D01*
X0032530Y0045308D01*
X0033200Y0046925D01*
X0033200Y0048675D01*
X0032996Y0049168D01*
X0034628Y0050800D01*
X0035577Y0050800D01*
X0035070Y0050292D01*
X0034400Y0048675D01*
X0034400Y0046925D01*
X0035070Y0045308D01*
X0035577Y0044800D01*
X0032972Y0044800D01*
X0030168Y0041996D01*
X0029675Y0042200D01*
X0018325Y0042200D01*
X0016708Y0041530D01*
X0015470Y0040292D01*
X0014800Y0038675D01*
X0014800Y0036925D01*
X0015470Y0035308D01*
X0016708Y0034070D01*
X0018325Y0033400D01*
X0029675Y0033400D01*
X0031292Y0034070D01*
X0032530Y0035308D01*
X0033200Y0036925D01*
X0033200Y0038675D01*
X0032996Y0039168D01*
X0034628Y0040800D01*
X0035577Y0040800D01*
X0035070Y0040292D01*
X0034400Y0038675D01*
X0034400Y0036925D01*
X0035070Y0035308D01*
X0035577Y0034800D01*
X0032972Y0034800D01*
X0030168Y0031996D01*
X0029675Y0032200D01*
X0018325Y0032200D01*
X0016708Y0031530D01*
X0015470Y0030292D01*
X0014800Y0028675D01*
X0014800Y0026925D01*
X0015470Y0025308D01*
X0016708Y0024070D01*
X0018325Y0023400D01*
X0016189Y0024588D02*
X0014100Y0024588D01*
X0014100Y0022990D02*
X0081400Y0022990D01*
X0081400Y0024588D02*
X0051411Y0024588D01*
X0051031Y0021391D02*
X0081400Y0021391D01*
X0081400Y0019793D02*
X0055593Y0019793D01*
X0056550Y0018194D02*
X0081400Y0018194D01*
X0081400Y0017925D02*
X0082070Y0016308D01*
X0083308Y0015070D01*
X0084925Y0014400D01*
X0086675Y0014400D01*
X0088292Y0015070D01*
X0089530Y0016308D01*
X0090200Y0017925D01*
X0090200Y0025675D01*
X0089530Y0027292D01*
X0088292Y0028530D01*
X0086675Y0029200D01*
X0084925Y0029200D01*
X0083308Y0028530D01*
X0082070Y0027292D01*
X0081400Y0025675D01*
X0081400Y0017925D01*
X0081951Y0016596D02*
X0056257Y0016596D01*
X0051820Y0014997D02*
X0083483Y0014997D01*
X0088117Y0014997D02*
X0093483Y0014997D01*
X0091951Y0016596D02*
X0089649Y0016596D01*
X0090200Y0018194D02*
X0091400Y0018194D01*
X0091400Y0019793D02*
X0090200Y0019793D01*
X0090200Y0021391D02*
X0091400Y0021391D01*
X0091400Y0022990D02*
X0090200Y0022990D01*
X0090200Y0024588D02*
X0091400Y0024588D01*
X0091612Y0026187D02*
X0089988Y0026187D01*
X0089037Y0027785D02*
X0092563Y0027785D01*
X0099037Y0027785D02*
X0125800Y0027785D01*
X0125800Y0026187D02*
X0099988Y0026187D01*
X0100200Y0024588D02*
X0125800Y0024588D01*
X0125300Y0022990D02*
X0100200Y0022990D01*
X0100200Y0021391D02*
X0125678Y0021391D01*
X0132300Y0021391D02*
X0134461Y0021391D01*
X0133249Y0020179D02*
X0135770Y0022700D01*
X0135800Y0022700D01*
X0135800Y0022900D01*
X0135770Y0022900D01*
X0132900Y0025770D01*
X0132900Y0029830D01*
X0135770Y0032700D01*
X0139830Y0032700D01*
X0142700Y0029830D01*
X0142700Y0025770D01*
X0139830Y0022900D01*
X0139800Y0022900D01*
X0139800Y0022700D01*
X0139830Y0022700D01*
X0142517Y0020012D01*
X0145588Y0023083D01*
X0142900Y0025770D01*
X0142900Y0029830D01*
X0145770Y0032700D01*
X0149830Y0032700D01*
X0152700Y0029830D01*
X0152700Y0025770D01*
X0150012Y0023083D01*
X0153100Y0019995D01*
X0153100Y0018000D01*
X0148000Y0018000D01*
X0148000Y0017600D01*
X0153100Y0017600D01*
X0153100Y0015605D01*
X0151595Y0014100D01*
X0171500Y0014100D01*
X0171500Y0210500D01*
X0152030Y0210500D01*
X0152700Y0209830D01*
X0152700Y0205770D01*
X0149830Y0202900D01*
X0145770Y0202900D01*
X0142900Y0205770D01*
X0142900Y0209830D01*
X0143570Y0210500D01*
X0142030Y0210500D01*
X0142700Y0209830D01*
X0142700Y0205770D01*
X0139830Y0202900D01*
X0135770Y0202900D01*
X0132900Y0205770D01*
X0132900Y0209830D01*
X0133570Y0210500D01*
X0051923Y0210500D01*
X0052130Y0210292D01*
X0052334Y0209800D01*
X0123628Y0209800D01*
X0124800Y0208628D01*
X0131128Y0202300D01*
X0132300Y0201128D01*
X0132300Y0021128D01*
X0133249Y0020179D01*
X0132300Y0022990D02*
X0135681Y0022990D01*
X0134082Y0024588D02*
X0132300Y0024588D01*
X0132300Y0026187D02*
X0132900Y0026187D01*
X0132900Y0027785D02*
X0132300Y0027785D01*
X0132300Y0029384D02*
X0132900Y0029384D01*
X0132300Y0030982D02*
X0134052Y0030982D01*
X0135651Y0032581D02*
X0132300Y0032581D01*
X0132300Y0034179D02*
X0134491Y0034179D01*
X0135770Y0032900D02*
X0139830Y0032900D01*
X0142700Y0035770D01*
X0142700Y0039830D01*
X0139830Y0042700D01*
X0135770Y0042700D01*
X0132900Y0039830D01*
X0132900Y0035770D01*
X0135770Y0032900D01*
X0132900Y0035778D02*
X0132300Y0035778D01*
X0132300Y0037376D02*
X0132900Y0037376D01*
X0132900Y0038975D02*
X0132300Y0038975D01*
X0132300Y0040573D02*
X0133644Y0040573D01*
X0132300Y0042172D02*
X0135242Y0042172D01*
X0135770Y0042900D02*
X0139830Y0042900D01*
X0142700Y0045770D01*
X0142700Y0049830D01*
X0139830Y0052700D01*
X0135770Y0052700D01*
X0132900Y0049830D01*
X0132900Y0045770D01*
X0135770Y0042900D01*
X0134900Y0043770D02*
X0132300Y0043770D01*
X0132300Y0045369D02*
X0133302Y0045369D01*
X0132900Y0046967D02*
X0132300Y0046967D01*
X0132300Y0048566D02*
X0132900Y0048566D01*
X0133235Y0050164D02*
X0132300Y0050164D01*
X0132300Y0051763D02*
X0134833Y0051763D01*
X0135770Y0052900D02*
X0139830Y0052900D01*
X0142700Y0055770D01*
X0142700Y0059830D01*
X0139830Y0062700D01*
X0135770Y0062700D01*
X0132900Y0059830D01*
X0132900Y0055770D01*
X0135770Y0052900D01*
X0135309Y0053361D02*
X0132300Y0053361D01*
X0132300Y0054960D02*
X0133711Y0054960D01*
X0132900Y0056558D02*
X0132300Y0056558D01*
X0132300Y0058157D02*
X0132900Y0058157D01*
X0132900Y0059755D02*
X0132300Y0059755D01*
X0132300Y0061354D02*
X0134424Y0061354D01*
X0135770Y0062900D02*
X0139830Y0062900D01*
X0142700Y0065770D01*
X0142700Y0069830D01*
X0139830Y0072700D01*
X0135770Y0072700D01*
X0132900Y0069830D01*
X0132900Y0065770D01*
X0135770Y0062900D01*
X0135718Y0062952D02*
X0132300Y0062952D01*
X0132300Y0064551D02*
X0134119Y0064551D01*
X0132900Y0066149D02*
X0132300Y0066149D01*
X0132300Y0067748D02*
X0132900Y0067748D01*
X0132900Y0069346D02*
X0132300Y0069346D01*
X0132300Y0070945D02*
X0134015Y0070945D01*
X0135614Y0072543D02*
X0132300Y0072543D01*
X0132300Y0074142D02*
X0134528Y0074142D01*
X0135770Y0072900D02*
X0139830Y0072900D01*
X0142700Y0075770D01*
X0142700Y0079830D01*
X0139830Y0082700D01*
X0135770Y0082700D01*
X0132900Y0079830D01*
X0132900Y0075770D01*
X0135770Y0072900D01*
X0132930Y0075740D02*
X0132300Y0075740D01*
X0132300Y0077339D02*
X0132900Y0077339D01*
X0132900Y0078937D02*
X0132300Y0078937D01*
X0132300Y0080536D02*
X0133606Y0080536D01*
X0132300Y0082134D02*
X0135205Y0082134D01*
X0135770Y0082900D02*
X0139830Y0082900D01*
X0142700Y0085770D01*
X0142700Y0089830D01*
X0139830Y0092700D01*
X0135770Y0092700D01*
X0132900Y0089830D01*
X0132900Y0085770D01*
X0135770Y0082900D01*
X0134937Y0083733D02*
X0132300Y0083733D01*
X0132300Y0085332D02*
X0133339Y0085332D01*
X0132900Y0086930D02*
X0132300Y0086930D01*
X0132300Y0088529D02*
X0132900Y0088529D01*
X0133197Y0090127D02*
X0132300Y0090127D01*
X0132300Y0091726D02*
X0134796Y0091726D01*
X0135770Y0092900D02*
X0139830Y0092900D01*
X0142517Y0095588D01*
X0145588Y0092517D01*
X0142900Y0089830D01*
X0142900Y0085770D01*
X0145770Y0082900D01*
X0149830Y0082900D01*
X0152700Y0085770D01*
X0152700Y0089830D01*
X0150012Y0092517D01*
X0153100Y0095605D01*
X0153100Y0097600D01*
X0148000Y0097600D01*
X0148000Y0098000D01*
X0153100Y0098000D01*
X0153100Y0099995D01*
X0150012Y0103083D01*
X0152700Y0105770D01*
X0152700Y0109830D01*
X0149830Y0112700D01*
X0145770Y0112700D01*
X0142900Y0109830D01*
X0142900Y0105770D01*
X0145588Y0103083D01*
X0142517Y0100012D01*
X0139830Y0102700D01*
X0135770Y0102700D01*
X0132900Y0099830D01*
X0132900Y0095770D01*
X0135770Y0092900D01*
X0135346Y0093324D02*
X0132300Y0093324D01*
X0132300Y0094923D02*
X0133748Y0094923D01*
X0132900Y0096521D02*
X0132300Y0096521D01*
X0132300Y0098120D02*
X0132900Y0098120D01*
X0132900Y0099718D02*
X0132300Y0099718D01*
X0132300Y0101317D02*
X0134387Y0101317D01*
X0135770Y0102900D02*
X0139830Y0102900D01*
X0142700Y0105770D01*
X0142700Y0109830D01*
X0139830Y0112700D01*
X0135770Y0112700D01*
X0132900Y0109830D01*
X0132900Y0105770D01*
X0135770Y0102900D01*
X0135755Y0102915D02*
X0132300Y0102915D01*
X0132300Y0104514D02*
X0134157Y0104514D01*
X0132900Y0106112D02*
X0132300Y0106112D01*
X0132300Y0107711D02*
X0132900Y0107711D01*
X0132900Y0109309D02*
X0132300Y0109309D01*
X0132300Y0110908D02*
X0133978Y0110908D01*
X0135577Y0112506D02*
X0132300Y0112506D01*
X0132300Y0114105D02*
X0134566Y0114105D01*
X0135770Y0112900D02*
X0139830Y0112900D01*
X0142700Y0115770D01*
X0142700Y0119830D01*
X0139830Y0122700D01*
X0135770Y0122700D01*
X0132900Y0119830D01*
X0132900Y0115770D01*
X0135770Y0112900D01*
X0132967Y0115703D02*
X0132300Y0115703D01*
X0132300Y0117302D02*
X0132900Y0117302D01*
X0132900Y0118900D02*
X0132300Y0118900D01*
X0132300Y0120499D02*
X0133569Y0120499D01*
X0132300Y0122097D02*
X0135168Y0122097D01*
X0135770Y0122900D02*
X0139830Y0122900D01*
X0142700Y0125770D01*
X0142700Y0129830D01*
X0139830Y0132700D01*
X0135770Y0132700D01*
X0132900Y0129830D01*
X0132900Y0125770D01*
X0135770Y0122900D01*
X0134975Y0123696D02*
X0132300Y0123696D01*
X0132300Y0125294D02*
X0133376Y0125294D01*
X0132900Y0126893D02*
X0132300Y0126893D01*
X0132300Y0128491D02*
X0132900Y0128491D01*
X0133160Y0130090D02*
X0132300Y0130090D01*
X0132300Y0131688D02*
X0134759Y0131688D01*
X0135770Y0132900D02*
X0139830Y0132900D01*
X0142700Y0135770D01*
X0142700Y0139830D01*
X0139830Y0142700D01*
X0135770Y0142700D01*
X0132900Y0139830D01*
X0132900Y0135770D01*
X0135770Y0132900D01*
X0135383Y0133287D02*
X0132300Y0133287D01*
X0132300Y0134885D02*
X0133785Y0134885D01*
X0132900Y0136484D02*
X0132300Y0136484D01*
X0132300Y0138082D02*
X0132900Y0138082D01*
X0132900Y0139681D02*
X0132300Y0139681D01*
X0132300Y0141279D02*
X0134350Y0141279D01*
X0135770Y0142900D02*
X0139830Y0142900D01*
X0142700Y0145770D01*
X0142700Y0149830D01*
X0139830Y0152700D01*
X0135770Y0152700D01*
X0132900Y0149830D01*
X0132900Y0145770D01*
X0135770Y0142900D01*
X0134194Y0144476D02*
X0132300Y0144476D01*
X0132300Y0142878D02*
X0171500Y0142878D01*
X0171500Y0144476D02*
X0151406Y0144476D01*
X0152700Y0145770D02*
X0149830Y0142900D01*
X0145770Y0142900D01*
X0142900Y0145770D01*
X0142900Y0149830D01*
X0145770Y0152700D01*
X0149830Y0152700D01*
X0152700Y0149830D01*
X0152700Y0145770D01*
X0152700Y0146075D02*
X0171500Y0146075D01*
X0171500Y0147673D02*
X0152700Y0147673D01*
X0152700Y0149272D02*
X0171500Y0149272D01*
X0171500Y0150870D02*
X0151659Y0150870D01*
X0150061Y0152469D02*
X0171500Y0152469D01*
X0171500Y0154068D02*
X0150997Y0154068D01*
X0149830Y0152900D02*
X0152700Y0155770D01*
X0152700Y0159830D01*
X0152178Y0160352D01*
X0152303Y0160300D01*
X0153297Y0160300D01*
X0154216Y0160681D01*
X0154919Y0161384D01*
X0155300Y0162303D01*
X0155300Y0163297D01*
X0154919Y0164216D01*
X0154216Y0164919D01*
X0153297Y0165300D01*
X0152303Y0165300D01*
X0152178Y0165248D01*
X0152700Y0165770D01*
X0152700Y0169830D01*
X0152178Y0170352D01*
X0152303Y0170300D01*
X0153297Y0170300D01*
X0154216Y0170681D01*
X0154919Y0171384D01*
X0155300Y0172303D01*
X0155300Y0173297D01*
X0154919Y0174216D01*
X0154216Y0174919D01*
X0153297Y0175300D01*
X0152303Y0175300D01*
X0152178Y0175248D01*
X0152700Y0175770D01*
X0152700Y0179830D01*
X0149830Y0182700D01*
X0145770Y0182700D01*
X0142900Y0179830D01*
X0142900Y0175770D01*
X0143870Y0174800D01*
X0143628Y0174800D01*
X0142679Y0175749D01*
X0142700Y0175770D01*
X0142700Y0179830D01*
X0139830Y0182700D01*
X0135770Y0182700D01*
X0132900Y0179830D01*
X0132900Y0175770D01*
X0135770Y0172900D01*
X0139830Y0172900D01*
X0139851Y0172921D01*
X0140800Y0171972D01*
X0141972Y0170800D01*
X0143870Y0170800D01*
X0142900Y0169830D01*
X0142900Y0165770D01*
X0143870Y0164800D01*
X0141972Y0164800D01*
X0140800Y0163628D01*
X0139851Y0162679D01*
X0139830Y0162700D01*
X0135770Y0162700D01*
X0132900Y0159830D01*
X0132900Y0155770D01*
X0135770Y0152900D01*
X0139830Y0152900D01*
X0142700Y0155770D01*
X0142700Y0159830D01*
X0142679Y0159851D01*
X0143628Y0160800D01*
X0143870Y0160800D01*
X0142900Y0159830D01*
X0142900Y0155770D01*
X0145770Y0152900D01*
X0149830Y0152900D01*
X0152596Y0155666D02*
X0171500Y0155666D01*
X0171500Y0157265D02*
X0152700Y0157265D01*
X0152700Y0158863D02*
X0171500Y0158863D01*
X0171500Y0160462D02*
X0153687Y0160462D01*
X0155199Y0162060D02*
X0171500Y0162060D01*
X0171500Y0163659D02*
X0155150Y0163659D01*
X0153401Y0165257D02*
X0171500Y0165257D01*
X0171500Y0166856D02*
X0152700Y0166856D01*
X0152700Y0168454D02*
X0171500Y0168454D01*
X0171500Y0170053D02*
X0152477Y0170053D01*
X0155030Y0171651D02*
X0171500Y0171651D01*
X0171500Y0173250D02*
X0155300Y0173250D01*
X0154287Y0174848D02*
X0171500Y0174848D01*
X0171500Y0176447D02*
X0152700Y0176447D01*
X0152700Y0178045D02*
X0171500Y0178045D01*
X0171500Y0179644D02*
X0152700Y0179644D01*
X0151287Y0181242D02*
X0171500Y0181242D01*
X0171500Y0182841D02*
X0132300Y0182841D01*
X0132300Y0184439D02*
X0134231Y0184439D01*
X0132900Y0185770D02*
X0135770Y0182900D01*
X0139830Y0182900D01*
X0142700Y0185770D01*
X0142700Y0189830D01*
X0139830Y0192700D01*
X0135770Y0192700D01*
X0132900Y0189830D01*
X0132900Y0185770D01*
X0132900Y0186038D02*
X0132300Y0186038D01*
X0132300Y0187636D02*
X0132900Y0187636D01*
X0132900Y0189235D02*
X0132300Y0189235D01*
X0132300Y0190833D02*
X0133904Y0190833D01*
X0135502Y0192432D02*
X0132300Y0192432D01*
X0132300Y0194030D02*
X0134640Y0194030D01*
X0135770Y0192900D02*
X0139830Y0192900D01*
X0142700Y0195770D01*
X0142700Y0199830D01*
X0139830Y0202700D01*
X0135770Y0202700D01*
X0132900Y0199830D01*
X0132900Y0195770D01*
X0135770Y0192900D01*
X0133042Y0195629D02*
X0132300Y0195629D01*
X0132300Y0197227D02*
X0132900Y0197227D01*
X0132900Y0198826D02*
X0132300Y0198826D01*
X0132300Y0200424D02*
X0133495Y0200424D01*
X0135093Y0202023D02*
X0131406Y0202023D01*
X0129807Y0203621D02*
X0135049Y0203621D01*
X0133450Y0205220D02*
X0128209Y0205220D01*
X0126610Y0206818D02*
X0132900Y0206818D01*
X0132900Y0208417D02*
X0125012Y0208417D01*
X0133086Y0210015D02*
X0052245Y0210015D01*
X0034630Y0210015D02*
X0033058Y0210015D01*
X0033562Y0208417D02*
X0034100Y0208417D01*
X0033600Y0207600D02*
X0029000Y0207600D01*
X0029000Y0203000D01*
X0029178Y0203000D01*
X0029924Y0203118D01*
X0030643Y0203352D01*
X0031316Y0203695D01*
X0031927Y0204139D01*
X0032461Y0204673D01*
X0032905Y0205284D01*
X0033248Y0205957D01*
X0033482Y0206676D01*
X0033600Y0207422D01*
X0033600Y0207600D01*
X0033504Y0206818D02*
X0034100Y0206818D01*
X0034100Y0205220D02*
X0032859Y0205220D01*
X0034100Y0203621D02*
X0031172Y0203621D01*
X0030103Y0202023D02*
X0034100Y0202023D01*
X0034100Y0200424D02*
X0032398Y0200424D01*
X0033138Y0198826D02*
X0034100Y0198826D01*
X0034100Y0197227D02*
X0033200Y0197227D01*
X0033800Y0195629D02*
X0034612Y0195629D01*
X0031340Y0192432D02*
X0014100Y0192432D01*
X0014100Y0194030D02*
X0016803Y0194030D01*
X0015337Y0195629D02*
X0014100Y0195629D01*
X0014100Y0197227D02*
X0014800Y0197227D01*
X0014862Y0198826D02*
X0014100Y0198826D01*
X0014100Y0200424D02*
X0015602Y0200424D01*
X0014100Y0202023D02*
X0017897Y0202023D01*
X0018076Y0203118D02*
X0018822Y0203000D01*
X0028600Y0203000D01*
X0028600Y0207600D01*
X0014400Y0207600D01*
X0014400Y0207422D01*
X0014518Y0206676D01*
X0014752Y0205957D01*
X0015095Y0205284D01*
X0015539Y0204673D01*
X0016073Y0204139D01*
X0016684Y0203695D01*
X0017357Y0203352D01*
X0018076Y0203118D01*
X0016828Y0203621D02*
X0014100Y0203621D01*
X0014100Y0205220D02*
X0015141Y0205220D01*
X0014496Y0206818D02*
X0014100Y0206818D01*
X0014100Y0208417D02*
X0014438Y0208417D01*
X0014100Y0210015D02*
X0014942Y0210015D01*
X0028600Y0206818D02*
X0029000Y0206818D01*
X0029000Y0205220D02*
X0028600Y0205220D01*
X0028600Y0203621D02*
X0029000Y0203621D01*
X0031989Y0190833D02*
X0032938Y0190833D01*
X0032968Y0189235D02*
X0034632Y0189235D01*
X0034400Y0187636D02*
X0033200Y0187636D01*
X0033391Y0186038D02*
X0034767Y0186038D01*
X0030931Y0182841D02*
X0014100Y0182841D01*
X0014100Y0184439D02*
X0016338Y0184439D01*
X0015167Y0186038D02*
X0014100Y0186038D01*
X0014100Y0187636D02*
X0014800Y0187636D01*
X0015032Y0189235D02*
X0014100Y0189235D01*
X0014100Y0190833D02*
X0016011Y0190833D01*
X0016420Y0181242D02*
X0014100Y0181242D01*
X0014100Y0179644D02*
X0015201Y0179644D01*
X0014800Y0178045D02*
X0014100Y0178045D01*
X0014100Y0176447D02*
X0014998Y0176447D01*
X0014100Y0174848D02*
X0015929Y0174848D01*
X0014100Y0173250D02*
X0030522Y0173250D01*
X0029675Y0172200D02*
X0018325Y0172200D01*
X0016708Y0171530D01*
X0015470Y0170292D01*
X0014800Y0168675D01*
X0014800Y0166925D01*
X0015470Y0165308D01*
X0016708Y0164070D01*
X0018325Y0163400D01*
X0029675Y0163400D01*
X0031292Y0164070D01*
X0032530Y0165308D01*
X0033200Y0166925D01*
X0033200Y0168675D01*
X0032530Y0170292D01*
X0031292Y0171530D01*
X0029675Y0172200D01*
X0031000Y0171651D02*
X0032120Y0171651D01*
X0032629Y0170053D02*
X0034971Y0170053D01*
X0034400Y0168454D02*
X0033200Y0168454D01*
X0033171Y0166856D02*
X0034429Y0166856D01*
X0035120Y0165257D02*
X0032480Y0165257D01*
X0031830Y0163659D02*
X0030299Y0163659D01*
X0030232Y0162060D02*
X0030013Y0162060D01*
X0033122Y0158863D02*
X0034478Y0158863D01*
X0034400Y0157265D02*
X0033200Y0157265D01*
X0032679Y0155666D02*
X0034921Y0155666D01*
X0032239Y0154068D02*
X0031287Y0154068D01*
X0030641Y0152469D02*
X0014100Y0152469D01*
X0014100Y0154068D02*
X0016713Y0154068D01*
X0015321Y0155666D02*
X0014100Y0155666D01*
X0014100Y0157265D02*
X0014800Y0157265D01*
X0014878Y0158863D02*
X0014100Y0158863D01*
X0014100Y0160462D02*
X0015639Y0160462D01*
X0014100Y0162060D02*
X0017987Y0162060D01*
X0017701Y0163659D02*
X0014100Y0163659D01*
X0014100Y0165257D02*
X0015520Y0165257D01*
X0014829Y0166856D02*
X0014100Y0166856D01*
X0014100Y0168454D02*
X0014800Y0168454D01*
X0015371Y0170053D02*
X0014100Y0170053D01*
X0014100Y0171651D02*
X0017000Y0171651D01*
X0033002Y0176447D02*
X0034598Y0176447D01*
X0034580Y0174848D02*
X0035529Y0174848D01*
X0034400Y0178045D02*
X0033200Y0178045D01*
X0032799Y0179644D02*
X0034801Y0179644D01*
X0032529Y0181242D02*
X0031580Y0181242D01*
X0034290Y0160462D02*
X0035239Y0160462D01*
X0034647Y0149272D02*
X0033100Y0149272D01*
X0033200Y0147673D02*
X0034400Y0147673D01*
X0034752Y0146075D02*
X0032848Y0146075D01*
X0032648Y0144476D02*
X0031699Y0144476D01*
X0031050Y0142878D02*
X0014100Y0142878D01*
X0014100Y0144476D02*
X0016301Y0144476D01*
X0015152Y0146075D02*
X0014100Y0146075D01*
X0014100Y0147673D02*
X0014800Y0147673D01*
X0015047Y0149272D02*
X0014100Y0149272D01*
X0014100Y0150870D02*
X0016048Y0150870D01*
X0016457Y0141279D02*
X0014100Y0141279D01*
X0014100Y0139681D02*
X0015217Y0139681D01*
X0014800Y0138082D02*
X0014100Y0138082D01*
X0014100Y0136484D02*
X0014983Y0136484D01*
X0014100Y0134885D02*
X0015892Y0134885D01*
X0014100Y0133287D02*
X0099485Y0133287D01*
X0101083Y0131688D02*
X0050510Y0131688D01*
X0050892Y0131530D02*
X0049275Y0132200D01*
X0037925Y0132200D01*
X0036308Y0131530D01*
X0035070Y0130292D01*
X0034400Y0128675D01*
X0034400Y0126925D01*
X0035070Y0125308D01*
X0035577Y0124800D01*
X0032972Y0124800D01*
X0030168Y0121996D01*
X0029675Y0122200D01*
X0018325Y0122200D01*
X0016708Y0121530D01*
X0015470Y0120292D01*
X0014800Y0118675D01*
X0014800Y0116925D01*
X0015470Y0115308D01*
X0016708Y0114070D01*
X0018325Y0113400D01*
X0029675Y0113400D01*
X0031292Y0114070D01*
X0032530Y0115308D01*
X0033200Y0116925D01*
X0033200Y0118675D01*
X0032996Y0119168D01*
X0034628Y0120800D01*
X0035577Y0120800D01*
X0035070Y0120292D01*
X0034400Y0118675D01*
X0034400Y0116925D01*
X0035070Y0115308D01*
X0035577Y0114800D01*
X0032972Y0114800D01*
X0030168Y0111996D01*
X0029675Y0112200D01*
X0018325Y0112200D01*
X0016708Y0111530D01*
X0015470Y0110292D01*
X0014800Y0108675D01*
X0014800Y0106925D01*
X0015470Y0105308D01*
X0016708Y0104070D01*
X0018325Y0103400D01*
X0029675Y0103400D01*
X0031292Y0104070D01*
X0032530Y0105308D01*
X0033200Y0106925D01*
X0033200Y0108675D01*
X0032996Y0109168D01*
X0034628Y0110800D01*
X0035577Y0110800D01*
X0035070Y0110292D01*
X0034400Y0108675D01*
X0034400Y0106925D01*
X0035070Y0105308D01*
X0035577Y0104800D01*
X0032972Y0104800D01*
X0030168Y0101996D01*
X0029675Y0102200D01*
X0018325Y0102200D01*
X0016708Y0101530D01*
X0015470Y0100292D01*
X0014800Y0098675D01*
X0014800Y0096925D01*
X0015470Y0095308D01*
X0016708Y0094070D01*
X0018325Y0093400D01*
X0029675Y0093400D01*
X0031292Y0094070D01*
X0032530Y0095308D01*
X0033200Y0096925D01*
X0033200Y0098675D01*
X0032996Y0099168D01*
X0034628Y0100800D01*
X0035577Y0100800D01*
X0035070Y0100292D01*
X0034400Y0098675D01*
X0034400Y0096925D01*
X0035070Y0095308D01*
X0036308Y0094070D01*
X0037925Y0093400D01*
X0049275Y0093400D01*
X0050892Y0094070D01*
X0052130Y0095308D01*
X0052334Y0095800D01*
X0086264Y0095800D01*
X0086384Y0095681D01*
X0087303Y0095300D01*
X0088297Y0095300D01*
X0089216Y0095681D01*
X0089919Y0096384D01*
X0090300Y0097303D01*
X0090300Y0098297D01*
X0089919Y0099216D01*
X0089216Y0099919D01*
X0088297Y0100300D01*
X0087303Y0100300D01*
X0086384Y0099919D01*
X0086264Y0099800D01*
X0052334Y0099800D01*
X0052130Y0100292D01*
X0051623Y0100800D01*
X0088764Y0100800D01*
X0088884Y0100681D01*
X0089803Y0100300D01*
X0090797Y0100300D01*
X0091716Y0100681D01*
X0092419Y0101384D01*
X0092800Y0102303D01*
X0092800Y0103297D01*
X0092419Y0104216D01*
X0091716Y0104919D01*
X0090797Y0105300D01*
X0089803Y0105300D01*
X0088884Y0104919D01*
X0088764Y0104800D01*
X0051623Y0104800D01*
X0052130Y0105308D01*
X0052334Y0105800D01*
X0091264Y0105800D01*
X0091384Y0105681D01*
X0092303Y0105300D01*
X0093297Y0105300D01*
X0094216Y0105681D01*
X0094919Y0106384D01*
X0095300Y0107303D01*
X0095300Y0108297D01*
X0094988Y0109050D01*
X0095797Y0109050D01*
X0095800Y0109051D01*
X0095800Y0104336D01*
X0095681Y0104216D01*
X0095300Y0103297D01*
X0095300Y0102303D01*
X0095681Y0101384D01*
X0096384Y0100681D01*
X0097303Y0100300D01*
X0098297Y0100300D01*
X0098300Y0100301D01*
X0098300Y0099336D01*
X0098181Y0099216D01*
X0097800Y0098297D01*
X0097800Y0097303D01*
X0098181Y0096384D01*
X0098884Y0095681D01*
X0099803Y0095300D01*
X0100797Y0095300D01*
X0101716Y0095681D01*
X0102419Y0096384D01*
X0102800Y0097303D01*
X0102800Y0098297D01*
X0102419Y0099216D01*
X0102300Y0099336D01*
X0102300Y0121128D01*
X0101128Y0122300D01*
X0094800Y0128628D01*
X0093628Y0129800D01*
X0052334Y0129800D01*
X0052130Y0130292D01*
X0050892Y0131530D01*
X0052214Y0130090D02*
X0102682Y0130090D01*
X0103300Y0128491D02*
X0094937Y0128491D01*
X0096536Y0126893D02*
X0103300Y0126893D01*
X0103300Y0125294D02*
X0098134Y0125294D01*
X0099733Y0123696D02*
X0103300Y0123696D01*
X0103300Y0122097D02*
X0101331Y0122097D01*
X0102300Y0120499D02*
X0103300Y0120499D01*
X0103300Y0118900D02*
X0102300Y0118900D01*
X0102300Y0117302D02*
X0103300Y0117302D01*
X0103300Y0115703D02*
X0102300Y0115703D01*
X0102300Y0114105D02*
X0103300Y0114105D01*
X0103300Y0112506D02*
X0102300Y0112506D01*
X0102300Y0110908D02*
X0103300Y0110908D01*
X0103300Y0109309D02*
X0102300Y0109309D01*
X0102300Y0107711D02*
X0103300Y0107711D01*
X0103300Y0106112D02*
X0102300Y0106112D01*
X0102300Y0104514D02*
X0103300Y0104514D01*
X0103300Y0102915D02*
X0102300Y0102915D01*
X0102300Y0101317D02*
X0103300Y0101317D01*
X0103300Y0099718D02*
X0102300Y0099718D01*
X0102800Y0098120D02*
X0103300Y0098120D01*
X0103300Y0096521D02*
X0102476Y0096521D01*
X0103300Y0094923D02*
X0051745Y0094923D01*
X0050421Y0091726D02*
X0103300Y0091726D01*
X0103300Y0093324D02*
X0014100Y0093324D01*
X0014100Y0091726D02*
X0017179Y0091726D01*
X0016708Y0091530D02*
X0018325Y0092200D01*
X0029675Y0092200D01*
X0031292Y0091530D01*
X0032530Y0090292D01*
X0033200Y0088675D01*
X0033200Y0086925D01*
X0032530Y0085308D01*
X0031292Y0084070D01*
X0029675Y0083400D01*
X0018325Y0083400D01*
X0016708Y0084070D01*
X0015470Y0085308D01*
X0014800Y0086925D01*
X0014800Y0088675D01*
X0015470Y0090292D01*
X0016708Y0091530D01*
X0015401Y0090127D02*
X0014100Y0090127D01*
X0014100Y0088529D02*
X0014800Y0088529D01*
X0014800Y0086930D02*
X0014100Y0086930D01*
X0014100Y0085332D02*
X0015460Y0085332D01*
X0014100Y0083733D02*
X0017521Y0083733D01*
X0018167Y0082134D02*
X0014100Y0082134D01*
X0014100Y0080536D02*
X0015713Y0080536D01*
X0014909Y0078937D02*
X0014100Y0078937D01*
X0014100Y0077339D02*
X0014800Y0077339D01*
X0015291Y0075740D02*
X0014100Y0075740D01*
X0014100Y0074142D02*
X0016636Y0074142D01*
X0014100Y0072543D02*
X0030715Y0072543D01*
X0031364Y0074142D02*
X0032314Y0074142D01*
X0032709Y0075740D02*
X0034891Y0075740D01*
X0034400Y0077339D02*
X0033200Y0077339D01*
X0033091Y0078937D02*
X0034509Y0078937D01*
X0034364Y0080536D02*
X0035313Y0080536D01*
X0031905Y0083733D02*
X0030479Y0083733D01*
X0030306Y0082134D02*
X0029833Y0082134D01*
X0032540Y0085332D02*
X0035060Y0085332D01*
X0034400Y0086930D02*
X0033200Y0086930D01*
X0033200Y0088529D02*
X0034400Y0088529D01*
X0035001Y0090127D02*
X0032599Y0090127D01*
X0030821Y0091726D02*
X0036779Y0091726D01*
X0035455Y0094923D02*
X0032145Y0094923D01*
X0033033Y0096521D02*
X0034567Y0096521D01*
X0034400Y0098120D02*
X0033200Y0098120D01*
X0033547Y0099718D02*
X0034832Y0099718D01*
X0031087Y0102915D02*
X0014100Y0102915D01*
X0014100Y0101317D02*
X0016494Y0101317D01*
X0015232Y0099718D02*
X0014100Y0099718D01*
X0014100Y0098120D02*
X0014800Y0098120D01*
X0014967Y0096521D02*
X0014100Y0096521D01*
X0014100Y0094923D02*
X0015855Y0094923D01*
X0016264Y0104514D02*
X0014100Y0104514D01*
X0014100Y0106112D02*
X0015137Y0106112D01*
X0014800Y0107711D02*
X0014100Y0107711D01*
X0014100Y0109309D02*
X0015063Y0109309D01*
X0014100Y0110908D02*
X0016085Y0110908D01*
X0014100Y0112506D02*
X0030678Y0112506D01*
X0031327Y0114105D02*
X0032276Y0114105D01*
X0032694Y0115703D02*
X0034906Y0115703D01*
X0034400Y0117302D02*
X0033200Y0117302D01*
X0033107Y0118900D02*
X0034493Y0118900D01*
X0034327Y0120499D02*
X0035276Y0120499D01*
X0031867Y0123696D02*
X0031317Y0123696D01*
X0031316Y0123695D02*
X0031927Y0124139D01*
X0032461Y0124673D01*
X0032905Y0125284D01*
X0033248Y0125957D01*
X0033482Y0126676D01*
X0033600Y0127422D01*
X0033600Y0127600D01*
X0029000Y0127600D01*
X0029000Y0128000D01*
X0028600Y0128000D01*
X0028600Y0132600D01*
X0018822Y0132600D01*
X0018076Y0132482D01*
X0017357Y0132248D01*
X0016684Y0131905D01*
X0016073Y0131461D01*
X0015539Y0130927D01*
X0015095Y0130316D01*
X0014752Y0129643D01*
X0014518Y0128924D01*
X0014400Y0128178D01*
X0014400Y0128000D01*
X0028600Y0128000D01*
X0028600Y0127600D01*
X0029000Y0127600D01*
X0029000Y0123000D01*
X0029178Y0123000D01*
X0029924Y0123118D01*
X0030643Y0123352D01*
X0031316Y0123695D01*
X0030269Y0122097D02*
X0029923Y0122097D01*
X0028600Y0123000D02*
X0028600Y0127600D01*
X0014400Y0127600D01*
X0014400Y0127422D01*
X0014518Y0126676D01*
X0014752Y0125957D01*
X0015095Y0125284D01*
X0015539Y0124673D01*
X0016073Y0124139D01*
X0016684Y0123695D01*
X0017357Y0123352D01*
X0018076Y0123118D01*
X0018822Y0123000D01*
X0028600Y0123000D01*
X0028600Y0123696D02*
X0029000Y0123696D01*
X0029000Y0125294D02*
X0028600Y0125294D01*
X0028600Y0126893D02*
X0029000Y0126893D01*
X0029000Y0128000D02*
X0033600Y0128000D01*
X0033600Y0128178D01*
X0033482Y0128924D01*
X0033248Y0129643D01*
X0032905Y0130316D01*
X0032461Y0130927D01*
X0031927Y0131461D01*
X0031316Y0131905D01*
X0030643Y0132248D01*
X0029924Y0132482D01*
X0029178Y0132600D01*
X0029000Y0132600D01*
X0029000Y0128000D01*
X0029000Y0128491D02*
X0028600Y0128491D01*
X0028600Y0130090D02*
X0029000Y0130090D01*
X0029000Y0131688D02*
X0028600Y0131688D01*
X0031614Y0131688D02*
X0036690Y0131688D01*
X0034986Y0130090D02*
X0033020Y0130090D01*
X0033550Y0128491D02*
X0034400Y0128491D01*
X0034413Y0126893D02*
X0033516Y0126893D01*
X0032910Y0125294D02*
X0035083Y0125294D01*
X0035492Y0134885D02*
X0032108Y0134885D01*
X0033017Y0136484D02*
X0034583Y0136484D01*
X0034400Y0138082D02*
X0033200Y0138082D01*
X0033509Y0139681D02*
X0034817Y0139681D01*
X0016683Y0123696D02*
X0014100Y0123696D01*
X0014100Y0125294D02*
X0015090Y0125294D01*
X0014484Y0126893D02*
X0014100Y0126893D01*
X0014100Y0128491D02*
X0014450Y0128491D01*
X0014100Y0130090D02*
X0014980Y0130090D01*
X0014100Y0131688D02*
X0016386Y0131688D01*
X0018077Y0122097D02*
X0014100Y0122097D01*
X0014100Y0120499D02*
X0015676Y0120499D01*
X0014893Y0118900D02*
X0014100Y0118900D01*
X0014100Y0117302D02*
X0014800Y0117302D01*
X0015306Y0115703D02*
X0014100Y0115703D01*
X0014100Y0114105D02*
X0016673Y0114105D01*
X0031736Y0104514D02*
X0032685Y0104514D01*
X0032863Y0106112D02*
X0034737Y0106112D01*
X0034400Y0107711D02*
X0033200Y0107711D01*
X0033138Y0109309D02*
X0034663Y0109309D01*
X0052199Y0090127D02*
X0084385Y0090127D01*
X0086215Y0090127D02*
X0103300Y0090127D01*
X0102896Y0088529D02*
X0087704Y0088529D01*
X0087646Y0086930D02*
X0102954Y0086930D01*
X0104727Y0085332D02*
X0085873Y0085332D01*
X0084727Y0085332D02*
X0052140Y0085332D01*
X0051887Y0080536D02*
X0081733Y0080536D01*
X0082535Y0078937D02*
X0108300Y0078937D01*
X0108300Y0077339D02*
X0082800Y0077339D01*
X0081776Y0075740D02*
X0108300Y0075740D01*
X0108150Y0074142D02*
X0079950Y0074142D01*
X0080300Y0072543D02*
X0107800Y0072543D01*
X0108620Y0070945D02*
X0079480Y0070945D01*
X0078824Y0075740D02*
X0052309Y0075740D01*
X0052522Y0069346D02*
X0110800Y0069346D01*
X0110300Y0067748D02*
X0052800Y0067748D01*
X0052479Y0066149D02*
X0110915Y0066149D01*
X0113300Y0064551D02*
X0077085Y0064551D01*
X0077800Y0062952D02*
X0112800Y0062952D01*
X0113211Y0061354D02*
X0077389Y0061354D01*
X0075300Y0058157D02*
X0115300Y0058157D01*
X0115608Y0056558D02*
X0074992Y0056558D01*
X0074380Y0059755D02*
X0115800Y0059755D01*
X0118300Y0054960D02*
X0071619Y0054960D01*
X0072773Y0053361D02*
X0117827Y0053361D01*
X0118024Y0051763D02*
X0072576Y0051763D01*
X0071625Y0050164D02*
X0120800Y0050164D01*
X0120411Y0048566D02*
X0073189Y0048566D01*
X0073161Y0046967D02*
X0120439Y0046967D01*
X0122137Y0045369D02*
X0071463Y0045369D01*
X0070137Y0045369D02*
X0052155Y0045369D01*
X0052183Y0050164D02*
X0069975Y0050164D01*
X0068981Y0054960D02*
X0051782Y0054960D01*
X0051849Y0040573D02*
X0066643Y0040573D01*
X0067519Y0038975D02*
X0123300Y0038975D01*
X0123300Y0040573D02*
X0068957Y0040573D01*
X0070246Y0042172D02*
X0123300Y0042172D01*
X0123300Y0043770D02*
X0070104Y0043770D01*
X0067800Y0037376D02*
X0123300Y0037376D01*
X0123300Y0035778D02*
X0066813Y0035778D01*
X0063787Y0035778D02*
X0052325Y0035778D01*
X0059752Y0029384D02*
X0125800Y0029384D01*
X0123582Y0030982D02*
X0063268Y0030982D01*
X0064050Y0032581D02*
X0122800Y0032581D01*
X0123165Y0034179D02*
X0063685Y0034179D01*
X0060300Y0027785D02*
X0082563Y0027785D01*
X0081612Y0026187D02*
X0059722Y0026187D01*
X0035789Y0024588D02*
X0031811Y0024588D01*
X0032894Y0026187D02*
X0034706Y0026187D01*
X0034400Y0027785D02*
X0033200Y0027785D01*
X0033212Y0029384D02*
X0034693Y0029384D01*
X0030752Y0032581D02*
X0014100Y0032581D01*
X0014100Y0034179D02*
X0016598Y0034179D01*
X0015275Y0035778D02*
X0014100Y0035778D01*
X0014100Y0037376D02*
X0014800Y0037376D01*
X0014924Y0038975D02*
X0014100Y0038975D01*
X0014100Y0040573D02*
X0015751Y0040573D01*
X0014100Y0042172D02*
X0018257Y0042172D01*
X0017431Y0043770D02*
X0014100Y0043770D01*
X0014100Y0045369D02*
X0015445Y0045369D01*
X0014800Y0046967D02*
X0014100Y0046967D01*
X0014100Y0048566D02*
X0014800Y0048566D01*
X0015417Y0050164D02*
X0014100Y0050164D01*
X0014100Y0051763D02*
X0017269Y0051763D01*
X0015818Y0054960D02*
X0014100Y0054960D01*
X0014100Y0056558D02*
X0014952Y0056558D01*
X0014800Y0058157D02*
X0014100Y0058157D01*
X0014100Y0059755D02*
X0015247Y0059755D01*
X0014100Y0061354D02*
X0016531Y0061354D01*
X0016227Y0064551D02*
X0014100Y0064551D01*
X0014100Y0066149D02*
X0015121Y0066149D01*
X0014800Y0067748D02*
X0014100Y0067748D01*
X0014100Y0069346D02*
X0015078Y0069346D01*
X0014100Y0070945D02*
X0016122Y0070945D01*
X0014100Y0062952D02*
X0031124Y0062952D01*
X0031773Y0064551D02*
X0032722Y0064551D01*
X0032879Y0066149D02*
X0034721Y0066149D01*
X0034400Y0067748D02*
X0033200Y0067748D01*
X0033175Y0069346D02*
X0034678Y0069346D01*
X0034847Y0059755D02*
X0033584Y0059755D01*
X0033200Y0058157D02*
X0034400Y0058157D01*
X0034552Y0056558D02*
X0033048Y0056558D01*
X0032182Y0054960D02*
X0035418Y0054960D01*
X0031533Y0053361D02*
X0014100Y0053361D01*
X0030569Y0043770D02*
X0031942Y0043770D01*
X0032555Y0045369D02*
X0035045Y0045369D01*
X0034400Y0046967D02*
X0033200Y0046967D01*
X0033200Y0048566D02*
X0034400Y0048566D01*
X0033993Y0050164D02*
X0035017Y0050164D01*
X0030343Y0042172D02*
X0029743Y0042172D01*
X0033076Y0038975D02*
X0034524Y0038975D01*
X0034402Y0040573D02*
X0035351Y0040573D01*
X0034400Y0037376D02*
X0033200Y0037376D01*
X0032725Y0035778D02*
X0034875Y0035778D01*
X0032351Y0034179D02*
X0031402Y0034179D01*
X0031431Y0021391D02*
X0036169Y0021391D01*
X0034863Y0019793D02*
X0032737Y0019793D01*
X0033200Y0018194D02*
X0034400Y0018194D01*
X0034536Y0016596D02*
X0033064Y0016596D01*
X0032220Y0014997D02*
X0035380Y0014997D01*
X0015106Y0026187D02*
X0014100Y0026187D01*
X0014100Y0027785D02*
X0014800Y0027785D01*
X0015093Y0029384D02*
X0014100Y0029384D01*
X0014100Y0030982D02*
X0016160Y0030982D01*
X0083867Y0080536D02*
X0106733Y0080536D01*
X0105370Y0082134D02*
X0085230Y0082134D01*
X0085120Y0083733D02*
X0105480Y0083733D01*
X0098124Y0096521D02*
X0089976Y0096521D01*
X0090300Y0098120D02*
X0097800Y0098120D01*
X0098300Y0099718D02*
X0089417Y0099718D01*
X0092352Y0101317D02*
X0095748Y0101317D01*
X0095300Y0102915D02*
X0092800Y0102915D01*
X0092122Y0104514D02*
X0095800Y0104514D01*
X0095800Y0106112D02*
X0094648Y0106112D01*
X0095300Y0107711D02*
X0095800Y0107711D01*
X0097886Y0134885D02*
X0051708Y0134885D01*
X0132300Y0146075D02*
X0132900Y0146075D01*
X0132900Y0147673D02*
X0132300Y0147673D01*
X0132300Y0149272D02*
X0132900Y0149272D01*
X0132300Y0150870D02*
X0133941Y0150870D01*
X0135539Y0152469D02*
X0132300Y0152469D01*
X0132300Y0154068D02*
X0134603Y0154068D01*
X0133004Y0155666D02*
X0132300Y0155666D01*
X0132300Y0157265D02*
X0132900Y0157265D01*
X0132900Y0158863D02*
X0132300Y0158863D01*
X0132300Y0160462D02*
X0133532Y0160462D01*
X0132300Y0162060D02*
X0135130Y0162060D01*
X0135770Y0162900D02*
X0139830Y0162900D01*
X0142700Y0165770D01*
X0142700Y0169830D01*
X0139830Y0172700D01*
X0135770Y0172700D01*
X0132900Y0169830D01*
X0132900Y0165770D01*
X0135770Y0162900D01*
X0135012Y0163659D02*
X0132300Y0163659D01*
X0132300Y0165257D02*
X0133413Y0165257D01*
X0132900Y0166856D02*
X0132300Y0166856D01*
X0132300Y0168454D02*
X0132900Y0168454D01*
X0133123Y0170053D02*
X0132300Y0170053D01*
X0132300Y0171651D02*
X0134721Y0171651D01*
X0135421Y0173250D02*
X0132300Y0173250D01*
X0132300Y0174848D02*
X0133822Y0174848D01*
X0132900Y0176447D02*
X0132300Y0176447D01*
X0132300Y0178045D02*
X0132900Y0178045D01*
X0132900Y0179644D02*
X0132300Y0179644D01*
X0132300Y0181242D02*
X0134313Y0181242D01*
X0141287Y0181242D02*
X0144313Y0181242D01*
X0142900Y0179644D02*
X0142700Y0179644D01*
X0142700Y0178045D02*
X0142900Y0178045D01*
X0142900Y0176447D02*
X0142700Y0176447D01*
X0143580Y0174848D02*
X0143822Y0174848D01*
X0141120Y0171651D02*
X0140878Y0171651D01*
X0142477Y0170053D02*
X0143123Y0170053D01*
X0142900Y0168454D02*
X0142700Y0168454D01*
X0142700Y0166856D02*
X0142900Y0166856D01*
X0143413Y0165257D02*
X0142187Y0165257D01*
X0140830Y0163659D02*
X0140588Y0163659D01*
X0143290Y0160462D02*
X0143532Y0160462D01*
X0142900Y0158863D02*
X0142700Y0158863D01*
X0142700Y0157265D02*
X0142900Y0157265D01*
X0143004Y0155666D02*
X0142596Y0155666D01*
X0140997Y0154068D02*
X0144603Y0154068D01*
X0145539Y0152469D02*
X0140061Y0152469D01*
X0141659Y0150870D02*
X0143941Y0150870D01*
X0142900Y0149272D02*
X0142700Y0149272D01*
X0142700Y0147673D02*
X0142900Y0147673D01*
X0142900Y0146075D02*
X0142700Y0146075D01*
X0141406Y0144476D02*
X0144194Y0144476D01*
X0145770Y0142700D02*
X0142900Y0139830D01*
X0142900Y0135770D01*
X0145770Y0132900D01*
X0149830Y0132900D01*
X0152700Y0135770D01*
X0152700Y0139830D01*
X0149830Y0142700D01*
X0145770Y0142700D01*
X0144350Y0141279D02*
X0141250Y0141279D01*
X0142700Y0139681D02*
X0142900Y0139681D01*
X0142900Y0138082D02*
X0142700Y0138082D01*
X0142700Y0136484D02*
X0142900Y0136484D01*
X0143785Y0134885D02*
X0141815Y0134885D01*
X0140216Y0133287D02*
X0145383Y0133287D01*
X0145770Y0132700D02*
X0142900Y0129830D01*
X0142900Y0125770D01*
X0145770Y0122900D01*
X0149830Y0122900D01*
X0152700Y0125770D01*
X0152700Y0129830D01*
X0149830Y0132700D01*
X0145770Y0132700D01*
X0144759Y0131688D02*
X0140841Y0131688D01*
X0142440Y0130090D02*
X0143160Y0130090D01*
X0142900Y0128491D02*
X0142700Y0128491D01*
X0142700Y0126893D02*
X0142900Y0126893D01*
X0143376Y0125294D02*
X0142224Y0125294D01*
X0140625Y0123696D02*
X0144975Y0123696D01*
X0145770Y0122700D02*
X0142900Y0119830D01*
X0142900Y0115770D01*
X0145770Y0112900D01*
X0149830Y0112900D01*
X0152700Y0115770D01*
X0152700Y0119830D01*
X0149830Y0122700D01*
X0145770Y0122700D01*
X0145168Y0122097D02*
X0140432Y0122097D01*
X0142031Y0120499D02*
X0143569Y0120499D01*
X0142900Y0118900D02*
X0142700Y0118900D01*
X0142700Y0117302D02*
X0142900Y0117302D01*
X0142967Y0115703D02*
X0142633Y0115703D01*
X0141034Y0114105D02*
X0144566Y0114105D01*
X0145577Y0112506D02*
X0140023Y0112506D01*
X0141622Y0110908D02*
X0143978Y0110908D01*
X0142900Y0109309D02*
X0142700Y0109309D01*
X0142700Y0107711D02*
X0142900Y0107711D01*
X0142900Y0106112D02*
X0142700Y0106112D01*
X0141443Y0104514D02*
X0144157Y0104514D01*
X0145420Y0102915D02*
X0139845Y0102915D01*
X0141213Y0101317D02*
X0143821Y0101317D01*
X0143182Y0094923D02*
X0141852Y0094923D01*
X0140254Y0093324D02*
X0144781Y0093324D01*
X0144796Y0091726D02*
X0140804Y0091726D01*
X0142403Y0090127D02*
X0143197Y0090127D01*
X0142900Y0088529D02*
X0142700Y0088529D01*
X0142700Y0086930D02*
X0142900Y0086930D01*
X0143339Y0085332D02*
X0142261Y0085332D01*
X0140663Y0083733D02*
X0144937Y0083733D01*
X0145770Y0082700D02*
X0142900Y0079830D01*
X0142900Y0075770D01*
X0145770Y0072900D01*
X0149830Y0072900D01*
X0152700Y0075770D01*
X0152700Y0079830D01*
X0149830Y0082700D01*
X0145770Y0082700D01*
X0145205Y0082134D02*
X0140395Y0082134D01*
X0141994Y0080536D02*
X0143606Y0080536D01*
X0142900Y0078937D02*
X0142700Y0078937D01*
X0142700Y0077339D02*
X0142900Y0077339D01*
X0142930Y0075740D02*
X0142670Y0075740D01*
X0141072Y0074142D02*
X0144528Y0074142D01*
X0145770Y0072700D02*
X0142900Y0069830D01*
X0142900Y0065770D01*
X0145770Y0062900D01*
X0149830Y0062900D01*
X0152700Y0065770D01*
X0152700Y0069830D01*
X0149830Y0072700D01*
X0145770Y0072700D01*
X0145614Y0072543D02*
X0139986Y0072543D01*
X0141585Y0070945D02*
X0144015Y0070945D01*
X0142900Y0069346D02*
X0142700Y0069346D01*
X0142700Y0067748D02*
X0142900Y0067748D01*
X0142900Y0066149D02*
X0142700Y0066149D01*
X0141481Y0064551D02*
X0144119Y0064551D01*
X0145718Y0062952D02*
X0139882Y0062952D01*
X0141176Y0061354D02*
X0144424Y0061354D01*
X0145770Y0062700D02*
X0142900Y0059830D01*
X0142900Y0055770D01*
X0145770Y0052900D01*
X0149830Y0052900D01*
X0152700Y0055770D01*
X0152700Y0059830D01*
X0149830Y0062700D01*
X0145770Y0062700D01*
X0142900Y0059755D02*
X0142700Y0059755D01*
X0142700Y0058157D02*
X0142900Y0058157D01*
X0142900Y0056558D02*
X0142700Y0056558D01*
X0141889Y0054960D02*
X0143711Y0054960D01*
X0145309Y0053361D02*
X0140291Y0053361D01*
X0140767Y0051763D02*
X0144833Y0051763D01*
X0145770Y0052700D02*
X0142900Y0049830D01*
X0142900Y0045770D01*
X0145770Y0042900D01*
X0149830Y0042900D01*
X0152700Y0045770D01*
X0152700Y0049830D01*
X0149830Y0052700D01*
X0145770Y0052700D01*
X0143235Y0050164D02*
X0142365Y0050164D01*
X0142700Y0048566D02*
X0142900Y0048566D01*
X0142900Y0046967D02*
X0142700Y0046967D01*
X0142298Y0045369D02*
X0143302Y0045369D01*
X0144900Y0043770D02*
X0140700Y0043770D01*
X0140358Y0042172D02*
X0145242Y0042172D01*
X0145770Y0042700D02*
X0142900Y0039830D01*
X0142900Y0035770D01*
X0145770Y0032900D01*
X0149830Y0032900D01*
X0152700Y0035770D01*
X0152700Y0039830D01*
X0149830Y0042700D01*
X0145770Y0042700D01*
X0143644Y0040573D02*
X0141956Y0040573D01*
X0142700Y0038975D02*
X0142900Y0038975D01*
X0142900Y0037376D02*
X0142700Y0037376D01*
X0142700Y0035778D02*
X0142900Y0035778D01*
X0144491Y0034179D02*
X0141109Y0034179D01*
X0139949Y0032581D02*
X0145651Y0032581D01*
X0144052Y0030982D02*
X0141547Y0030982D01*
X0142700Y0029384D02*
X0142900Y0029384D01*
X0142900Y0027785D02*
X0142700Y0027785D01*
X0142700Y0026187D02*
X0142900Y0026187D01*
X0144082Y0024588D02*
X0141518Y0024588D01*
X0139919Y0022990D02*
X0145494Y0022990D01*
X0143896Y0021391D02*
X0141139Y0021391D01*
X0137800Y0017800D02*
X0099800Y0017800D01*
X0095800Y0021800D01*
X0098117Y0014997D02*
X0133673Y0014997D01*
X0150106Y0022990D02*
X0171500Y0022990D01*
X0171500Y0024588D02*
X0151518Y0024588D01*
X0152700Y0026187D02*
X0171500Y0026187D01*
X0171500Y0027785D02*
X0152700Y0027785D01*
X0152700Y0029384D02*
X0171500Y0029384D01*
X0171500Y0030982D02*
X0151547Y0030982D01*
X0149949Y0032581D02*
X0171500Y0032581D01*
X0171500Y0034179D02*
X0151109Y0034179D01*
X0152700Y0035778D02*
X0171500Y0035778D01*
X0171500Y0037376D02*
X0152700Y0037376D01*
X0152700Y0038975D02*
X0171500Y0038975D01*
X0171500Y0040573D02*
X0151956Y0040573D01*
X0150358Y0042172D02*
X0171500Y0042172D01*
X0171500Y0043770D02*
X0150700Y0043770D01*
X0152298Y0045369D02*
X0171500Y0045369D01*
X0171500Y0046967D02*
X0152700Y0046967D01*
X0152700Y0048566D02*
X0171500Y0048566D01*
X0171500Y0050164D02*
X0152365Y0050164D01*
X0150767Y0051763D02*
X0171500Y0051763D01*
X0171500Y0053361D02*
X0150291Y0053361D01*
X0151889Y0054960D02*
X0171500Y0054960D01*
X0171500Y0056558D02*
X0152700Y0056558D01*
X0152700Y0058157D02*
X0171500Y0058157D01*
X0171500Y0059755D02*
X0152700Y0059755D01*
X0151176Y0061354D02*
X0171500Y0061354D01*
X0171500Y0062952D02*
X0149882Y0062952D01*
X0151481Y0064551D02*
X0171500Y0064551D01*
X0171500Y0066149D02*
X0152700Y0066149D01*
X0152700Y0067748D02*
X0171500Y0067748D01*
X0171500Y0069346D02*
X0152700Y0069346D01*
X0151585Y0070945D02*
X0171500Y0070945D01*
X0171500Y0072543D02*
X0149986Y0072543D01*
X0151072Y0074142D02*
X0171500Y0074142D01*
X0171500Y0075740D02*
X0152670Y0075740D01*
X0152700Y0077339D02*
X0171500Y0077339D01*
X0171500Y0078937D02*
X0152700Y0078937D01*
X0151994Y0080536D02*
X0171500Y0080536D01*
X0171500Y0082134D02*
X0150395Y0082134D01*
X0150663Y0083733D02*
X0171500Y0083733D01*
X0171500Y0085332D02*
X0152261Y0085332D01*
X0152700Y0086930D02*
X0171500Y0086930D01*
X0171500Y0088529D02*
X0152700Y0088529D01*
X0152403Y0090127D02*
X0171500Y0090127D01*
X0171500Y0091726D02*
X0150804Y0091726D01*
X0150819Y0093324D02*
X0171500Y0093324D01*
X0171500Y0094923D02*
X0152418Y0094923D01*
X0153100Y0096521D02*
X0171500Y0096521D01*
X0171500Y0098120D02*
X0153100Y0098120D01*
X0153100Y0099718D02*
X0171500Y0099718D01*
X0171500Y0101317D02*
X0151779Y0101317D01*
X0150180Y0102915D02*
X0171500Y0102915D01*
X0171500Y0104514D02*
X0151443Y0104514D01*
X0152700Y0106112D02*
X0171500Y0106112D01*
X0171500Y0107711D02*
X0152700Y0107711D01*
X0152700Y0109309D02*
X0171500Y0109309D01*
X0171500Y0110908D02*
X0151622Y0110908D01*
X0150023Y0112506D02*
X0171500Y0112506D01*
X0171500Y0114105D02*
X0151034Y0114105D01*
X0152633Y0115703D02*
X0171500Y0115703D01*
X0171500Y0117302D02*
X0152700Y0117302D01*
X0152700Y0118900D02*
X0171500Y0118900D01*
X0171500Y0120499D02*
X0152031Y0120499D01*
X0150432Y0122097D02*
X0171500Y0122097D01*
X0171500Y0123696D02*
X0150625Y0123696D01*
X0152224Y0125294D02*
X0171500Y0125294D01*
X0171500Y0126893D02*
X0152700Y0126893D01*
X0152700Y0128491D02*
X0171500Y0128491D01*
X0171500Y0130090D02*
X0152440Y0130090D01*
X0150841Y0131688D02*
X0171500Y0131688D01*
X0171500Y0133287D02*
X0150216Y0133287D01*
X0151815Y0134885D02*
X0171500Y0134885D01*
X0171500Y0136484D02*
X0152700Y0136484D01*
X0152700Y0138082D02*
X0171500Y0138082D01*
X0171500Y0139681D02*
X0152700Y0139681D01*
X0151250Y0141279D02*
X0171500Y0141279D01*
X0152199Y0165257D02*
X0152187Y0165257D01*
X0149830Y0182900D02*
X0145770Y0182900D01*
X0142900Y0185770D01*
X0142900Y0189830D01*
X0145770Y0192700D01*
X0149830Y0192700D01*
X0152700Y0189830D01*
X0152700Y0185770D01*
X0149830Y0182900D01*
X0151369Y0184439D02*
X0171500Y0184439D01*
X0171500Y0186038D02*
X0152700Y0186038D01*
X0152700Y0187636D02*
X0171500Y0187636D01*
X0171500Y0189235D02*
X0152700Y0189235D01*
X0151696Y0190833D02*
X0171500Y0190833D01*
X0171500Y0192432D02*
X0150098Y0192432D01*
X0149830Y0192900D02*
X0152700Y0195770D01*
X0152700Y0199830D01*
X0149830Y0202700D01*
X0145770Y0202700D01*
X0142900Y0199830D01*
X0142900Y0195770D01*
X0145770Y0192900D01*
X0149830Y0192900D01*
X0150960Y0194030D02*
X0171500Y0194030D01*
X0171500Y0195629D02*
X0152558Y0195629D01*
X0152700Y0197227D02*
X0171500Y0197227D01*
X0171500Y0198826D02*
X0152700Y0198826D01*
X0152105Y0200424D02*
X0171500Y0200424D01*
X0171500Y0202023D02*
X0150507Y0202023D01*
X0150551Y0203621D02*
X0171500Y0203621D01*
X0171500Y0205220D02*
X0152150Y0205220D01*
X0152700Y0206818D02*
X0171500Y0206818D01*
X0171500Y0208417D02*
X0152700Y0208417D01*
X0152514Y0210015D02*
X0171500Y0210015D01*
X0145049Y0203621D02*
X0140551Y0203621D01*
X0140507Y0202023D02*
X0145093Y0202023D01*
X0143495Y0200424D02*
X0142105Y0200424D01*
X0142700Y0198826D02*
X0142900Y0198826D01*
X0142900Y0197227D02*
X0142700Y0197227D01*
X0142558Y0195629D02*
X0143042Y0195629D01*
X0144640Y0194030D02*
X0140960Y0194030D01*
X0140098Y0192432D02*
X0145502Y0192432D01*
X0143904Y0190833D02*
X0141696Y0190833D01*
X0142700Y0189235D02*
X0142900Y0189235D01*
X0142900Y0187636D02*
X0142700Y0187636D01*
X0142700Y0186038D02*
X0142900Y0186038D01*
X0144231Y0184439D02*
X0141369Y0184439D01*
X0142150Y0205220D02*
X0143450Y0205220D01*
X0142900Y0206818D02*
X0142700Y0206818D01*
X0142700Y0208417D02*
X0142900Y0208417D01*
X0143086Y0210015D02*
X0142514Y0210015D01*
X0151704Y0021391D02*
X0171500Y0021391D01*
X0171500Y0019793D02*
X0153100Y0019793D01*
X0153100Y0018194D02*
X0171500Y0018194D01*
X0171500Y0016596D02*
X0153100Y0016596D01*
X0152492Y0014997D02*
X0171500Y0014997D01*
D13*
X0127800Y0022800D03*
X0125300Y0032800D03*
X0122800Y0047800D03*
X0120300Y0052800D03*
X0117800Y0057800D03*
X0115300Y0062800D03*
X0112800Y0067800D03*
X0110300Y0072800D03*
X0107800Y0082800D03*
X0105300Y0087800D03*
X0102800Y0092800D03*
X0100300Y0097800D03*
X0097800Y0102800D03*
X0092800Y0107800D03*
X0095300Y0111550D03*
X0090300Y0102800D03*
X0087800Y0097800D03*
X0085300Y0087800D03*
X0082800Y0082800D03*
X0080300Y0077800D03*
X0077800Y0072800D03*
X0075300Y0062800D03*
X0072800Y0057800D03*
X0070300Y0052800D03*
X0070800Y0047800D03*
X0067800Y0042800D03*
X0065300Y0037800D03*
X0061550Y0032800D03*
X0057800Y0027800D03*
X0054050Y0017800D03*
X0152800Y0162800D03*
X0152800Y0172800D03*
D14*
X0142800Y0172800D01*
X0137800Y0177800D01*
X0127800Y0182800D02*
X0127800Y0022800D01*
X0130300Y0020300D02*
X0132800Y0017800D01*
X0137800Y0017800D01*
X0137800Y0027800D01*
X0130300Y0020300D02*
X0130300Y0200300D01*
X0122800Y0207800D01*
X0038800Y0207800D01*
X0043300Y0203600D02*
X0043300Y0202000D01*
X0049235Y0202000D01*
X0050779Y0201361D01*
X0051961Y0200179D01*
X0052600Y0198635D01*
X0052600Y0196965D01*
X0051961Y0195421D01*
X0051340Y0194800D01*
X0117800Y0194800D01*
X0118000Y0194600D01*
X0118546Y0194600D01*
X0119600Y0193546D01*
X0128346Y0184800D01*
X0128500Y0184800D01*
X0128500Y0199100D01*
X0121600Y0206000D01*
X0052200Y0206000D01*
X0051961Y0205421D01*
X0050779Y0204239D01*
X0049235Y0203600D01*
X0043300Y0203600D01*
X0043300Y0203562D02*
X0124038Y0203562D01*
X0122840Y0204760D02*
X0051300Y0204760D01*
X0052183Y0205959D02*
X0121641Y0205959D01*
X0125237Y0202363D02*
X0043300Y0202363D01*
X0050975Y0201165D02*
X0126435Y0201165D01*
X0127634Y0199966D02*
X0052049Y0199966D01*
X0052545Y0198768D02*
X0128500Y0198768D01*
X0128500Y0197569D02*
X0052600Y0197569D01*
X0052354Y0196371D02*
X0128500Y0196371D01*
X0128500Y0195172D02*
X0051712Y0195172D01*
X0051140Y0191000D02*
X0117054Y0191000D01*
X0126000Y0182054D01*
X0126000Y0177146D01*
X0119600Y0183546D01*
X0118546Y0184600D01*
X0118000Y0184600D01*
X0117800Y0184800D01*
X0051340Y0184800D01*
X0051961Y0185421D01*
X0052600Y0186965D01*
X0052600Y0188635D01*
X0051961Y0190179D01*
X0051140Y0191000D01*
X0051761Y0190378D02*
X0117676Y0190378D01*
X0118875Y0189180D02*
X0052375Y0189180D01*
X0052600Y0187981D02*
X0120073Y0187981D01*
X0121272Y0186783D02*
X0052525Y0186783D01*
X0052028Y0185584D02*
X0122470Y0185584D01*
X0123669Y0184386D02*
X0118760Y0184386D01*
X0119958Y0183187D02*
X0124867Y0183187D01*
X0126000Y0181989D02*
X0121157Y0181989D01*
X0122355Y0180790D02*
X0126000Y0180790D01*
X0126000Y0179592D02*
X0123554Y0179592D01*
X0124752Y0178393D02*
X0126000Y0178393D01*
X0126000Y0177195D02*
X0125951Y0177195D01*
X0125300Y0175300D02*
X0125300Y0032800D01*
X0122800Y0047800D02*
X0122800Y0167800D01*
X0112800Y0177800D01*
X0038800Y0177800D01*
X0033800Y0172800D02*
X0028800Y0177800D01*
X0033800Y0172800D02*
X0112800Y0172800D01*
X0120300Y0165300D01*
X0120300Y0052800D01*
X0117800Y0057800D02*
X0117800Y0162800D01*
X0112800Y0167800D01*
X0038800Y0167800D01*
X0033800Y0162800D02*
X0028800Y0157800D01*
X0033800Y0152800D02*
X0028800Y0147800D01*
X0033800Y0142800D02*
X0028800Y0137800D01*
X0033800Y0132800D02*
X0028800Y0127800D01*
X0033800Y0122800D02*
X0028800Y0117800D01*
X0033800Y0112800D02*
X0028800Y0107800D01*
X0033800Y0102800D02*
X0028800Y0097800D01*
X0033800Y0102800D02*
X0090300Y0102800D01*
X0087800Y0097800D02*
X0038800Y0097800D01*
X0038800Y0087800D02*
X0085300Y0087800D01*
X0082800Y0082800D02*
X0033800Y0082800D01*
X0028800Y0077800D01*
X0033800Y0072800D02*
X0077800Y0072800D01*
X0080300Y0077800D02*
X0038800Y0077800D01*
X0033800Y0072800D02*
X0028800Y0067800D01*
X0033800Y0062800D02*
X0075300Y0062800D01*
X0072800Y0057800D02*
X0038800Y0057800D01*
X0033800Y0062800D02*
X0028800Y0057800D01*
X0033800Y0052800D02*
X0028800Y0047800D01*
X0033800Y0042800D02*
X0028800Y0037800D01*
X0033800Y0042800D02*
X0067800Y0042800D01*
X0070800Y0047800D02*
X0038800Y0047800D01*
X0033800Y0052800D02*
X0070300Y0052800D01*
X0065300Y0037800D02*
X0038800Y0037800D01*
X0033800Y0032800D02*
X0028800Y0027800D01*
X0033800Y0032800D02*
X0061550Y0032800D01*
X0057800Y0027800D02*
X0038800Y0027800D01*
X0038800Y0017800D02*
X0054050Y0017800D01*
X0107800Y0082800D02*
X0107800Y0132800D01*
X0097800Y0142800D01*
X0033800Y0142800D01*
X0038800Y0137800D02*
X0097800Y0137800D01*
X0105300Y0130300D01*
X0105300Y0087800D01*
X0102800Y0092800D02*
X0102800Y0122800D01*
X0092800Y0132800D01*
X0033800Y0132800D01*
X0038800Y0127800D02*
X0092800Y0127800D01*
X0100300Y0120300D01*
X0100300Y0097800D01*
X0097800Y0102800D02*
X0097800Y0117800D01*
X0092800Y0122800D01*
X0033800Y0122800D01*
X0033800Y0112800D02*
X0094050Y0112800D01*
X0095300Y0111550D01*
X0095546Y0113850D02*
X0094796Y0114600D01*
X0051800Y0114600D01*
X0051800Y0115260D01*
X0051961Y0115421D01*
X0052532Y0116800D01*
X0096000Y0116800D01*
X0096000Y0113850D01*
X0095546Y0113850D01*
X0094796Y0114600D01*
X0051800Y0114600D01*
X0051800Y0115260D01*
X0051961Y0115421D01*
X0052600Y0116965D01*
X0052600Y0118635D01*
X0051961Y0120179D01*
X0051800Y0120340D01*
X0051800Y0121000D01*
X0092054Y0121000D01*
X0096000Y0117054D01*
X0096000Y0113850D01*
X0095546Y0113850D01*
X0096000Y0114872D02*
X0051800Y0114872D01*
X0096000Y0114872D01*
X0096000Y0116070D02*
X0052230Y0116070D01*
X0096000Y0116070D01*
X0095785Y0117269D02*
X0052600Y0117269D01*
X0052600Y0118468D02*
X0094587Y0118468D01*
X0093388Y0119666D02*
X0052173Y0119666D01*
X0051800Y0120865D02*
X0092190Y0120865D01*
X0092054Y0124600D02*
X0051800Y0124600D01*
X0051800Y0125260D01*
X0051961Y0125421D01*
X0052200Y0126000D01*
X0092054Y0126000D01*
X0093454Y0124600D01*
X0092054Y0124600D01*
X0092396Y0125659D02*
X0052059Y0125659D01*
X0052200Y0129600D02*
X0051961Y0130179D01*
X0051800Y0130340D01*
X0051800Y0131000D01*
X0092054Y0131000D01*
X0093454Y0129600D01*
X0052200Y0129600D01*
X0051800Y0130453D02*
X0092602Y0130453D01*
X0095296Y0132850D02*
X0100205Y0132850D01*
X0099006Y0134048D02*
X0094097Y0134048D01*
X0094600Y0133546D02*
X0103500Y0124646D01*
X0103500Y0129554D01*
X0097054Y0136000D01*
X0052200Y0136000D01*
X0051961Y0135421D01*
X0051800Y0135260D01*
X0051800Y0134600D01*
X0093546Y0134600D01*
X0094600Y0133546D01*
X0096494Y0131651D02*
X0101403Y0131651D01*
X0102602Y0130453D02*
X0097693Y0130453D01*
X0098891Y0129254D02*
X0103500Y0129254D01*
X0103500Y0128056D02*
X0100090Y0128056D01*
X0101288Y0126857D02*
X0103500Y0126857D01*
X0103500Y0125659D02*
X0102487Y0125659D01*
X0097808Y0135247D02*
X0051800Y0135247D01*
X0052200Y0139600D02*
X0051961Y0140179D01*
X0051800Y0140340D01*
X0051800Y0141000D01*
X0097054Y0141000D01*
X0098454Y0139600D01*
X0052200Y0139600D01*
X0052018Y0140041D02*
X0098014Y0140041D01*
X0100708Y0142438D02*
X0108500Y0142438D01*
X0108500Y0143636D02*
X0099509Y0143636D01*
X0099600Y0143546D02*
X0098546Y0144600D01*
X0051800Y0144600D01*
X0051800Y0145260D01*
X0051961Y0145421D01*
X0052600Y0146965D01*
X0052600Y0148635D01*
X0051961Y0150179D01*
X0051800Y0150340D01*
X0051800Y0151000D01*
X0102054Y0151000D01*
X0108500Y0144554D01*
X0108500Y0134646D01*
X0099600Y0143546D01*
X0101906Y0141239D02*
X0108500Y0141239D01*
X0108500Y0140041D02*
X0103105Y0140041D01*
X0104303Y0138842D02*
X0108500Y0138842D01*
X0108500Y0137644D02*
X0105502Y0137644D01*
X0106700Y0136445D02*
X0108500Y0136445D01*
X0108500Y0135247D02*
X0107899Y0135247D01*
X0108220Y0144835D02*
X0051800Y0144835D01*
X0052214Y0146033D02*
X0107021Y0146033D01*
X0105823Y0147232D02*
X0052600Y0147232D01*
X0052600Y0148430D02*
X0104624Y0148430D01*
X0103426Y0149629D02*
X0052189Y0149629D01*
X0051800Y0150827D02*
X0102227Y0150827D01*
X0102800Y0152800D02*
X0033800Y0152800D01*
X0038800Y0157800D02*
X0102800Y0157800D01*
X0112800Y0147800D01*
X0112800Y0067800D01*
X0110300Y0072800D02*
X0110300Y0145300D01*
X0102800Y0152800D01*
X0103454Y0154600D02*
X0102054Y0156000D01*
X0052200Y0156000D01*
X0051961Y0155421D01*
X0051800Y0155260D01*
X0051800Y0154600D01*
X0103454Y0154600D01*
X0102433Y0155621D02*
X0052044Y0155621D01*
X0052200Y0159600D02*
X0051961Y0160179D01*
X0051800Y0160340D01*
X0051800Y0161000D01*
X0107054Y0161000D01*
X0113500Y0154554D01*
X0113500Y0149646D01*
X0104600Y0158546D01*
X0103546Y0159600D01*
X0052200Y0159600D01*
X0051800Y0160415D02*
X0107639Y0160415D01*
X0108838Y0159217D02*
X0103929Y0159217D01*
X0105127Y0158018D02*
X0110036Y0158018D01*
X0111235Y0156820D02*
X0106326Y0156820D01*
X0107524Y0155621D02*
X0112433Y0155621D01*
X0113500Y0154423D02*
X0108723Y0154423D01*
X0109921Y0153224D02*
X0113500Y0153224D01*
X0113500Y0152026D02*
X0111120Y0152026D01*
X0112318Y0150827D02*
X0113500Y0150827D01*
X0115300Y0155300D02*
X0115300Y0062800D01*
X0096000Y0106800D02*
X0095053Y0106800D01*
X0095100Y0106847D01*
X0095100Y0108753D01*
X0094603Y0109250D01*
X0096000Y0109250D01*
X0096000Y0106800D01*
X0096000Y0107681D02*
X0095100Y0107681D01*
X0094973Y0108879D02*
X0096000Y0108879D01*
X0093497Y0110100D02*
X0091847Y0110100D01*
X0091347Y0109600D01*
X0052200Y0109600D01*
X0051961Y0110179D01*
X0051800Y0110340D01*
X0051800Y0111000D01*
X0093000Y0111000D01*
X0093000Y0110597D01*
X0093497Y0110100D01*
X0091825Y0110078D02*
X0052002Y0110078D01*
X0038800Y0107800D02*
X0092800Y0107800D01*
X0115300Y0155300D02*
X0107800Y0162800D01*
X0033800Y0162800D01*
X0033800Y0182800D02*
X0028800Y0187800D01*
X0033800Y0192800D02*
X0028800Y0197800D01*
X0033800Y0192800D02*
X0117800Y0192800D01*
X0127800Y0182800D01*
X0127561Y0185584D02*
X0128500Y0185584D01*
X0128500Y0186783D02*
X0126363Y0186783D01*
X0125164Y0187981D02*
X0128500Y0187981D01*
X0128500Y0189180D02*
X0123966Y0189180D01*
X0122767Y0190378D02*
X0128500Y0190378D01*
X0128500Y0191577D02*
X0121569Y0191577D01*
X0120370Y0192775D02*
X0128500Y0192775D01*
X0128500Y0193974D02*
X0119172Y0193974D01*
X0117800Y0182800D02*
X0033800Y0182800D01*
X0051340Y0180800D02*
X0117254Y0180800D01*
X0123500Y0174554D01*
X0123500Y0169646D01*
X0121346Y0171800D01*
X0123500Y0171800D01*
X0123500Y0169646D01*
X0114600Y0178546D01*
X0113546Y0179600D01*
X0052200Y0179600D01*
X0051961Y0180179D01*
X0051340Y0180800D01*
X0051350Y0180790D02*
X0117264Y0180790D01*
X0118463Y0179592D02*
X0113554Y0179592D01*
X0114752Y0178393D02*
X0119661Y0178393D01*
X0120860Y0177195D02*
X0115951Y0177195D01*
X0117150Y0175996D02*
X0122058Y0175996D01*
X0123257Y0174798D02*
X0118348Y0174798D01*
X0119547Y0173599D02*
X0123500Y0173599D01*
X0123500Y0172401D02*
X0120745Y0172401D01*
X0121944Y0171202D02*
X0123500Y0171202D01*
X0121944Y0171202D01*
X0123142Y0170003D02*
X0123500Y0170003D01*
X0123142Y0170003D01*
X0125300Y0175300D02*
X0117800Y0182800D01*
X0112054Y0176000D02*
X0113454Y0174600D01*
X0051140Y0174600D01*
X0051961Y0175421D01*
X0052200Y0176000D01*
X0112054Y0176000D01*
X0112058Y0175996D02*
X0052199Y0175996D01*
X0051337Y0174798D02*
X0113257Y0174798D01*
X0112054Y0171000D02*
X0113454Y0169600D01*
X0052200Y0169600D01*
X0051961Y0170179D01*
X0051800Y0170340D01*
X0051800Y0171000D01*
X0112054Y0171000D01*
X0113051Y0170003D02*
X0052033Y0170003D01*
X0052200Y0166000D02*
X0112054Y0166000D01*
X0116000Y0162054D01*
X0116000Y0157146D01*
X0109600Y0163546D01*
X0108546Y0164600D01*
X0051800Y0164600D01*
X0051800Y0165260D01*
X0051961Y0165421D01*
X0052200Y0166000D01*
X0051800Y0165209D02*
X0112845Y0165209D01*
X0114043Y0164011D02*
X0109135Y0164011D01*
X0110333Y0162812D02*
X0115242Y0162812D01*
X0116000Y0161614D02*
X0111532Y0161614D01*
X0112730Y0160415D02*
X0116000Y0160415D01*
X0116000Y0159217D02*
X0113929Y0159217D01*
X0115127Y0158018D02*
X0116000Y0158018D01*
X0137800Y0157800D02*
X0142800Y0162800D01*
X0152800Y0162800D01*
D15*
X0038800Y0197800D02*
X0038800Y0207800D01*
M02*
