%
M48
M72
T01C0.0120
T02C0.0400
%
T01
X5405Y1780
X5780Y2780
X6155Y3280
X6530Y3780
X6780Y4280
X7080Y4780
X7030Y5280
X7280Y5780
X7530Y6280
X7780Y7280
X8030Y7780
X8280Y8280
X8530Y8780
X8780Y9780
X9030Y10280
X9280Y10780
X9530Y11155
X9780Y10280
X10030Y9780
X10280Y9280
X10530Y8780
X10780Y8280
X11030Y7280
X11280Y6780
X11530Y6280
X11780Y5780
X12030Y5280
X12280Y4780
X12530Y3280
X12780Y2280
X15280Y16280
X15280Y17280
T02
X2880Y1780
X2880Y2780
X2880Y3780
X2880Y4780
X2880Y5780
X2880Y6780
X2880Y7780
X2880Y8780
X2880Y9780
X2880Y10780
X2880Y11780
X2880Y12780
X2880Y13780
X2880Y14780
X2880Y15780
X2880Y16780
X2880Y17780
X2880Y18780
X2880Y19780
X2880Y20780
X3880Y20780
X3880Y19780
X3880Y18780
X3880Y17780
X3880Y16780
X3880Y15780
X3880Y14780
X3880Y13780
X3880Y12780
X3880Y11780
X3880Y10780
X3880Y9780
X3880Y8780
X3880Y7780
X3880Y6780
X3880Y5780
X3880Y4780
X3880Y3780
X3880Y2780
X3880Y1780
X8580Y2180
X9580Y2180
X13780Y1780
X13780Y2780
X13780Y3780
X13780Y4780
X13780Y5780
X13780Y6780
X13780Y7780
X13780Y8780
X13780Y9780
X13780Y10780
X13780Y11780
X13780Y12780
X13780Y13780
X13780Y14780
X13780Y15780
X13780Y16780
X13780Y17780
X13780Y18780
X13780Y19780
X13780Y20780
X14780Y20780
X14780Y19780
X14780Y18780
X14780Y17780
X14780Y16780
X14780Y15780
X14780Y14780
X14780Y13780
X14780Y12780
X14780Y11780
X14780Y10780
X14780Y9780
X14780Y8780
X14780Y7780
X14780Y6780
X14780Y5780
X14780Y4780
X14780Y3780
X14780Y2780
X14780Y1780
M30
