G75*
%MOIN*%
%OFA0B0*%
%FSLAX25Y25*%
%IPPOS*%
%LPD*%
%AMOC8*
5,1,8,0,0,1.08239X$1,22.5*
%
%ADD10C,0.00300*%
D10*
X0068450Y0090030D02*
X0070385Y0089063D01*
X0070385Y0090998D02*
X0068450Y0090030D01*
X0068450Y0092009D02*
X0068450Y0093944D01*
X0068450Y0092977D02*
X0071352Y0092977D01*
X0070385Y0092009D01*
X0073250Y0092977D02*
X0073734Y0092493D01*
X0075669Y0092493D01*
X0075185Y0092009D02*
X0075185Y0092977D01*
X0075185Y0093973D02*
X0075185Y0094941D01*
X0075669Y0094457D02*
X0073734Y0094457D01*
X0073250Y0094941D01*
X0073250Y0095938D02*
X0073250Y0097389D01*
X0073734Y0097873D01*
X0074701Y0097873D01*
X0075185Y0097389D01*
X0075185Y0095938D01*
X0072283Y0095938D01*
X0073250Y0098884D02*
X0073250Y0100335D01*
X0073734Y0100819D01*
X0074217Y0100335D01*
X0074217Y0099368D01*
X0074701Y0098884D01*
X0075185Y0099368D01*
X0075185Y0100819D01*
X0075185Y0101831D02*
X0074701Y0101831D01*
X0074701Y0102315D01*
X0075185Y0102315D01*
X0075185Y0101831D01*
X0073734Y0101831D02*
X0073250Y0101831D01*
X0073250Y0102315D01*
X0073734Y0102315D01*
X0073734Y0101831D01*
X0073250Y0103304D02*
X0076152Y0105239D01*
X0078050Y0107225D02*
X0078050Y0108193D01*
X0078534Y0108677D01*
X0079017Y0108677D01*
X0079501Y0108193D01*
X0079501Y0107225D01*
X0079985Y0106742D01*
X0080469Y0106742D01*
X0080952Y0107225D01*
X0080952Y0108193D01*
X0080469Y0108677D01*
X0079985Y0109688D02*
X0078050Y0109688D01*
X0079501Y0109688D02*
X0079501Y0111623D01*
X0079985Y0111623D02*
X0078050Y0111623D01*
X0076636Y0112627D02*
X0076152Y0112627D01*
X0075185Y0112627D02*
X0073250Y0112627D01*
X0073250Y0112144D02*
X0073250Y0113111D01*
X0073734Y0114592D02*
X0073250Y0115075D01*
X0073734Y0114592D02*
X0075669Y0114592D01*
X0075185Y0115075D02*
X0075185Y0114108D01*
X0075185Y0112627D02*
X0075185Y0112144D01*
X0075185Y0111132D02*
X0072766Y0111132D01*
X0072283Y0110648D01*
X0072283Y0110165D01*
X0073250Y0109681D02*
X0073250Y0111132D01*
X0073250Y0109681D02*
X0073734Y0109197D01*
X0074701Y0109197D01*
X0075185Y0109681D01*
X0075185Y0111132D01*
X0076152Y0108186D02*
X0073250Y0106251D01*
X0078050Y0107225D02*
X0078534Y0106742D01*
X0079501Y0105730D02*
X0079501Y0103795D01*
X0080469Y0102784D02*
X0080952Y0102784D01*
X0080469Y0102784D02*
X0079501Y0101816D01*
X0078050Y0101816D01*
X0079501Y0101816D02*
X0080469Y0100849D01*
X0080952Y0100849D01*
X0080469Y0099837D02*
X0079985Y0099837D01*
X0079501Y0099353D01*
X0079501Y0097902D01*
X0079501Y0096891D02*
X0079501Y0094956D01*
X0078534Y0093944D02*
X0078050Y0093460D01*
X0078050Y0092493D01*
X0078534Y0092009D01*
X0080469Y0092009D01*
X0080952Y0092493D01*
X0080952Y0093460D01*
X0080469Y0093944D01*
X0080952Y0097902D02*
X0078050Y0097902D01*
X0078050Y0099353D01*
X0078534Y0099837D01*
X0079017Y0099837D01*
X0079501Y0099353D01*
X0080469Y0099837D02*
X0080952Y0099353D01*
X0080952Y0097902D01*
X0082850Y0098884D02*
X0084785Y0100819D01*
X0085269Y0100819D01*
X0085752Y0100335D01*
X0085752Y0099368D01*
X0085269Y0098884D01*
X0082850Y0098884D02*
X0082850Y0100819D01*
X0083334Y0101831D02*
X0085269Y0103766D01*
X0083334Y0103766D01*
X0082850Y0103282D01*
X0082850Y0102315D01*
X0083334Y0101831D01*
X0085269Y0101831D01*
X0085752Y0102315D01*
X0085752Y0103282D01*
X0085269Y0103766D01*
X0085269Y0104777D02*
X0085752Y0105261D01*
X0085752Y0106229D01*
X0085269Y0106712D01*
X0084785Y0106712D01*
X0082850Y0104777D01*
X0082850Y0106712D01*
X0082850Y0107724D02*
X0082850Y0109659D01*
X0082850Y0108691D02*
X0085752Y0108691D01*
X0084785Y0107724D01*
X0080952Y0110656D02*
X0079985Y0111623D01*
X0080952Y0110656D02*
X0079985Y0109688D01*
X0083334Y0113617D02*
X0082850Y0114101D01*
X0082850Y0114584D01*
X0083334Y0115068D01*
X0085752Y0115068D01*
X0085752Y0114584D02*
X0085752Y0115552D01*
X0084301Y0116563D02*
X0083334Y0116563D01*
X0082850Y0117047D01*
X0082850Y0118015D01*
X0083334Y0118498D01*
X0084301Y0118498D01*
X0084785Y0118015D01*
X0084785Y0117047D01*
X0084301Y0116563D01*
X0084301Y0119510D02*
X0084785Y0119994D01*
X0084785Y0120961D01*
X0084301Y0121445D01*
X0082850Y0121445D01*
X0082850Y0122456D02*
X0084785Y0122456D01*
X0084785Y0123908D01*
X0084301Y0124391D01*
X0082850Y0124391D01*
X0080469Y0121936D02*
X0080952Y0121452D01*
X0080952Y0120485D01*
X0080469Y0120001D01*
X0078534Y0120001D01*
X0080469Y0121936D01*
X0078534Y0121936D01*
X0078050Y0121452D01*
X0078050Y0120485D01*
X0078534Y0120001D01*
X0078534Y0119011D02*
X0078050Y0119011D01*
X0078050Y0118528D01*
X0078534Y0118528D01*
X0078534Y0119011D01*
X0079501Y0117516D02*
X0079501Y0115581D01*
X0080952Y0117032D01*
X0078050Y0117032D01*
X0076152Y0116072D02*
X0073250Y0116072D01*
X0074701Y0116072D02*
X0075185Y0116556D01*
X0075185Y0117523D01*
X0074701Y0118007D01*
X0073250Y0118007D01*
X0073734Y0119019D02*
X0073250Y0119503D01*
X0073250Y0120954D01*
X0075185Y0120954D01*
X0075185Y0121965D02*
X0075185Y0123417D01*
X0074701Y0123900D01*
X0073734Y0123900D01*
X0073250Y0123417D01*
X0073250Y0121965D01*
X0076152Y0121965D01*
X0075185Y0119019D02*
X0073734Y0119019D01*
X0073734Y0124912D02*
X0073250Y0124912D01*
X0073250Y0125396D01*
X0073734Y0125396D01*
X0073734Y0124912D01*
X0073734Y0126385D02*
X0073250Y0126869D01*
X0073250Y0128320D01*
X0073734Y0129332D02*
X0073250Y0129815D01*
X0073250Y0130783D01*
X0073734Y0131267D01*
X0074701Y0131267D01*
X0075185Y0130783D01*
X0075185Y0129815D01*
X0074701Y0129332D01*
X0073734Y0129332D01*
X0075185Y0128320D02*
X0075185Y0126869D01*
X0074701Y0126385D01*
X0073734Y0126385D01*
X0073250Y0132278D02*
X0075185Y0132278D01*
X0075185Y0132762D01*
X0074701Y0133246D01*
X0075185Y0133729D01*
X0074701Y0134213D01*
X0073250Y0134213D01*
X0073250Y0133246D02*
X0074701Y0133246D01*
X0073250Y0135225D02*
X0076152Y0137160D01*
X0075185Y0138171D02*
X0073734Y0138171D01*
X0073250Y0138655D01*
X0073734Y0139139D01*
X0073250Y0139622D01*
X0073734Y0140106D01*
X0075185Y0140106D01*
X0075185Y0141601D02*
X0075185Y0142569D01*
X0074701Y0143053D01*
X0073250Y0143053D01*
X0073250Y0141601D01*
X0073734Y0141118D01*
X0074217Y0141601D01*
X0074217Y0143053D01*
X0074217Y0144064D02*
X0075185Y0145032D01*
X0075185Y0145515D01*
X0075185Y0146520D02*
X0075185Y0147487D01*
X0075669Y0147003D02*
X0073734Y0147003D01*
X0073250Y0147487D01*
X0073250Y0148484D02*
X0076152Y0148484D01*
X0075185Y0148968D02*
X0075185Y0149935D01*
X0074701Y0150419D01*
X0073250Y0150419D01*
X0073734Y0151430D02*
X0073250Y0151914D01*
X0073250Y0152882D01*
X0073734Y0153365D01*
X0074701Y0153365D01*
X0075185Y0152882D01*
X0075185Y0151914D01*
X0074701Y0151430D01*
X0073734Y0151430D01*
X0075185Y0148968D02*
X0074701Y0148484D01*
X0075185Y0144064D02*
X0073250Y0144064D01*
X0081883Y0146996D02*
X0081883Y0147480D01*
X0082366Y0147964D01*
X0084785Y0147964D01*
X0084785Y0146512D01*
X0084301Y0146029D01*
X0083334Y0146029D01*
X0082850Y0146512D01*
X0082850Y0147964D01*
X0083334Y0148975D02*
X0082850Y0149459D01*
X0082850Y0150426D01*
X0083334Y0150910D01*
X0085269Y0150910D01*
X0085752Y0150426D01*
X0085752Y0149459D01*
X0085269Y0148975D01*
X0084785Y0148975D01*
X0084301Y0149459D01*
X0084301Y0150910D01*
X0084785Y0151922D02*
X0085269Y0152405D01*
X0086236Y0152405D01*
X0085752Y0156341D02*
X0082850Y0156341D01*
X0084301Y0156341D02*
X0084301Y0158276D01*
X0083334Y0159288D02*
X0083817Y0159772D01*
X0083817Y0161223D01*
X0084301Y0161223D02*
X0082850Y0161223D01*
X0082850Y0159772D01*
X0083334Y0159288D01*
X0082850Y0158276D02*
X0085752Y0158276D01*
X0084785Y0159772D02*
X0084785Y0160739D01*
X0084301Y0161223D01*
X0084785Y0162234D02*
X0083334Y0162234D01*
X0082850Y0162718D01*
X0083334Y0163202D01*
X0082850Y0163686D01*
X0083334Y0164169D01*
X0084785Y0164169D01*
X0085752Y0165181D02*
X0085752Y0165665D01*
X0082850Y0165665D01*
X0082850Y0166148D02*
X0082850Y0165181D01*
X0083334Y0167145D02*
X0084301Y0167145D01*
X0084785Y0167629D01*
X0084785Y0168596D01*
X0084301Y0169080D01*
X0083817Y0169080D01*
X0083817Y0167145D01*
X0083334Y0167145D02*
X0082850Y0167629D01*
X0082850Y0168596D01*
X0083334Y0170092D02*
X0082850Y0170575D01*
X0082850Y0172027D01*
X0082366Y0172027D02*
X0081883Y0171543D01*
X0081883Y0171059D01*
X0082366Y0172027D02*
X0084785Y0172027D01*
X0084785Y0170092D02*
X0083334Y0170092D01*
X0076152Y0175003D02*
X0076152Y0175486D01*
X0073250Y0175486D01*
X0073250Y0175003D02*
X0073250Y0175970D01*
X0073734Y0176967D02*
X0073250Y0177451D01*
X0073250Y0178418D01*
X0074217Y0178902D02*
X0074217Y0176967D01*
X0073734Y0176967D02*
X0074701Y0176967D01*
X0075185Y0177451D01*
X0075185Y0178418D01*
X0074701Y0178902D01*
X0074217Y0178902D01*
X0075185Y0179913D02*
X0073250Y0180881D01*
X0075185Y0181848D01*
X0074701Y0182860D02*
X0074701Y0184795D01*
X0074701Y0185807D02*
X0073734Y0185807D01*
X0073250Y0186290D01*
X0073250Y0187741D01*
X0073250Y0188753D02*
X0076152Y0188753D01*
X0075185Y0189237D02*
X0075185Y0190204D01*
X0074701Y0190688D01*
X0073250Y0190688D01*
X0073734Y0191700D02*
X0073250Y0192183D01*
X0073250Y0193151D01*
X0074217Y0193635D02*
X0074217Y0191700D01*
X0073734Y0191700D02*
X0074701Y0191700D01*
X0075185Y0192183D01*
X0075185Y0193151D01*
X0074701Y0193635D01*
X0074217Y0193635D01*
X0073734Y0194646D02*
X0073250Y0195130D01*
X0073734Y0195614D01*
X0073250Y0196097D01*
X0073734Y0196581D01*
X0075185Y0196581D01*
X0075185Y0197593D02*
X0075185Y0198560D01*
X0075669Y0198076D02*
X0073734Y0198076D01*
X0073250Y0198560D01*
X0073734Y0199557D02*
X0073250Y0200041D01*
X0073250Y0201008D01*
X0073734Y0201492D01*
X0074701Y0201492D01*
X0075185Y0201008D01*
X0075185Y0200041D01*
X0074701Y0199557D01*
X0073734Y0199557D01*
X0073734Y0202503D02*
X0073250Y0202987D01*
X0073250Y0204438D01*
X0072766Y0204438D02*
X0072283Y0203955D01*
X0072283Y0203471D01*
X0072766Y0204438D02*
X0075185Y0204438D01*
X0075185Y0202503D02*
X0073734Y0202503D01*
X0073734Y0194646D02*
X0075185Y0194646D01*
X0075185Y0189237D02*
X0074701Y0188753D01*
X0075185Y0187741D02*
X0075185Y0186290D01*
X0074701Y0185807D01*
X0075185Y0173991D02*
X0072766Y0173991D01*
X0072283Y0173507D01*
X0072283Y0173024D01*
X0073250Y0172540D02*
X0073250Y0173991D01*
X0073250Y0172540D02*
X0073734Y0172056D01*
X0074701Y0172056D01*
X0075185Y0172540D01*
X0075185Y0173991D01*
X0074701Y0171045D02*
X0073250Y0171045D01*
X0073250Y0169593D01*
X0073734Y0169110D01*
X0074217Y0169593D01*
X0074217Y0171045D01*
X0074701Y0171045D02*
X0075185Y0170561D01*
X0075185Y0169593D01*
X0074701Y0168098D02*
X0074217Y0168098D01*
X0074217Y0166163D01*
X0073734Y0166163D02*
X0074701Y0166163D01*
X0075185Y0166647D01*
X0075185Y0167614D01*
X0074701Y0168098D01*
X0073250Y0167614D02*
X0073250Y0166647D01*
X0073734Y0166163D01*
X0073734Y0165152D02*
X0073250Y0164668D01*
X0073250Y0163217D01*
X0076152Y0163217D01*
X0075185Y0163217D02*
X0075185Y0164668D01*
X0074701Y0165152D01*
X0073734Y0165152D01*
X0076152Y0162205D02*
X0073250Y0160270D01*
X0073734Y0159258D02*
X0073250Y0158775D01*
X0073250Y0157807D01*
X0073734Y0157324D01*
X0074701Y0157807D02*
X0074701Y0159258D01*
X0073734Y0159258D02*
X0075669Y0159258D01*
X0076152Y0158775D01*
X0076152Y0157807D01*
X0075669Y0157324D01*
X0075185Y0157324D01*
X0074701Y0157807D01*
X0075185Y0156312D02*
X0072766Y0156312D01*
X0072283Y0155828D01*
X0072283Y0155344D01*
X0073250Y0154861D02*
X0073250Y0156312D01*
X0073250Y0154861D02*
X0073734Y0154377D01*
X0074701Y0154377D01*
X0075185Y0154861D01*
X0075185Y0156312D01*
X0083334Y0145017D02*
X0084301Y0145017D01*
X0084785Y0144533D01*
X0084785Y0143566D01*
X0084301Y0143082D01*
X0083334Y0143082D01*
X0082850Y0143566D01*
X0082850Y0144533D01*
X0083334Y0145017D01*
X0082850Y0142070D02*
X0084301Y0142070D01*
X0084785Y0141587D01*
X0084785Y0140619D01*
X0084301Y0140135D01*
X0084785Y0139139D02*
X0084785Y0138171D01*
X0085269Y0138655D02*
X0083334Y0138655D01*
X0082850Y0139139D01*
X0082850Y0140135D02*
X0085752Y0140135D01*
X0084785Y0137167D02*
X0084785Y0136683D01*
X0083817Y0135716D01*
X0082850Y0135716D02*
X0084785Y0135716D01*
X0084301Y0134704D02*
X0084785Y0134220D01*
X0084785Y0133253D01*
X0083817Y0133253D02*
X0083817Y0134704D01*
X0084301Y0134704D02*
X0082850Y0134704D01*
X0082850Y0133253D01*
X0083334Y0132769D01*
X0083817Y0133253D01*
X0082850Y0131758D02*
X0085752Y0131758D01*
X0085752Y0129823D02*
X0082850Y0129823D01*
X0083817Y0130790D01*
X0082850Y0131758D01*
X0085269Y0128833D02*
X0084785Y0128349D01*
X0085269Y0128833D02*
X0086236Y0128833D01*
X0085752Y0119510D02*
X0082850Y0119510D01*
X0083817Y0094941D02*
X0084785Y0094941D01*
X0085752Y0093973D01*
X0085269Y0092962D02*
X0085752Y0092478D01*
X0085752Y0091511D01*
X0085269Y0091027D01*
X0083334Y0091027D01*
X0082850Y0091511D01*
X0082850Y0092478D01*
X0083334Y0092962D01*
X0082850Y0093973D02*
X0083817Y0094941D01*
X0082850Y0090030D02*
X0083817Y0089063D01*
X0084785Y0089063D01*
X0085752Y0090030D01*
X0080952Y0089546D02*
X0080469Y0089063D01*
X0078534Y0089063D01*
X0078050Y0089546D01*
X0078050Y0090514D01*
X0078534Y0090998D01*
X0080469Y0090998D02*
X0080952Y0090514D01*
X0080952Y0089546D01*
X0076152Y0089063D02*
X0073250Y0089063D01*
X0074701Y0089063D02*
X0075185Y0089546D01*
X0075185Y0090514D01*
X0074701Y0090998D01*
X0073250Y0090998D01*
M02*
