G75*
%MOIN*%
%OFA0B0*%
%FSLAX25Y25*%
%IPPOS*%
%LPD*%
%AMOC8*
5,1,8,0,0,1.08239X$1,22.5*
%
%ADD10C,0.06000*%
%ADD11OC8,0.07000*%
%ADD12C,0.01200*%
%ADD13C,0.02200*%
%ADD14C,0.01600*%
D10*
X0019200Y0017800D02*
X0028800Y0017800D01*
X0028800Y0027800D02*
X0019200Y0027800D01*
X0019200Y0037800D02*
X0028800Y0037800D01*
X0028800Y0047800D02*
X0019200Y0047800D01*
X0019200Y0057800D02*
X0028800Y0057800D01*
X0028800Y0067800D02*
X0019200Y0067800D01*
X0019200Y0077800D02*
X0028800Y0077800D01*
X0028800Y0087800D02*
X0019200Y0087800D01*
X0019200Y0097800D02*
X0028800Y0097800D01*
X0028800Y0107800D02*
X0019200Y0107800D01*
X0019200Y0117800D02*
X0028800Y0117800D01*
X0028800Y0127800D02*
X0019200Y0127800D01*
X0019200Y0137800D02*
X0028800Y0137800D01*
X0028800Y0147800D02*
X0019200Y0147800D01*
X0019200Y0157800D02*
X0028800Y0157800D01*
X0028800Y0167800D02*
X0019200Y0167800D01*
X0019200Y0177800D02*
X0028800Y0177800D01*
X0028800Y0187800D02*
X0019200Y0187800D01*
X0019200Y0197800D02*
X0028800Y0197800D01*
X0028800Y0207800D02*
X0019200Y0207800D01*
X0038800Y0207800D02*
X0048400Y0207800D01*
X0048400Y0197800D02*
X0038800Y0197800D01*
X0038800Y0187800D02*
X0048400Y0187800D01*
X0048400Y0177800D02*
X0038800Y0177800D01*
X0038800Y0167800D02*
X0048400Y0167800D01*
X0048400Y0157800D02*
X0038800Y0157800D01*
X0038800Y0147800D02*
X0048400Y0147800D01*
X0048400Y0137800D02*
X0038800Y0137800D01*
X0038800Y0127800D02*
X0048400Y0127800D01*
X0048400Y0117800D02*
X0038800Y0117800D01*
X0038800Y0107800D02*
X0048400Y0107800D01*
X0048400Y0097800D02*
X0038800Y0097800D01*
X0038800Y0087800D02*
X0048400Y0087800D01*
X0048400Y0077800D02*
X0038800Y0077800D01*
X0038800Y0067800D02*
X0048400Y0067800D01*
X0048400Y0057800D02*
X0038800Y0057800D01*
X0038800Y0047800D02*
X0048400Y0047800D01*
X0048400Y0037800D02*
X0038800Y0037800D01*
X0038800Y0027800D02*
X0048400Y0027800D01*
X0048400Y0017800D02*
X0038800Y0017800D01*
X0085800Y0018800D02*
X0085800Y0024800D01*
X0095800Y0024800D02*
X0095800Y0018800D01*
D11*
X0137800Y0017800D03*
X0137800Y0027800D03*
X0137800Y0037800D03*
X0137800Y0047800D03*
X0137800Y0057800D03*
X0137800Y0067800D03*
X0137800Y0077800D03*
X0137800Y0087800D03*
X0137800Y0097800D03*
X0137800Y0107800D03*
X0137800Y0117800D03*
X0137800Y0127800D03*
X0137800Y0137800D03*
X0137800Y0147800D03*
X0137800Y0157800D03*
X0137800Y0167800D03*
X0137800Y0177800D03*
X0137800Y0187800D03*
X0137800Y0197800D03*
X0137800Y0207800D03*
X0147800Y0207800D03*
X0147800Y0197800D03*
X0147800Y0187800D03*
X0147800Y0177800D03*
X0147800Y0167800D03*
X0147800Y0157800D03*
X0147800Y0147800D03*
X0147800Y0137800D03*
X0147800Y0127800D03*
X0147800Y0117800D03*
X0147800Y0107800D03*
X0147800Y0097800D03*
X0147800Y0087800D03*
X0147800Y0077800D03*
X0147800Y0067800D03*
X0147800Y0057800D03*
X0147800Y0047800D03*
X0147800Y0037800D03*
X0147800Y0027800D03*
X0147800Y0017800D03*
D12*
X0142800Y0022800D02*
X0127800Y0022800D01*
X0131800Y0026800D02*
X0099518Y0026800D01*
X0099361Y0027179D01*
X0098179Y0028361D01*
X0096635Y0029000D01*
X0094965Y0029000D01*
X0093421Y0028361D01*
X0092239Y0027179D01*
X0092082Y0026800D01*
X0089518Y0026800D01*
X0089361Y0027179D01*
X0088179Y0028361D01*
X0086635Y0029000D01*
X0084965Y0029000D01*
X0083421Y0028361D01*
X0082239Y0027179D01*
X0082082Y0026800D01*
X0060053Y0026800D01*
X0060100Y0026847D01*
X0060100Y0028753D01*
X0059600Y0029253D01*
X0059600Y0031497D01*
X0060597Y0030500D01*
X0062503Y0030500D01*
X0063850Y0031847D01*
X0063850Y0033753D01*
X0063350Y0034253D01*
X0063350Y0036497D01*
X0064347Y0035500D01*
X0066253Y0035500D01*
X0067600Y0036847D01*
X0067600Y0038753D01*
X0067100Y0039253D01*
X0067100Y0040500D01*
X0068753Y0040500D01*
X0070100Y0041847D01*
X0070100Y0043753D01*
X0069600Y0044253D01*
X0069600Y0045747D01*
X0069847Y0045500D01*
X0071753Y0045500D01*
X0073100Y0046847D01*
X0073100Y0048753D01*
X0071753Y0050100D01*
X0069847Y0050100D01*
X0069600Y0049853D01*
X0069600Y0050500D01*
X0071253Y0050500D01*
X0072600Y0051847D01*
X0072600Y0053753D01*
X0072100Y0054253D01*
X0072100Y0055500D01*
X0073753Y0055500D01*
X0075100Y0056847D01*
X0075100Y0058753D01*
X0074600Y0059253D01*
X0074600Y0060500D01*
X0076253Y0060500D01*
X0077600Y0061847D01*
X0077600Y0063753D01*
X0077100Y0064253D01*
X0077100Y0070500D01*
X0078753Y0070500D01*
X0080100Y0071847D01*
X0080100Y0073753D01*
X0079600Y0074253D01*
X0079600Y0075500D01*
X0081253Y0075500D01*
X0082600Y0076847D01*
X0082600Y0078753D01*
X0082100Y0079253D01*
X0082100Y0080500D01*
X0083753Y0080500D01*
X0085100Y0081847D01*
X0085100Y0083753D01*
X0084600Y0084253D01*
X0084600Y0085500D01*
X0086253Y0085500D01*
X0087600Y0086847D01*
X0087600Y0088753D01*
X0087100Y0089253D01*
X0087100Y0095500D01*
X0088753Y0095500D01*
X0090100Y0096847D01*
X0090100Y0098753D01*
X0089600Y0099253D01*
X0089600Y0100500D01*
X0091253Y0100500D01*
X0092600Y0101847D01*
X0092600Y0103753D01*
X0092100Y0104253D01*
X0092100Y0105500D01*
X0093753Y0105500D01*
X0095100Y0106847D01*
X0095100Y0108753D01*
X0094603Y0109250D01*
X0096253Y0109250D01*
X0097600Y0110597D01*
X0097600Y0111000D01*
X0131800Y0111000D01*
X0131800Y0104600D01*
X0099253Y0104600D01*
X0098753Y0105100D01*
X0096847Y0105100D01*
X0095500Y0103753D01*
X0095500Y0101847D01*
X0096847Y0100500D01*
X0098753Y0100500D01*
X0099253Y0101000D01*
X0131800Y0101000D01*
X0131800Y0099600D01*
X0101753Y0099600D01*
X0101253Y0100100D01*
X0099347Y0100100D01*
X0098000Y0098753D01*
X0098000Y0096847D01*
X0099347Y0095500D01*
X0101253Y0095500D01*
X0101753Y0096000D01*
X0131800Y0096000D01*
X0131800Y0094600D01*
X0104253Y0094600D01*
X0103753Y0095100D01*
X0101847Y0095100D01*
X0100500Y0093753D01*
X0100500Y0091847D01*
X0101847Y0090500D01*
X0103753Y0090500D01*
X0104253Y0091000D01*
X0131800Y0091000D01*
X0131800Y0089600D01*
X0106753Y0089600D01*
X0106253Y0090100D01*
X0104347Y0090100D01*
X0103000Y0088753D01*
X0103000Y0086847D01*
X0104347Y0085500D01*
X0106253Y0085500D01*
X0106753Y0086000D01*
X0131800Y0086000D01*
X0131800Y0084600D01*
X0109253Y0084600D01*
X0108753Y0085100D01*
X0106847Y0085100D01*
X0105500Y0083753D01*
X0105500Y0081847D01*
X0106847Y0080500D01*
X0108753Y0080500D01*
X0109253Y0081000D01*
X0131800Y0081000D01*
X0131800Y0074600D01*
X0111753Y0074600D01*
X0111253Y0075100D01*
X0109347Y0075100D01*
X0108000Y0073753D01*
X0108000Y0071847D01*
X0109347Y0070500D01*
X0111253Y0070500D01*
X0111753Y0071000D01*
X0131800Y0071000D01*
X0131800Y0069600D01*
X0114253Y0069600D01*
X0113753Y0070100D01*
X0111847Y0070100D01*
X0110500Y0068753D01*
X0110500Y0066847D01*
X0111847Y0065500D01*
X0113753Y0065500D01*
X0114253Y0066000D01*
X0131800Y0066000D01*
X0131800Y0064600D01*
X0116753Y0064600D01*
X0116253Y0065100D01*
X0114347Y0065100D01*
X0113000Y0063753D01*
X0113000Y0061847D01*
X0114347Y0060500D01*
X0116253Y0060500D01*
X0116753Y0061000D01*
X0131800Y0061000D01*
X0131800Y0059600D01*
X0119253Y0059600D01*
X0118753Y0060100D01*
X0116847Y0060100D01*
X0115500Y0058753D01*
X0115500Y0056847D01*
X0116847Y0055500D01*
X0118753Y0055500D01*
X0119253Y0056000D01*
X0131800Y0056000D01*
X0131800Y0054600D01*
X0121753Y0054600D01*
X0121253Y0055100D01*
X0119347Y0055100D01*
X0118000Y0053753D01*
X0118000Y0051847D01*
X0119347Y0050500D01*
X0121253Y0050500D01*
X0121753Y0051000D01*
X0131800Y0051000D01*
X0131800Y0049600D01*
X0124253Y0049600D01*
X0123753Y0050100D01*
X0121847Y0050100D01*
X0120500Y0048753D01*
X0120500Y0046847D01*
X0121847Y0045500D01*
X0123753Y0045500D01*
X0124253Y0046000D01*
X0131800Y0046000D01*
X0131800Y0034600D01*
X0126753Y0034600D01*
X0126253Y0035100D01*
X0124347Y0035100D01*
X0123000Y0033753D01*
X0123000Y0031847D01*
X0124347Y0030500D01*
X0126253Y0030500D01*
X0126753Y0031000D01*
X0131800Y0031000D01*
X0131800Y0026800D01*
X0131800Y0027381D02*
X0099159Y0027381D01*
X0097651Y0028579D02*
X0131800Y0028579D01*
X0131800Y0029778D02*
X0059600Y0029778D01*
X0059600Y0030976D02*
X0060121Y0030976D01*
X0061550Y0032800D02*
X0061550Y0171550D01*
X0082800Y0192800D01*
X0142800Y0192800D01*
X0147800Y0197800D01*
X0147800Y0187800D02*
X0142800Y0182800D01*
X0092800Y0182800D01*
X0067800Y0157800D01*
X0067800Y0042800D01*
X0069693Y0044160D02*
X0131800Y0044160D01*
X0131800Y0045358D02*
X0069600Y0045358D01*
X0070100Y0042961D02*
X0131800Y0042961D01*
X0131800Y0041763D02*
X0070015Y0041763D01*
X0068817Y0040564D02*
X0131800Y0040564D01*
X0131800Y0039366D02*
X0067100Y0039366D01*
X0067600Y0038167D02*
X0131800Y0038167D01*
X0131800Y0036969D02*
X0067600Y0036969D01*
X0066523Y0035770D02*
X0131800Y0035770D01*
X0131800Y0030976D02*
X0126729Y0030976D01*
X0125300Y0032800D02*
X0142800Y0032800D01*
X0147800Y0037800D01*
X0151800Y0042800D02*
X0142800Y0042800D01*
X0137800Y0037800D01*
X0137800Y0047800D02*
X0122800Y0047800D01*
X0120500Y0047755D02*
X0073100Y0047755D01*
X0072899Y0048954D02*
X0120701Y0048954D01*
X0120790Y0046557D02*
X0072810Y0046557D01*
X0069600Y0050152D02*
X0131800Y0050152D01*
X0131800Y0054946D02*
X0121406Y0054946D01*
X0120300Y0052800D02*
X0142800Y0052800D01*
X0147800Y0047800D01*
X0137800Y0057800D02*
X0117800Y0057800D01*
X0116202Y0056145D02*
X0074398Y0056145D01*
X0075100Y0057343D02*
X0115500Y0057343D01*
X0115500Y0058542D02*
X0075100Y0058542D01*
X0074600Y0059740D02*
X0116488Y0059740D01*
X0116692Y0060939D02*
X0131800Y0060939D01*
X0131800Y0059740D02*
X0119112Y0059740D01*
X0119194Y0054946D02*
X0072100Y0054946D01*
X0072600Y0053748D02*
X0118000Y0053748D01*
X0118000Y0052549D02*
X0072600Y0052549D01*
X0072104Y0051351D02*
X0118496Y0051351D01*
X0113908Y0060939D02*
X0076692Y0060939D01*
X0077600Y0062137D02*
X0113000Y0062137D01*
X0113000Y0063336D02*
X0077600Y0063336D01*
X0077100Y0064534D02*
X0113782Y0064534D01*
X0113986Y0065733D02*
X0131800Y0065733D01*
X0131800Y0070527D02*
X0111280Y0070527D01*
X0111076Y0069329D02*
X0077100Y0069329D01*
X0077100Y0068130D02*
X0110500Y0068130D01*
X0110500Y0066932D02*
X0077100Y0066932D01*
X0077100Y0065733D02*
X0111614Y0065733D01*
X0112800Y0067800D02*
X0137800Y0067800D01*
X0142800Y0062800D02*
X0115300Y0062800D01*
X0109320Y0070527D02*
X0078780Y0070527D01*
X0079978Y0071726D02*
X0108122Y0071726D01*
X0108000Y0072924D02*
X0080100Y0072924D01*
X0079730Y0074123D02*
X0108370Y0074123D01*
X0110300Y0072800D02*
X0142800Y0072800D01*
X0147800Y0077800D01*
X0142800Y0082800D02*
X0107800Y0082800D01*
X0106034Y0081314D02*
X0084566Y0081314D01*
X0085100Y0082512D02*
X0105500Y0082512D01*
X0105500Y0083711D02*
X0085100Y0083711D01*
X0084600Y0084909D02*
X0106657Y0084909D01*
X0108943Y0084909D02*
X0131800Y0084909D01*
X0131800Y0080115D02*
X0082100Y0080115D01*
X0082436Y0078917D02*
X0131800Y0078917D01*
X0131800Y0077718D02*
X0082600Y0077718D01*
X0082272Y0076520D02*
X0131800Y0076520D01*
X0131800Y0075321D02*
X0079600Y0075321D01*
X0080300Y0077800D02*
X0080300Y0125300D01*
X0102800Y0147800D01*
X0137800Y0147800D01*
X0142800Y0152800D02*
X0102800Y0152800D01*
X0077800Y0127800D01*
X0077800Y0072800D01*
X0075300Y0062800D02*
X0075300Y0135300D01*
X0102800Y0162800D01*
X0142800Y0162800D01*
X0147800Y0167800D01*
X0142800Y0172800D02*
X0092800Y0172800D01*
X0070300Y0150300D01*
X0070300Y0052800D01*
X0072800Y0057800D02*
X0072800Y0142800D01*
X0097800Y0167800D01*
X0137800Y0167800D01*
X0142800Y0172800D02*
X0147800Y0177800D01*
X0137800Y0187800D02*
X0087800Y0187800D01*
X0065300Y0165300D01*
X0065300Y0037800D01*
X0063500Y0039253D02*
X0063350Y0039103D01*
X0063350Y0170804D01*
X0083546Y0191000D01*
X0131800Y0191000D01*
X0131800Y0189600D01*
X0087054Y0189600D01*
X0086000Y0188546D01*
X0063500Y0166046D01*
X0063500Y0039253D01*
X0063500Y0039366D02*
X0063350Y0039366D01*
X0063350Y0040564D02*
X0063500Y0040564D01*
X0063500Y0041763D02*
X0063350Y0041763D01*
X0063350Y0042961D02*
X0063500Y0042961D01*
X0063500Y0044160D02*
X0063350Y0044160D01*
X0063350Y0045358D02*
X0063500Y0045358D01*
X0063500Y0046557D02*
X0063350Y0046557D01*
X0063350Y0047755D02*
X0063500Y0047755D01*
X0063500Y0048954D02*
X0063350Y0048954D01*
X0063350Y0050152D02*
X0063500Y0050152D01*
X0063500Y0051351D02*
X0063350Y0051351D01*
X0063350Y0052549D02*
X0063500Y0052549D01*
X0063500Y0053748D02*
X0063350Y0053748D01*
X0063350Y0054946D02*
X0063500Y0054946D01*
X0063500Y0056145D02*
X0063350Y0056145D01*
X0063350Y0057343D02*
X0063500Y0057343D01*
X0063500Y0058542D02*
X0063350Y0058542D01*
X0063350Y0059740D02*
X0063500Y0059740D01*
X0063500Y0060939D02*
X0063350Y0060939D01*
X0063350Y0062137D02*
X0063500Y0062137D01*
X0063500Y0063336D02*
X0063350Y0063336D01*
X0063350Y0064534D02*
X0063500Y0064534D01*
X0063500Y0065733D02*
X0063350Y0065733D01*
X0063350Y0066932D02*
X0063500Y0066932D01*
X0063500Y0068130D02*
X0063350Y0068130D01*
X0063350Y0069329D02*
X0063500Y0069329D01*
X0063500Y0070527D02*
X0063350Y0070527D01*
X0063350Y0071726D02*
X0063500Y0071726D01*
X0063500Y0072924D02*
X0063350Y0072924D01*
X0063350Y0074123D02*
X0063500Y0074123D01*
X0063500Y0075321D02*
X0063350Y0075321D01*
X0063350Y0076520D02*
X0063500Y0076520D01*
X0063500Y0077718D02*
X0063350Y0077718D01*
X0063350Y0078917D02*
X0063500Y0078917D01*
X0063500Y0080115D02*
X0063350Y0080115D01*
X0063350Y0081314D02*
X0063500Y0081314D01*
X0063500Y0082512D02*
X0063350Y0082512D01*
X0063350Y0083711D02*
X0063500Y0083711D01*
X0063500Y0084909D02*
X0063350Y0084909D01*
X0063350Y0086108D02*
X0063500Y0086108D01*
X0063500Y0087306D02*
X0063350Y0087306D01*
X0063350Y0088505D02*
X0063500Y0088505D01*
X0063500Y0089703D02*
X0063350Y0089703D01*
X0063350Y0090902D02*
X0063500Y0090902D01*
X0063500Y0092100D02*
X0063350Y0092100D01*
X0063350Y0093299D02*
X0063500Y0093299D01*
X0063500Y0094497D02*
X0063350Y0094497D01*
X0063350Y0095696D02*
X0063500Y0095696D01*
X0063500Y0096894D02*
X0063350Y0096894D01*
X0063350Y0098093D02*
X0063500Y0098093D01*
X0063500Y0099291D02*
X0063350Y0099291D01*
X0063350Y0100490D02*
X0063500Y0100490D01*
X0063500Y0101688D02*
X0063350Y0101688D01*
X0063350Y0102887D02*
X0063500Y0102887D01*
X0063500Y0104085D02*
X0063350Y0104085D01*
X0063350Y0105284D02*
X0063500Y0105284D01*
X0063500Y0106482D02*
X0063350Y0106482D01*
X0063350Y0107681D02*
X0063500Y0107681D01*
X0063500Y0108879D02*
X0063350Y0108879D01*
X0063350Y0110078D02*
X0063500Y0110078D01*
X0063500Y0111276D02*
X0063350Y0111276D01*
X0063350Y0112475D02*
X0063500Y0112475D01*
X0063500Y0113673D02*
X0063350Y0113673D01*
X0063350Y0114872D02*
X0063500Y0114872D01*
X0063500Y0116070D02*
X0063350Y0116070D01*
X0063350Y0117269D02*
X0063500Y0117269D01*
X0063500Y0118468D02*
X0063350Y0118468D01*
X0063350Y0119666D02*
X0063500Y0119666D01*
X0063500Y0120865D02*
X0063350Y0120865D01*
X0063350Y0122063D02*
X0063500Y0122063D01*
X0063500Y0123262D02*
X0063350Y0123262D01*
X0063350Y0124460D02*
X0063500Y0124460D01*
X0063500Y0125659D02*
X0063350Y0125659D01*
X0063350Y0126857D02*
X0063500Y0126857D01*
X0063500Y0128056D02*
X0063350Y0128056D01*
X0063350Y0129254D02*
X0063500Y0129254D01*
X0063500Y0130453D02*
X0063350Y0130453D01*
X0063350Y0131651D02*
X0063500Y0131651D01*
X0063500Y0132850D02*
X0063350Y0132850D01*
X0063350Y0134048D02*
X0063500Y0134048D01*
X0063500Y0135247D02*
X0063350Y0135247D01*
X0063350Y0136445D02*
X0063500Y0136445D01*
X0063500Y0137644D02*
X0063350Y0137644D01*
X0063350Y0138842D02*
X0063500Y0138842D01*
X0063500Y0140041D02*
X0063350Y0140041D01*
X0063350Y0141239D02*
X0063500Y0141239D01*
X0063500Y0142438D02*
X0063350Y0142438D01*
X0063350Y0143636D02*
X0063500Y0143636D01*
X0063500Y0144835D02*
X0063350Y0144835D01*
X0063350Y0146033D02*
X0063500Y0146033D01*
X0063500Y0147232D02*
X0063350Y0147232D01*
X0063350Y0148430D02*
X0063500Y0148430D01*
X0063500Y0149629D02*
X0063350Y0149629D01*
X0063350Y0150827D02*
X0063500Y0150827D01*
X0063500Y0152026D02*
X0063350Y0152026D01*
X0063350Y0153224D02*
X0063500Y0153224D01*
X0063500Y0154423D02*
X0063350Y0154423D01*
X0063350Y0155621D02*
X0063500Y0155621D01*
X0063500Y0156820D02*
X0063350Y0156820D01*
X0063350Y0158018D02*
X0063500Y0158018D01*
X0063500Y0159217D02*
X0063350Y0159217D01*
X0063350Y0160415D02*
X0063500Y0160415D01*
X0063500Y0161614D02*
X0063350Y0161614D01*
X0063350Y0162812D02*
X0063500Y0162812D01*
X0063500Y0164011D02*
X0063350Y0164011D01*
X0063350Y0165209D02*
X0063500Y0165209D01*
X0063350Y0166408D02*
X0063862Y0166408D01*
X0063350Y0167606D02*
X0065061Y0167606D01*
X0066259Y0168805D02*
X0063350Y0168805D01*
X0063350Y0170003D02*
X0067458Y0170003D01*
X0068656Y0171202D02*
X0063748Y0171202D01*
X0064946Y0172401D02*
X0069855Y0172401D01*
X0071053Y0173599D02*
X0066145Y0173599D01*
X0067343Y0174798D02*
X0072252Y0174798D01*
X0073450Y0175996D02*
X0068542Y0175996D01*
X0069740Y0177195D02*
X0074649Y0177195D01*
X0075847Y0178393D02*
X0070939Y0178393D01*
X0072137Y0179592D02*
X0077046Y0179592D01*
X0078245Y0180790D02*
X0073336Y0180790D01*
X0074534Y0181989D02*
X0079443Y0181989D01*
X0080642Y0183187D02*
X0075733Y0183187D01*
X0076931Y0184386D02*
X0081840Y0184386D01*
X0083039Y0185584D02*
X0078130Y0185584D01*
X0079328Y0186783D02*
X0084237Y0186783D01*
X0085436Y0187981D02*
X0080527Y0187981D01*
X0081725Y0189180D02*
X0086634Y0189180D01*
X0088546Y0186000D02*
X0131800Y0186000D01*
X0131800Y0184600D01*
X0092054Y0184600D01*
X0091000Y0183546D01*
X0067100Y0159646D01*
X0067100Y0164554D01*
X0088546Y0186000D01*
X0088130Y0185584D02*
X0131800Y0185584D01*
X0135300Y0187800D02*
X0137800Y0187800D01*
X0131800Y0190378D02*
X0082924Y0190378D01*
X0081000Y0193546D02*
X0060804Y0173350D01*
X0059750Y0172296D01*
X0059750Y0034253D01*
X0059600Y0034103D01*
X0059600Y0182054D01*
X0073546Y0196000D01*
X0131800Y0196000D01*
X0131800Y0194600D01*
X0082054Y0194600D01*
X0081000Y0193546D01*
X0081000Y0193546D01*
X0081428Y0193974D02*
X0071519Y0193974D01*
X0070321Y0192775D02*
X0080230Y0192775D01*
X0079031Y0191577D02*
X0069122Y0191577D01*
X0067924Y0190378D02*
X0077833Y0190378D01*
X0076634Y0189180D02*
X0066725Y0189180D01*
X0065527Y0187981D02*
X0075436Y0187981D01*
X0074237Y0186783D02*
X0064328Y0186783D01*
X0063130Y0185584D02*
X0073039Y0185584D01*
X0071840Y0184386D02*
X0061931Y0184386D01*
X0060733Y0183187D02*
X0070642Y0183187D01*
X0069443Y0181989D02*
X0059600Y0181989D01*
X0059600Y0180790D02*
X0068245Y0180790D01*
X0067046Y0179592D02*
X0059600Y0179592D01*
X0059600Y0178393D02*
X0065848Y0178393D01*
X0064649Y0177195D02*
X0059600Y0177195D01*
X0059600Y0175996D02*
X0063450Y0175996D01*
X0062252Y0174798D02*
X0059600Y0174798D01*
X0059600Y0173599D02*
X0061053Y0173599D01*
X0060804Y0173350D02*
X0060804Y0173350D01*
X0059855Y0172401D02*
X0059600Y0172401D01*
X0059600Y0171202D02*
X0059750Y0171202D01*
X0059750Y0170003D02*
X0059600Y0170003D01*
X0059600Y0168805D02*
X0059750Y0168805D01*
X0059750Y0167606D02*
X0059600Y0167606D01*
X0059600Y0166408D02*
X0059750Y0166408D01*
X0059750Y0165209D02*
X0059600Y0165209D01*
X0059600Y0164011D02*
X0059750Y0164011D01*
X0059750Y0162812D02*
X0059600Y0162812D01*
X0059600Y0161614D02*
X0059750Y0161614D01*
X0059750Y0160415D02*
X0059600Y0160415D01*
X0059600Y0159217D02*
X0059750Y0159217D01*
X0059750Y0158018D02*
X0059600Y0158018D01*
X0059600Y0156820D02*
X0059750Y0156820D01*
X0059750Y0155621D02*
X0059600Y0155621D01*
X0059600Y0154423D02*
X0059750Y0154423D01*
X0059750Y0153224D02*
X0059600Y0153224D01*
X0059600Y0152026D02*
X0059750Y0152026D01*
X0059750Y0150827D02*
X0059600Y0150827D01*
X0059600Y0149629D02*
X0059750Y0149629D01*
X0059750Y0148430D02*
X0059600Y0148430D01*
X0059600Y0147232D02*
X0059750Y0147232D01*
X0059750Y0146033D02*
X0059600Y0146033D01*
X0059600Y0144835D02*
X0059750Y0144835D01*
X0059750Y0143636D02*
X0059600Y0143636D01*
X0059600Y0142438D02*
X0059750Y0142438D01*
X0059750Y0141239D02*
X0059600Y0141239D01*
X0059600Y0140041D02*
X0059750Y0140041D01*
X0059750Y0138842D02*
X0059600Y0138842D01*
X0059600Y0137644D02*
X0059750Y0137644D01*
X0059750Y0136445D02*
X0059600Y0136445D01*
X0059600Y0135247D02*
X0059750Y0135247D01*
X0059750Y0134048D02*
X0059600Y0134048D01*
X0059600Y0132850D02*
X0059750Y0132850D01*
X0059750Y0131651D02*
X0059600Y0131651D01*
X0059600Y0130453D02*
X0059750Y0130453D01*
X0059750Y0129254D02*
X0059600Y0129254D01*
X0059600Y0128056D02*
X0059750Y0128056D01*
X0059750Y0126857D02*
X0059600Y0126857D01*
X0059600Y0125659D02*
X0059750Y0125659D01*
X0059750Y0124460D02*
X0059600Y0124460D01*
X0059600Y0123262D02*
X0059750Y0123262D01*
X0059750Y0122063D02*
X0059600Y0122063D01*
X0059600Y0120865D02*
X0059750Y0120865D01*
X0059750Y0119666D02*
X0059600Y0119666D01*
X0059600Y0118468D02*
X0059750Y0118468D01*
X0059750Y0117269D02*
X0059600Y0117269D01*
X0059600Y0116070D02*
X0059750Y0116070D01*
X0059750Y0114872D02*
X0059600Y0114872D01*
X0059600Y0113673D02*
X0059750Y0113673D01*
X0059750Y0112475D02*
X0059600Y0112475D01*
X0059600Y0111276D02*
X0059750Y0111276D01*
X0059750Y0110078D02*
X0059600Y0110078D01*
X0059600Y0108879D02*
X0059750Y0108879D01*
X0059750Y0107681D02*
X0059600Y0107681D01*
X0059600Y0106482D02*
X0059750Y0106482D01*
X0059750Y0105284D02*
X0059600Y0105284D01*
X0059600Y0104085D02*
X0059750Y0104085D01*
X0059750Y0102887D02*
X0059600Y0102887D01*
X0059600Y0101688D02*
X0059750Y0101688D01*
X0059750Y0100490D02*
X0059600Y0100490D01*
X0059600Y0099291D02*
X0059750Y0099291D01*
X0059750Y0098093D02*
X0059600Y0098093D01*
X0059600Y0096894D02*
X0059750Y0096894D01*
X0059750Y0095696D02*
X0059600Y0095696D01*
X0059600Y0094497D02*
X0059750Y0094497D01*
X0059750Y0093299D02*
X0059600Y0093299D01*
X0059600Y0092100D02*
X0059750Y0092100D01*
X0059750Y0090902D02*
X0059600Y0090902D01*
X0059600Y0089703D02*
X0059750Y0089703D01*
X0059750Y0088505D02*
X0059600Y0088505D01*
X0059600Y0087306D02*
X0059750Y0087306D01*
X0059750Y0086108D02*
X0059600Y0086108D01*
X0059600Y0084909D02*
X0059750Y0084909D01*
X0059750Y0083711D02*
X0059600Y0083711D01*
X0059600Y0082512D02*
X0059750Y0082512D01*
X0059750Y0081314D02*
X0059600Y0081314D01*
X0059600Y0080115D02*
X0059750Y0080115D01*
X0059750Y0078917D02*
X0059600Y0078917D01*
X0059600Y0077718D02*
X0059750Y0077718D01*
X0059750Y0076520D02*
X0059600Y0076520D01*
X0059600Y0075321D02*
X0059750Y0075321D01*
X0059750Y0074123D02*
X0059600Y0074123D01*
X0059600Y0072924D02*
X0059750Y0072924D01*
X0059750Y0071726D02*
X0059600Y0071726D01*
X0059600Y0070527D02*
X0059750Y0070527D01*
X0059750Y0069329D02*
X0059600Y0069329D01*
X0059600Y0068130D02*
X0059750Y0068130D01*
X0059750Y0066932D02*
X0059600Y0066932D01*
X0059600Y0065733D02*
X0059750Y0065733D01*
X0059750Y0064534D02*
X0059600Y0064534D01*
X0059600Y0063336D02*
X0059750Y0063336D01*
X0059750Y0062137D02*
X0059600Y0062137D01*
X0059600Y0060939D02*
X0059750Y0060939D01*
X0059750Y0059740D02*
X0059600Y0059740D01*
X0059600Y0058542D02*
X0059750Y0058542D01*
X0059750Y0057343D02*
X0059600Y0057343D01*
X0059600Y0056145D02*
X0059750Y0056145D01*
X0059750Y0054946D02*
X0059600Y0054946D01*
X0059600Y0053748D02*
X0059750Y0053748D01*
X0059750Y0052549D02*
X0059600Y0052549D01*
X0059600Y0051351D02*
X0059750Y0051351D01*
X0059750Y0050152D02*
X0059600Y0050152D01*
X0059600Y0048954D02*
X0059750Y0048954D01*
X0059750Y0047755D02*
X0059600Y0047755D01*
X0059600Y0046557D02*
X0059750Y0046557D01*
X0059750Y0045358D02*
X0059600Y0045358D01*
X0059600Y0044160D02*
X0059750Y0044160D01*
X0059750Y0042961D02*
X0059600Y0042961D01*
X0059600Y0041763D02*
X0059750Y0041763D01*
X0059750Y0040564D02*
X0059600Y0040564D01*
X0059600Y0039366D02*
X0059750Y0039366D01*
X0059750Y0038167D02*
X0059600Y0038167D01*
X0059600Y0036969D02*
X0059750Y0036969D01*
X0059750Y0035770D02*
X0059600Y0035770D01*
X0059600Y0034572D02*
X0059750Y0034572D01*
X0063350Y0034572D02*
X0123819Y0034572D01*
X0123000Y0033373D02*
X0063850Y0033373D01*
X0063850Y0032175D02*
X0123000Y0032175D01*
X0123871Y0030976D02*
X0062979Y0030976D01*
X0060100Y0028579D02*
X0083949Y0028579D01*
X0082441Y0027381D02*
X0060100Y0027381D01*
X0057800Y0027800D02*
X0057800Y0182800D01*
X0072800Y0197800D01*
X0137800Y0197800D01*
X0135300Y0197800D01*
X0131800Y0199600D02*
X0072054Y0199600D01*
X0071000Y0198546D01*
X0057054Y0184600D01*
X0056000Y0183546D01*
X0056000Y0029253D01*
X0055850Y0029103D01*
X0055850Y0188304D01*
X0073546Y0206000D01*
X0131800Y0206000D01*
X0131800Y0199600D01*
X0131800Y0199966D02*
X0067512Y0199966D01*
X0066313Y0198768D02*
X0071222Y0198768D01*
X0070024Y0197569D02*
X0065115Y0197569D01*
X0063916Y0196371D02*
X0068825Y0196371D01*
X0067627Y0195172D02*
X0062718Y0195172D01*
X0061519Y0193974D02*
X0066428Y0193974D01*
X0065230Y0192775D02*
X0060321Y0192775D01*
X0059122Y0191577D02*
X0064031Y0191577D01*
X0062833Y0190378D02*
X0057924Y0190378D01*
X0056725Y0189180D02*
X0061634Y0189180D01*
X0060436Y0187981D02*
X0055850Y0187981D01*
X0055850Y0186783D02*
X0059237Y0186783D01*
X0058039Y0185584D02*
X0055850Y0185584D01*
X0055850Y0184386D02*
X0056840Y0184386D01*
X0056000Y0183187D02*
X0055850Y0183187D01*
X0055850Y0181989D02*
X0056000Y0181989D01*
X0056000Y0180790D02*
X0055850Y0180790D01*
X0055850Y0179592D02*
X0056000Y0179592D01*
X0056000Y0178393D02*
X0055850Y0178393D01*
X0055850Y0177195D02*
X0056000Y0177195D01*
X0056000Y0175996D02*
X0055850Y0175996D01*
X0055850Y0174798D02*
X0056000Y0174798D01*
X0056000Y0173599D02*
X0055850Y0173599D01*
X0055850Y0172401D02*
X0056000Y0172401D01*
X0056000Y0171202D02*
X0055850Y0171202D01*
X0055850Y0170003D02*
X0056000Y0170003D01*
X0056000Y0168805D02*
X0055850Y0168805D01*
X0055850Y0167606D02*
X0056000Y0167606D01*
X0056000Y0166408D02*
X0055850Y0166408D01*
X0055850Y0165209D02*
X0056000Y0165209D01*
X0056000Y0164011D02*
X0055850Y0164011D01*
X0055850Y0162812D02*
X0056000Y0162812D01*
X0056000Y0161614D02*
X0055850Y0161614D01*
X0055850Y0160415D02*
X0056000Y0160415D01*
X0056000Y0159217D02*
X0055850Y0159217D01*
X0055850Y0158018D02*
X0056000Y0158018D01*
X0056000Y0156820D02*
X0055850Y0156820D01*
X0055850Y0155621D02*
X0056000Y0155621D01*
X0056000Y0154423D02*
X0055850Y0154423D01*
X0055850Y0153224D02*
X0056000Y0153224D01*
X0056000Y0152026D02*
X0055850Y0152026D01*
X0055850Y0150827D02*
X0056000Y0150827D01*
X0056000Y0149629D02*
X0055850Y0149629D01*
X0055850Y0148430D02*
X0056000Y0148430D01*
X0056000Y0147232D02*
X0055850Y0147232D01*
X0055850Y0146033D02*
X0056000Y0146033D01*
X0056000Y0144835D02*
X0055850Y0144835D01*
X0055850Y0143636D02*
X0056000Y0143636D01*
X0056000Y0142438D02*
X0055850Y0142438D01*
X0055850Y0141239D02*
X0056000Y0141239D01*
X0056000Y0140041D02*
X0055850Y0140041D01*
X0055850Y0138842D02*
X0056000Y0138842D01*
X0056000Y0137644D02*
X0055850Y0137644D01*
X0055850Y0136445D02*
X0056000Y0136445D01*
X0056000Y0135247D02*
X0055850Y0135247D01*
X0055850Y0134048D02*
X0056000Y0134048D01*
X0056000Y0132850D02*
X0055850Y0132850D01*
X0055850Y0131651D02*
X0056000Y0131651D01*
X0056000Y0130453D02*
X0055850Y0130453D01*
X0055850Y0129254D02*
X0056000Y0129254D01*
X0056000Y0128056D02*
X0055850Y0128056D01*
X0055850Y0126857D02*
X0056000Y0126857D01*
X0056000Y0125659D02*
X0055850Y0125659D01*
X0055850Y0124460D02*
X0056000Y0124460D01*
X0056000Y0123262D02*
X0055850Y0123262D01*
X0055850Y0122063D02*
X0056000Y0122063D01*
X0056000Y0120865D02*
X0055850Y0120865D01*
X0055850Y0119666D02*
X0056000Y0119666D01*
X0056000Y0118468D02*
X0055850Y0118468D01*
X0055850Y0117269D02*
X0056000Y0117269D01*
X0056000Y0116070D02*
X0055850Y0116070D01*
X0055850Y0114872D02*
X0056000Y0114872D01*
X0056000Y0113673D02*
X0055850Y0113673D01*
X0055850Y0112475D02*
X0056000Y0112475D01*
X0056000Y0111276D02*
X0055850Y0111276D01*
X0055850Y0110078D02*
X0056000Y0110078D01*
X0056000Y0108879D02*
X0055850Y0108879D01*
X0055850Y0107681D02*
X0056000Y0107681D01*
X0056000Y0106482D02*
X0055850Y0106482D01*
X0055850Y0105284D02*
X0056000Y0105284D01*
X0056000Y0104085D02*
X0055850Y0104085D01*
X0055850Y0102887D02*
X0056000Y0102887D01*
X0056000Y0101688D02*
X0055850Y0101688D01*
X0055850Y0100490D02*
X0056000Y0100490D01*
X0056000Y0099291D02*
X0055850Y0099291D01*
X0055850Y0098093D02*
X0056000Y0098093D01*
X0056000Y0096894D02*
X0055850Y0096894D01*
X0055850Y0095696D02*
X0056000Y0095696D01*
X0056000Y0094497D02*
X0055850Y0094497D01*
X0055850Y0093299D02*
X0056000Y0093299D01*
X0056000Y0092100D02*
X0055850Y0092100D01*
X0055850Y0090902D02*
X0056000Y0090902D01*
X0056000Y0089703D02*
X0055850Y0089703D01*
X0055850Y0088505D02*
X0056000Y0088505D01*
X0056000Y0087306D02*
X0055850Y0087306D01*
X0055850Y0086108D02*
X0056000Y0086108D01*
X0056000Y0084909D02*
X0055850Y0084909D01*
X0055850Y0083711D02*
X0056000Y0083711D01*
X0056000Y0082512D02*
X0055850Y0082512D01*
X0055850Y0081314D02*
X0056000Y0081314D01*
X0056000Y0080115D02*
X0055850Y0080115D01*
X0055850Y0078917D02*
X0056000Y0078917D01*
X0056000Y0077718D02*
X0055850Y0077718D01*
X0055850Y0076520D02*
X0056000Y0076520D01*
X0056000Y0075321D02*
X0055850Y0075321D01*
X0055850Y0074123D02*
X0056000Y0074123D01*
X0056000Y0072924D02*
X0055850Y0072924D01*
X0055850Y0071726D02*
X0056000Y0071726D01*
X0056000Y0070527D02*
X0055850Y0070527D01*
X0055850Y0069329D02*
X0056000Y0069329D01*
X0056000Y0068130D02*
X0055850Y0068130D01*
X0055850Y0066932D02*
X0056000Y0066932D01*
X0056000Y0065733D02*
X0055850Y0065733D01*
X0055850Y0064534D02*
X0056000Y0064534D01*
X0056000Y0063336D02*
X0055850Y0063336D01*
X0055850Y0062137D02*
X0056000Y0062137D01*
X0056000Y0060939D02*
X0055850Y0060939D01*
X0055850Y0059740D02*
X0056000Y0059740D01*
X0056000Y0058542D02*
X0055850Y0058542D01*
X0055850Y0057343D02*
X0056000Y0057343D01*
X0056000Y0056145D02*
X0055850Y0056145D01*
X0055850Y0054946D02*
X0056000Y0054946D01*
X0056000Y0053748D02*
X0055850Y0053748D01*
X0055850Y0052549D02*
X0056000Y0052549D01*
X0056000Y0051351D02*
X0055850Y0051351D01*
X0055850Y0050152D02*
X0056000Y0050152D01*
X0056000Y0048954D02*
X0055850Y0048954D01*
X0055850Y0047755D02*
X0056000Y0047755D01*
X0056000Y0046557D02*
X0055850Y0046557D01*
X0055850Y0045358D02*
X0056000Y0045358D01*
X0056000Y0044160D02*
X0055850Y0044160D01*
X0055850Y0042961D02*
X0056000Y0042961D01*
X0056000Y0041763D02*
X0055850Y0041763D01*
X0055850Y0040564D02*
X0056000Y0040564D01*
X0056000Y0039366D02*
X0055850Y0039366D01*
X0055850Y0038167D02*
X0056000Y0038167D01*
X0056000Y0036969D02*
X0055850Y0036969D01*
X0055850Y0035770D02*
X0056000Y0035770D01*
X0056000Y0034572D02*
X0055850Y0034572D01*
X0055850Y0033373D02*
X0056000Y0033373D01*
X0056000Y0032175D02*
X0055850Y0032175D01*
X0055850Y0030976D02*
X0056000Y0030976D01*
X0056000Y0029778D02*
X0055850Y0029778D01*
X0063350Y0035770D02*
X0064077Y0035770D01*
X0054050Y0017800D02*
X0054050Y0189050D01*
X0072800Y0207800D01*
X0137800Y0207800D01*
X0131800Y0205959D02*
X0073504Y0205959D01*
X0072306Y0204760D02*
X0131800Y0204760D01*
X0131800Y0203562D02*
X0071107Y0203562D01*
X0069909Y0202363D02*
X0131800Y0202363D01*
X0131800Y0201165D02*
X0068710Y0201165D01*
X0066016Y0203562D02*
X0053562Y0203562D01*
X0052800Y0202800D02*
X0052800Y0190346D01*
X0053304Y0190850D01*
X0069254Y0206800D01*
X0056800Y0206800D01*
X0052800Y0202800D01*
X0052800Y0202363D02*
X0064818Y0202363D01*
X0063619Y0201165D02*
X0052800Y0201165D01*
X0052800Y0199966D02*
X0062421Y0199966D01*
X0061222Y0198768D02*
X0052800Y0198768D01*
X0052800Y0197569D02*
X0060024Y0197569D01*
X0058825Y0196371D02*
X0052800Y0196371D01*
X0052800Y0195172D02*
X0057627Y0195172D01*
X0056428Y0193974D02*
X0052800Y0193974D01*
X0052800Y0192775D02*
X0055230Y0192775D01*
X0054031Y0191577D02*
X0052800Y0191577D01*
X0052800Y0190378D02*
X0052833Y0190378D01*
X0054760Y0204760D02*
X0067215Y0204760D01*
X0068413Y0205959D02*
X0055959Y0205959D01*
X0072718Y0195172D02*
X0131800Y0195172D01*
X0131800Y0181000D02*
X0131800Y0174600D01*
X0092054Y0174600D01*
X0091000Y0173546D01*
X0069600Y0152146D01*
X0069600Y0157054D01*
X0093546Y0181000D01*
X0131800Y0181000D01*
X0131800Y0180790D02*
X0093336Y0180790D01*
X0092137Y0179592D02*
X0131800Y0179592D01*
X0131800Y0178393D02*
X0090939Y0178393D01*
X0089740Y0177195D02*
X0131800Y0177195D01*
X0131800Y0175996D02*
X0088542Y0175996D01*
X0087343Y0174798D02*
X0131800Y0174798D01*
X0131800Y0171000D02*
X0131800Y0169600D01*
X0097054Y0169600D01*
X0096000Y0168546D01*
X0096000Y0168546D01*
X0072100Y0144646D01*
X0072100Y0149554D01*
X0093546Y0171000D01*
X0131800Y0171000D01*
X0131800Y0170003D02*
X0092549Y0170003D01*
X0091351Y0168805D02*
X0096259Y0168805D01*
X0095061Y0167606D02*
X0090152Y0167606D01*
X0088954Y0166408D02*
X0093862Y0166408D01*
X0092664Y0165209D02*
X0087755Y0165209D01*
X0086557Y0164011D02*
X0091465Y0164011D01*
X0090267Y0162812D02*
X0085358Y0162812D01*
X0084159Y0161614D02*
X0089068Y0161614D01*
X0087870Y0160415D02*
X0082961Y0160415D01*
X0081762Y0159217D02*
X0086671Y0159217D01*
X0085473Y0158018D02*
X0080564Y0158018D01*
X0079365Y0156820D02*
X0084274Y0156820D01*
X0083076Y0155621D02*
X0078167Y0155621D01*
X0076968Y0154423D02*
X0081877Y0154423D01*
X0080679Y0153224D02*
X0075770Y0153224D01*
X0074571Y0152026D02*
X0079480Y0152026D01*
X0078282Y0150827D02*
X0073373Y0150827D01*
X0072174Y0149629D02*
X0077083Y0149629D01*
X0075885Y0148430D02*
X0072100Y0148430D01*
X0072100Y0147232D02*
X0074686Y0147232D01*
X0073488Y0146033D02*
X0072100Y0146033D01*
X0072100Y0144835D02*
X0072289Y0144835D01*
X0074983Y0142438D02*
X0079892Y0142438D01*
X0081091Y0143636D02*
X0076182Y0143636D01*
X0077380Y0144835D02*
X0082289Y0144835D01*
X0083488Y0146033D02*
X0078579Y0146033D01*
X0079777Y0147232D02*
X0084686Y0147232D01*
X0085885Y0148430D02*
X0080976Y0148430D01*
X0082174Y0149629D02*
X0087083Y0149629D01*
X0088282Y0150827D02*
X0083373Y0150827D01*
X0084571Y0152026D02*
X0089480Y0152026D01*
X0090679Y0153224D02*
X0085770Y0153224D01*
X0086968Y0154423D02*
X0091877Y0154423D01*
X0093076Y0155621D02*
X0088167Y0155621D01*
X0089365Y0156820D02*
X0094274Y0156820D01*
X0095473Y0158018D02*
X0090564Y0158018D01*
X0091762Y0159217D02*
X0096671Y0159217D01*
X0097870Y0160415D02*
X0092961Y0160415D01*
X0094159Y0161614D02*
X0099068Y0161614D01*
X0100267Y0162812D02*
X0095358Y0162812D01*
X0096557Y0164011D02*
X0101465Y0164011D01*
X0102054Y0164600D02*
X0074600Y0137146D01*
X0074600Y0142054D01*
X0098546Y0166000D01*
X0131800Y0166000D01*
X0131800Y0164600D01*
X0102054Y0164600D01*
X0103546Y0161000D02*
X0131800Y0161000D01*
X0131800Y0154600D01*
X0102054Y0154600D01*
X0077100Y0129646D01*
X0077100Y0134554D01*
X0103546Y0161000D01*
X0102961Y0160415D02*
X0131800Y0160415D01*
X0131800Y0159217D02*
X0101762Y0159217D01*
X0100564Y0158018D02*
X0131800Y0158018D01*
X0131800Y0156820D02*
X0099365Y0156820D01*
X0098167Y0155621D02*
X0131800Y0155621D01*
X0131800Y0151000D02*
X0131800Y0149600D01*
X0102146Y0149600D01*
X0103546Y0151000D01*
X0131800Y0151000D01*
X0131800Y0150827D02*
X0103373Y0150827D01*
X0102174Y0149629D02*
X0131800Y0149629D01*
X0131800Y0146000D02*
X0103546Y0146000D01*
X0102146Y0144600D01*
X0131800Y0144600D01*
X0131800Y0146000D01*
X0131800Y0144835D02*
X0102380Y0144835D01*
X0102800Y0142800D02*
X0082800Y0122800D01*
X0082800Y0082800D01*
X0086860Y0086108D02*
X0103740Y0086108D01*
X0103000Y0087306D02*
X0087600Y0087306D01*
X0087600Y0088505D02*
X0103000Y0088505D01*
X0103951Y0089703D02*
X0087100Y0089703D01*
X0087100Y0090902D02*
X0101446Y0090902D01*
X0100500Y0092100D02*
X0087100Y0092100D01*
X0087100Y0093299D02*
X0100500Y0093299D01*
X0101245Y0094497D02*
X0087100Y0094497D01*
X0088948Y0095696D02*
X0099152Y0095696D01*
X0098000Y0096894D02*
X0090100Y0096894D01*
X0090100Y0098093D02*
X0098000Y0098093D01*
X0098539Y0099291D02*
X0089600Y0099291D01*
X0089600Y0100490D02*
X0131800Y0100490D01*
X0131800Y0095696D02*
X0101448Y0095696D01*
X0100300Y0097800D02*
X0137800Y0097800D01*
X0142800Y0092800D02*
X0102800Y0092800D01*
X0104154Y0090902D02*
X0131800Y0090902D01*
X0131800Y0089703D02*
X0106649Y0089703D01*
X0105300Y0087800D02*
X0137800Y0087800D01*
X0142800Y0082800D02*
X0147800Y0087800D01*
X0142800Y0092800D02*
X0147800Y0097800D01*
X0142800Y0102800D02*
X0097800Y0102800D01*
X0095500Y0102887D02*
X0092600Y0102887D01*
X0092441Y0101688D02*
X0095659Y0101688D01*
X0095833Y0104085D02*
X0092267Y0104085D01*
X0092100Y0105284D02*
X0131800Y0105284D01*
X0131800Y0106482D02*
X0094735Y0106482D01*
X0095100Y0107681D02*
X0131800Y0107681D01*
X0131800Y0108879D02*
X0094973Y0108879D01*
X0097081Y0110078D02*
X0131800Y0110078D01*
X0131800Y0114600D02*
X0097146Y0114600D01*
X0098546Y0116000D01*
X0131800Y0116000D01*
X0131800Y0114600D01*
X0131800Y0114872D02*
X0097418Y0114872D01*
X0096550Y0112800D02*
X0095300Y0111550D01*
X0096550Y0112800D02*
X0142800Y0112800D01*
X0147800Y0117800D01*
X0142800Y0122800D02*
X0097800Y0122800D01*
X0090300Y0115300D01*
X0090300Y0102800D01*
X0087800Y0097800D02*
X0087800Y0117800D01*
X0097800Y0127800D01*
X0137800Y0127800D01*
X0142800Y0122800D02*
X0147800Y0127800D01*
X0137800Y0117800D02*
X0097800Y0117800D01*
X0092800Y0112800D01*
X0092800Y0107800D01*
X0097146Y0119600D02*
X0098546Y0121000D01*
X0131800Y0121000D01*
X0131800Y0119600D01*
X0097146Y0119600D01*
X0097212Y0119666D02*
X0131800Y0119666D01*
X0131800Y0120865D02*
X0098410Y0120865D01*
X0097146Y0124600D02*
X0098546Y0126000D01*
X0131800Y0126000D01*
X0131800Y0124600D01*
X0097146Y0124600D01*
X0098204Y0125659D02*
X0131800Y0125659D01*
X0131800Y0129600D02*
X0097146Y0129600D01*
X0103546Y0136000D01*
X0131800Y0136000D01*
X0131800Y0129600D01*
X0131800Y0130453D02*
X0097998Y0130453D01*
X0099197Y0131651D02*
X0131800Y0131651D01*
X0131800Y0132850D02*
X0100395Y0132850D01*
X0101594Y0134048D02*
X0131800Y0134048D01*
X0131800Y0135247D02*
X0102792Y0135247D01*
X0102800Y0137800D02*
X0085300Y0120300D01*
X0085300Y0087800D01*
X0077907Y0130453D02*
X0077100Y0130453D01*
X0077100Y0131651D02*
X0079106Y0131651D01*
X0080304Y0132850D02*
X0077100Y0132850D01*
X0077100Y0134048D02*
X0081503Y0134048D01*
X0082701Y0135247D02*
X0077792Y0135247D01*
X0078991Y0136445D02*
X0083900Y0136445D01*
X0085098Y0137644D02*
X0080189Y0137644D01*
X0081388Y0138842D02*
X0086297Y0138842D01*
X0087495Y0140041D02*
X0082586Y0140041D01*
X0083785Y0141239D02*
X0088694Y0141239D01*
X0089892Y0142438D02*
X0084983Y0142438D01*
X0086182Y0143636D02*
X0091091Y0143636D01*
X0092289Y0144835D02*
X0087380Y0144835D01*
X0088579Y0146033D02*
X0093488Y0146033D01*
X0094686Y0147232D02*
X0089777Y0147232D01*
X0090976Y0148430D02*
X0095885Y0148430D01*
X0097083Y0149629D02*
X0092174Y0149629D01*
X0093373Y0150827D02*
X0098282Y0150827D01*
X0099480Y0152026D02*
X0094571Y0152026D01*
X0095770Y0153224D02*
X0100679Y0153224D01*
X0101877Y0154423D02*
X0096968Y0154423D01*
X0097755Y0165209D02*
X0131800Y0165209D01*
X0142800Y0152800D02*
X0147800Y0157800D01*
X0147800Y0147800D02*
X0142800Y0142800D01*
X0102800Y0142800D01*
X0103546Y0141000D02*
X0102146Y0139600D01*
X0131800Y0139600D01*
X0131800Y0141000D01*
X0103546Y0141000D01*
X0102586Y0140041D02*
X0131800Y0140041D01*
X0137800Y0137800D02*
X0102800Y0137800D01*
X0079068Y0161614D02*
X0074159Y0161614D01*
X0072961Y0160415D02*
X0077870Y0160415D01*
X0076671Y0159217D02*
X0071762Y0159217D01*
X0070564Y0158018D02*
X0075473Y0158018D01*
X0074274Y0156820D02*
X0069600Y0156820D01*
X0069600Y0155621D02*
X0073076Y0155621D01*
X0071877Y0154423D02*
X0069600Y0154423D01*
X0069600Y0153224D02*
X0070679Y0153224D01*
X0067870Y0160415D02*
X0067100Y0160415D01*
X0067100Y0161614D02*
X0069068Y0161614D01*
X0070267Y0162812D02*
X0067100Y0162812D01*
X0067100Y0164011D02*
X0071465Y0164011D01*
X0072664Y0165209D02*
X0067755Y0165209D01*
X0068954Y0166408D02*
X0073862Y0166408D01*
X0075061Y0167606D02*
X0070152Y0167606D01*
X0071351Y0168805D02*
X0076259Y0168805D01*
X0077458Y0170003D02*
X0072549Y0170003D01*
X0073748Y0171202D02*
X0078656Y0171202D01*
X0079855Y0172401D02*
X0074946Y0172401D01*
X0076145Y0173599D02*
X0081053Y0173599D01*
X0082252Y0174798D02*
X0077343Y0174798D01*
X0078542Y0175996D02*
X0083450Y0175996D01*
X0084649Y0177195D02*
X0079740Y0177195D01*
X0080939Y0178393D02*
X0085848Y0178393D01*
X0087046Y0179592D02*
X0082137Y0179592D01*
X0083336Y0180790D02*
X0088245Y0180790D01*
X0089443Y0181989D02*
X0084534Y0181989D01*
X0085733Y0183187D02*
X0090642Y0183187D01*
X0091840Y0184386D02*
X0086931Y0184386D01*
X0086145Y0173599D02*
X0091053Y0173599D01*
X0089855Y0172401D02*
X0084946Y0172401D01*
X0083748Y0171202D02*
X0088656Y0171202D01*
X0087458Y0170003D02*
X0082549Y0170003D01*
X0081351Y0168805D02*
X0086259Y0168805D01*
X0085061Y0167606D02*
X0080152Y0167606D01*
X0078954Y0166408D02*
X0083862Y0166408D01*
X0082664Y0165209D02*
X0077755Y0165209D01*
X0076557Y0164011D02*
X0081465Y0164011D01*
X0080267Y0162812D02*
X0075358Y0162812D01*
X0074600Y0141239D02*
X0078694Y0141239D01*
X0077495Y0140041D02*
X0074600Y0140041D01*
X0074600Y0138842D02*
X0076297Y0138842D01*
X0075098Y0137644D02*
X0074600Y0137644D01*
X0142800Y0102800D02*
X0147800Y0107800D01*
X0147800Y0067800D02*
X0142800Y0062800D01*
X0147800Y0027800D02*
X0142800Y0022800D01*
X0093949Y0028579D02*
X0087651Y0028579D01*
X0089159Y0027381D02*
X0092441Y0027381D01*
D13*
X0070800Y0047800D03*
X0070300Y0052800D03*
X0072800Y0057800D03*
X0075300Y0062800D03*
X0077800Y0072800D03*
X0080300Y0077800D03*
X0082800Y0082800D03*
X0085300Y0087800D03*
X0087800Y0097800D03*
X0090300Y0102800D03*
X0092800Y0107800D03*
X0095300Y0111550D03*
X0097800Y0102800D03*
X0100300Y0097800D03*
X0102800Y0092800D03*
X0105300Y0087800D03*
X0107800Y0082800D03*
X0110300Y0072800D03*
X0112800Y0067800D03*
X0115300Y0062800D03*
X0117800Y0057800D03*
X0120300Y0052800D03*
X0122800Y0047800D03*
X0125300Y0032800D03*
X0127800Y0022800D03*
X0067800Y0042800D03*
X0065300Y0037800D03*
X0061550Y0032800D03*
X0057800Y0027800D03*
X0054050Y0017800D03*
X0152800Y0162800D03*
X0152800Y0172800D03*
D14*
X0014100Y0210500D02*
X0014100Y0014100D01*
X0016126Y0014100D01*
X0016073Y0014139D01*
X0015539Y0014673D01*
X0015095Y0015284D01*
X0014752Y0015957D01*
X0014518Y0016676D01*
X0014400Y0017422D01*
X0014400Y0017600D01*
X0028600Y0017600D01*
X0028600Y0018000D01*
X0028600Y0022600D01*
X0018822Y0022600D01*
X0018076Y0022482D01*
X0017357Y0022248D01*
X0016684Y0021905D01*
X0016073Y0021461D01*
X0015539Y0020927D01*
X0015095Y0020316D01*
X0014752Y0019643D01*
X0014518Y0018924D01*
X0014400Y0018178D01*
X0014400Y0018000D01*
X0028600Y0018000D01*
X0029000Y0018000D01*
X0029000Y0022600D01*
X0029178Y0022600D01*
X0029924Y0022482D01*
X0030643Y0022248D01*
X0031316Y0021905D01*
X0031927Y0021461D01*
X0032461Y0020927D01*
X0032905Y0020316D01*
X0033248Y0019643D01*
X0033482Y0018924D01*
X0033600Y0018178D01*
X0033600Y0018000D01*
X0029000Y0018000D01*
X0029000Y0017600D01*
X0033600Y0017600D01*
X0033600Y0017422D01*
X0033482Y0016676D01*
X0033248Y0015957D01*
X0032905Y0015284D01*
X0032461Y0014673D01*
X0031927Y0014139D01*
X0031874Y0014100D01*
X0036277Y0014100D01*
X0035070Y0015308D01*
X0034400Y0016925D01*
X0034400Y0018675D01*
X0035070Y0020292D01*
X0036308Y0021530D01*
X0037925Y0022200D01*
X0049275Y0022200D01*
X0050892Y0021530D01*
X0052050Y0020373D01*
X0052050Y0025227D01*
X0050892Y0024070D01*
X0049275Y0023400D01*
X0037925Y0023400D01*
X0036308Y0024070D01*
X0035070Y0025308D01*
X0034400Y0026925D01*
X0034400Y0028675D01*
X0035070Y0030292D01*
X0036308Y0031530D01*
X0037925Y0032200D01*
X0049275Y0032200D01*
X0050892Y0031530D01*
X0052050Y0030373D01*
X0052050Y0035227D01*
X0050892Y0034070D01*
X0049275Y0033400D01*
X0037925Y0033400D01*
X0036308Y0034070D01*
X0035070Y0035308D01*
X0034400Y0036925D01*
X0034400Y0038675D01*
X0035070Y0040292D01*
X0036308Y0041530D01*
X0037925Y0042200D01*
X0049275Y0042200D01*
X0050892Y0041530D01*
X0052050Y0040373D01*
X0052050Y0044662D01*
X0051527Y0044139D01*
X0050916Y0043695D01*
X0050243Y0043352D01*
X0049524Y0043118D01*
X0048778Y0043000D01*
X0039000Y0043000D01*
X0039000Y0047600D01*
X0038600Y0047600D01*
X0038600Y0043000D01*
X0038422Y0043000D01*
X0037676Y0043118D01*
X0036957Y0043352D01*
X0036284Y0043695D01*
X0035673Y0044139D01*
X0035139Y0044673D01*
X0034695Y0045284D01*
X0034352Y0045957D01*
X0034118Y0046676D01*
X0034000Y0047422D01*
X0034000Y0047600D01*
X0038600Y0047600D01*
X0038600Y0048000D01*
X0038600Y0052600D01*
X0038422Y0052600D01*
X0037676Y0052482D01*
X0036957Y0052248D01*
X0036284Y0051905D01*
X0035673Y0051461D01*
X0035139Y0050927D01*
X0034695Y0050316D01*
X0034352Y0049643D01*
X0034118Y0048924D01*
X0034000Y0048178D01*
X0034000Y0048000D01*
X0038600Y0048000D01*
X0039000Y0048000D01*
X0039000Y0052600D01*
X0048778Y0052600D01*
X0049524Y0052482D01*
X0050243Y0052248D01*
X0050916Y0051905D01*
X0051527Y0051461D01*
X0052050Y0050938D01*
X0052050Y0055227D01*
X0050892Y0054070D01*
X0049275Y0053400D01*
X0037925Y0053400D01*
X0036308Y0054070D01*
X0035070Y0055308D01*
X0034400Y0056925D01*
X0034400Y0058675D01*
X0035070Y0060292D01*
X0036308Y0061530D01*
X0037925Y0062200D01*
X0049275Y0062200D01*
X0050892Y0061530D01*
X0052050Y0060373D01*
X0052050Y0064662D01*
X0051527Y0064139D01*
X0050916Y0063695D01*
X0050243Y0063352D01*
X0049524Y0063118D01*
X0048778Y0063000D01*
X0039000Y0063000D01*
X0039000Y0067600D01*
X0038600Y0067600D01*
X0038600Y0063000D01*
X0038422Y0063000D01*
X0037676Y0063118D01*
X0036957Y0063352D01*
X0036284Y0063695D01*
X0035673Y0064139D01*
X0035139Y0064673D01*
X0034695Y0065284D01*
X0034352Y0065957D01*
X0034118Y0066676D01*
X0034000Y0067422D01*
X0034000Y0067600D01*
X0038600Y0067600D01*
X0038600Y0068000D01*
X0038600Y0072600D01*
X0038422Y0072600D01*
X0037676Y0072482D01*
X0036957Y0072248D01*
X0036284Y0071905D01*
X0035673Y0071461D01*
X0035139Y0070927D01*
X0034695Y0070316D01*
X0034352Y0069643D01*
X0034118Y0068924D01*
X0034000Y0068178D01*
X0034000Y0068000D01*
X0038600Y0068000D01*
X0039000Y0068000D01*
X0039000Y0072600D01*
X0048778Y0072600D01*
X0049524Y0072482D01*
X0050243Y0072248D01*
X0050916Y0071905D01*
X0051527Y0071461D01*
X0052050Y0070938D01*
X0052050Y0075227D01*
X0050892Y0074070D01*
X0049275Y0073400D01*
X0037925Y0073400D01*
X0036308Y0074070D01*
X0035070Y0075308D01*
X0034400Y0076925D01*
X0034400Y0078675D01*
X0035070Y0080292D01*
X0036308Y0081530D01*
X0037925Y0082200D01*
X0049275Y0082200D01*
X0050892Y0081530D01*
X0052050Y0080373D01*
X0052050Y0085227D01*
X0050892Y0084070D01*
X0049275Y0083400D01*
X0037925Y0083400D01*
X0036308Y0084070D01*
X0035070Y0085308D01*
X0034400Y0086925D01*
X0034400Y0088675D01*
X0035070Y0090292D01*
X0036308Y0091530D01*
X0037925Y0092200D01*
X0049275Y0092200D01*
X0050892Y0091530D01*
X0052050Y0090373D01*
X0052050Y0095227D01*
X0050892Y0094070D01*
X0049275Y0093400D01*
X0037925Y0093400D01*
X0036308Y0094070D01*
X0035070Y0095308D01*
X0034400Y0096925D01*
X0034400Y0098675D01*
X0035070Y0100292D01*
X0036308Y0101530D01*
X0037925Y0102200D01*
X0049275Y0102200D01*
X0050892Y0101530D01*
X0052050Y0100373D01*
X0052050Y0105227D01*
X0050892Y0104070D01*
X0049275Y0103400D01*
X0037925Y0103400D01*
X0036308Y0104070D01*
X0035070Y0105308D01*
X0034400Y0106925D01*
X0034400Y0108675D01*
X0035070Y0110292D01*
X0036308Y0111530D01*
X0037925Y0112200D01*
X0049275Y0112200D01*
X0050892Y0111530D01*
X0052050Y0110373D01*
X0052050Y0114662D01*
X0051527Y0114139D01*
X0050916Y0113695D01*
X0050243Y0113352D01*
X0049524Y0113118D01*
X0048778Y0113000D01*
X0039000Y0113000D01*
X0039000Y0117600D01*
X0038600Y0117600D01*
X0038600Y0113000D01*
X0038422Y0113000D01*
X0037676Y0113118D01*
X0036957Y0113352D01*
X0036284Y0113695D01*
X0035673Y0114139D01*
X0035139Y0114673D01*
X0034695Y0115284D01*
X0034352Y0115957D01*
X0034118Y0116676D01*
X0034000Y0117422D01*
X0034000Y0117600D01*
X0038600Y0117600D01*
X0038600Y0118000D01*
X0038600Y0122600D01*
X0038422Y0122600D01*
X0037676Y0122482D01*
X0036957Y0122248D01*
X0036284Y0121905D01*
X0035673Y0121461D01*
X0035139Y0120927D01*
X0034695Y0120316D01*
X0034352Y0119643D01*
X0034118Y0118924D01*
X0034000Y0118178D01*
X0034000Y0118000D01*
X0038600Y0118000D01*
X0039000Y0118000D01*
X0039000Y0122600D01*
X0048778Y0122600D01*
X0049524Y0122482D01*
X0050243Y0122248D01*
X0050916Y0121905D01*
X0051527Y0121461D01*
X0052050Y0120938D01*
X0052050Y0125227D01*
X0050892Y0124070D01*
X0049275Y0123400D01*
X0037925Y0123400D01*
X0036308Y0124070D01*
X0035070Y0125308D01*
X0034400Y0126925D01*
X0034400Y0128675D01*
X0035070Y0130292D01*
X0036308Y0131530D01*
X0037925Y0132200D01*
X0049275Y0132200D01*
X0050892Y0131530D01*
X0052050Y0130373D01*
X0052050Y0135227D01*
X0050892Y0134070D01*
X0049275Y0133400D01*
X0037925Y0133400D01*
X0036308Y0134070D01*
X0035070Y0135308D01*
X0034400Y0136925D01*
X0034400Y0138675D01*
X0035070Y0140292D01*
X0036308Y0141530D01*
X0037925Y0142200D01*
X0049275Y0142200D01*
X0050892Y0141530D01*
X0052050Y0140373D01*
X0052050Y0144662D01*
X0051527Y0144139D01*
X0050916Y0143695D01*
X0050243Y0143352D01*
X0049524Y0143118D01*
X0048778Y0143000D01*
X0039000Y0143000D01*
X0039000Y0147600D01*
X0038600Y0147600D01*
X0038600Y0143000D01*
X0038422Y0143000D01*
X0037676Y0143118D01*
X0036957Y0143352D01*
X0036284Y0143695D01*
X0035673Y0144139D01*
X0035139Y0144673D01*
X0034695Y0145284D01*
X0034352Y0145957D01*
X0034118Y0146676D01*
X0034000Y0147422D01*
X0034000Y0147600D01*
X0038600Y0147600D01*
X0038600Y0148000D01*
X0038600Y0152600D01*
X0038422Y0152600D01*
X0037676Y0152482D01*
X0036957Y0152248D01*
X0036284Y0151905D01*
X0035673Y0151461D01*
X0035139Y0150927D01*
X0034695Y0150316D01*
X0034352Y0149643D01*
X0034118Y0148924D01*
X0034000Y0148178D01*
X0034000Y0148000D01*
X0038600Y0148000D01*
X0039000Y0148000D01*
X0039000Y0152600D01*
X0048778Y0152600D01*
X0049524Y0152482D01*
X0050243Y0152248D01*
X0050916Y0151905D01*
X0051527Y0151461D01*
X0052050Y0150938D01*
X0052050Y0155227D01*
X0050892Y0154070D01*
X0049275Y0153400D01*
X0037925Y0153400D01*
X0036308Y0154070D01*
X0035070Y0155308D01*
X0034400Y0156925D01*
X0034400Y0158675D01*
X0035070Y0160292D01*
X0036308Y0161530D01*
X0037925Y0162200D01*
X0049275Y0162200D01*
X0050892Y0161530D01*
X0052050Y0160373D01*
X0052050Y0165227D01*
X0050892Y0164070D01*
X0049275Y0163400D01*
X0037925Y0163400D01*
X0036308Y0164070D01*
X0035070Y0165308D01*
X0034400Y0166925D01*
X0034400Y0168675D01*
X0035070Y0170292D01*
X0036308Y0171530D01*
X0037925Y0172200D01*
X0049275Y0172200D01*
X0050892Y0171530D01*
X0052050Y0170373D01*
X0052050Y0175227D01*
X0050892Y0174070D01*
X0049275Y0173400D01*
X0037925Y0173400D01*
X0036308Y0174070D01*
X0035070Y0175308D01*
X0034400Y0176925D01*
X0034400Y0178675D01*
X0035070Y0180292D01*
X0036308Y0181530D01*
X0037925Y0182200D01*
X0049275Y0182200D01*
X0050892Y0181530D01*
X0052050Y0180373D01*
X0052050Y0184662D01*
X0051527Y0184139D01*
X0050916Y0183695D01*
X0050243Y0183352D01*
X0049524Y0183118D01*
X0048778Y0183000D01*
X0039000Y0183000D01*
X0039000Y0187600D01*
X0038600Y0187600D01*
X0038600Y0183000D01*
X0038422Y0183000D01*
X0037676Y0183118D01*
X0036957Y0183352D01*
X0036284Y0183695D01*
X0035673Y0184139D01*
X0035139Y0184673D01*
X0034695Y0185284D01*
X0034352Y0185957D01*
X0034118Y0186676D01*
X0034000Y0187422D01*
X0034000Y0187600D01*
X0038600Y0187600D01*
X0038600Y0188000D01*
X0038600Y0192600D01*
X0038422Y0192600D01*
X0037676Y0192482D01*
X0036957Y0192248D01*
X0036284Y0191905D01*
X0035673Y0191461D01*
X0035139Y0190927D01*
X0034695Y0190316D01*
X0034352Y0189643D01*
X0034118Y0188924D01*
X0034000Y0188178D01*
X0034000Y0188000D01*
X0038600Y0188000D01*
X0039000Y0188000D01*
X0039000Y0192600D01*
X0048778Y0192600D01*
X0049524Y0192482D01*
X0050243Y0192248D01*
X0050916Y0191905D01*
X0051527Y0191461D01*
X0052061Y0190927D01*
X0052498Y0190326D01*
X0053222Y0191050D01*
X0071972Y0209800D01*
X0132900Y0209800D01*
X0132900Y0209830D01*
X0133570Y0210500D01*
X0051923Y0210500D01*
X0052130Y0210292D01*
X0052800Y0208675D01*
X0052800Y0206925D01*
X0052130Y0205308D01*
X0050892Y0204070D01*
X0049275Y0203400D01*
X0037925Y0203400D01*
X0036308Y0204070D01*
X0035070Y0205308D01*
X0034400Y0206925D01*
X0034400Y0208675D01*
X0035070Y0210292D01*
X0035277Y0210500D01*
X0032323Y0210500D01*
X0032530Y0210292D01*
X0033200Y0208675D01*
X0033200Y0206925D01*
X0032530Y0205308D01*
X0031292Y0204070D01*
X0029675Y0203400D01*
X0018325Y0203400D01*
X0016708Y0204070D01*
X0015470Y0205308D01*
X0014800Y0206925D01*
X0014800Y0208675D01*
X0015470Y0210292D01*
X0015677Y0210500D01*
X0014100Y0210500D01*
X0014100Y0210015D02*
X0015355Y0210015D01*
X0014800Y0208417D02*
X0014100Y0208417D01*
X0014100Y0206818D02*
X0014844Y0206818D01*
X0015558Y0205220D02*
X0014100Y0205220D01*
X0014100Y0203621D02*
X0017790Y0203621D01*
X0018325Y0202200D02*
X0016708Y0201530D01*
X0015470Y0200292D01*
X0014800Y0198675D01*
X0014800Y0196925D01*
X0015470Y0195308D01*
X0016708Y0194070D01*
X0018325Y0193400D01*
X0029675Y0193400D01*
X0031292Y0194070D01*
X0032530Y0195308D01*
X0033200Y0196925D01*
X0033200Y0198675D01*
X0032530Y0200292D01*
X0031292Y0201530D01*
X0029675Y0202200D01*
X0018325Y0202200D01*
X0017897Y0202023D02*
X0014100Y0202023D01*
X0014100Y0200424D02*
X0015602Y0200424D01*
X0014862Y0198826D02*
X0014100Y0198826D01*
X0014100Y0197227D02*
X0014800Y0197227D01*
X0015337Y0195629D02*
X0014100Y0195629D01*
X0014100Y0194030D02*
X0016803Y0194030D01*
X0018325Y0192200D02*
X0016708Y0191530D01*
X0015470Y0190292D01*
X0014800Y0188675D01*
X0014800Y0186925D01*
X0015470Y0185308D01*
X0016708Y0184070D01*
X0018325Y0183400D01*
X0029675Y0183400D01*
X0031292Y0184070D01*
X0032530Y0185308D01*
X0033200Y0186925D01*
X0033200Y0188675D01*
X0032530Y0190292D01*
X0031292Y0191530D01*
X0029675Y0192200D01*
X0018325Y0192200D01*
X0016011Y0190833D02*
X0014100Y0190833D01*
X0014100Y0189235D02*
X0015032Y0189235D01*
X0014800Y0187636D02*
X0014100Y0187636D01*
X0014100Y0186038D02*
X0015167Y0186038D01*
X0014100Y0184439D02*
X0016338Y0184439D01*
X0014100Y0182841D02*
X0052050Y0182841D01*
X0052050Y0184439D02*
X0051827Y0184439D01*
X0052050Y0181242D02*
X0051180Y0181242D01*
X0051671Y0174848D02*
X0052050Y0174848D01*
X0052050Y0173250D02*
X0014100Y0173250D01*
X0014100Y0174848D02*
X0015929Y0174848D01*
X0015470Y0175308D02*
X0016708Y0174070D01*
X0018325Y0173400D01*
X0029675Y0173400D01*
X0031292Y0174070D01*
X0032530Y0175308D01*
X0033200Y0176925D01*
X0033200Y0178675D01*
X0032530Y0180292D01*
X0031292Y0181530D01*
X0029675Y0182200D01*
X0018325Y0182200D01*
X0016708Y0181530D01*
X0015470Y0180292D01*
X0014800Y0178675D01*
X0014800Y0176925D01*
X0015470Y0175308D01*
X0014998Y0176447D02*
X0014100Y0176447D01*
X0014100Y0178045D02*
X0014800Y0178045D01*
X0015201Y0179644D02*
X0014100Y0179644D01*
X0014100Y0181242D02*
X0016420Y0181242D01*
X0018076Y0172482D02*
X0017357Y0172248D01*
X0016684Y0171905D01*
X0016073Y0171461D01*
X0015539Y0170927D01*
X0015095Y0170316D01*
X0014752Y0169643D01*
X0014518Y0168924D01*
X0014400Y0168178D01*
X0014400Y0168000D01*
X0028600Y0168000D01*
X0028600Y0172600D01*
X0018822Y0172600D01*
X0018076Y0172482D01*
X0016334Y0171651D02*
X0014100Y0171651D01*
X0014100Y0170053D02*
X0014961Y0170053D01*
X0014444Y0168454D02*
X0014100Y0168454D01*
X0014400Y0167600D02*
X0014400Y0167422D01*
X0014518Y0166676D01*
X0014752Y0165957D01*
X0015095Y0165284D01*
X0015539Y0164673D01*
X0016073Y0164139D01*
X0016684Y0163695D01*
X0017357Y0163352D01*
X0018076Y0163118D01*
X0018822Y0163000D01*
X0028600Y0163000D01*
X0028600Y0167600D01*
X0029000Y0167600D01*
X0029000Y0168000D01*
X0028600Y0168000D01*
X0028600Y0167600D01*
X0014400Y0167600D01*
X0014490Y0166856D02*
X0014100Y0166856D01*
X0014100Y0165257D02*
X0015114Y0165257D01*
X0014100Y0163659D02*
X0016755Y0163659D01*
X0017987Y0162060D02*
X0014100Y0162060D01*
X0014100Y0160462D02*
X0015639Y0160462D01*
X0015470Y0160292D02*
X0014800Y0158675D01*
X0014800Y0156925D01*
X0015470Y0155308D01*
X0016708Y0154070D01*
X0018325Y0153400D01*
X0029675Y0153400D01*
X0031292Y0154070D01*
X0032530Y0155308D01*
X0033200Y0156925D01*
X0033200Y0158675D01*
X0032530Y0160292D01*
X0031292Y0161530D01*
X0029675Y0162200D01*
X0018325Y0162200D01*
X0016708Y0161530D01*
X0015470Y0160292D01*
X0014878Y0158863D02*
X0014100Y0158863D01*
X0014100Y0157265D02*
X0014800Y0157265D01*
X0015321Y0155666D02*
X0014100Y0155666D01*
X0014100Y0154068D02*
X0016713Y0154068D01*
X0018325Y0152200D02*
X0016708Y0151530D01*
X0015470Y0150292D01*
X0014800Y0148675D01*
X0014800Y0146925D01*
X0015470Y0145308D01*
X0016708Y0144070D01*
X0018325Y0143400D01*
X0029675Y0143400D01*
X0031292Y0144070D01*
X0032530Y0145308D01*
X0033200Y0146925D01*
X0033200Y0148675D01*
X0032530Y0150292D01*
X0031292Y0151530D01*
X0029675Y0152200D01*
X0018325Y0152200D01*
X0016048Y0150870D02*
X0014100Y0150870D01*
X0014100Y0149272D02*
X0015047Y0149272D01*
X0014800Y0147673D02*
X0014100Y0147673D01*
X0014100Y0146075D02*
X0015152Y0146075D01*
X0014100Y0144476D02*
X0016301Y0144476D01*
X0014100Y0142878D02*
X0052050Y0142878D01*
X0052050Y0144476D02*
X0051865Y0144476D01*
X0052050Y0141279D02*
X0051143Y0141279D01*
X0051708Y0134885D02*
X0052050Y0134885D01*
X0052050Y0133287D02*
X0014100Y0133287D01*
X0014100Y0134885D02*
X0015892Y0134885D01*
X0015470Y0135308D02*
X0016708Y0134070D01*
X0018325Y0133400D01*
X0029675Y0133400D01*
X0031292Y0134070D01*
X0032530Y0135308D01*
X0033200Y0136925D01*
X0033200Y0138675D01*
X0032530Y0140292D01*
X0031292Y0141530D01*
X0029675Y0142200D01*
X0018325Y0142200D01*
X0016708Y0141530D01*
X0015470Y0140292D01*
X0014800Y0138675D01*
X0014800Y0136925D01*
X0015470Y0135308D01*
X0014983Y0136484D02*
X0014100Y0136484D01*
X0014100Y0138082D02*
X0014800Y0138082D01*
X0015217Y0139681D02*
X0014100Y0139681D01*
X0014100Y0141279D02*
X0016457Y0141279D01*
X0018325Y0132200D02*
X0016708Y0131530D01*
X0015470Y0130292D01*
X0014800Y0128675D01*
X0014800Y0126925D01*
X0015470Y0125308D01*
X0016708Y0124070D01*
X0018325Y0123400D01*
X0029675Y0123400D01*
X0031292Y0124070D01*
X0032530Y0125308D01*
X0033200Y0126925D01*
X0033200Y0128675D01*
X0032530Y0130292D01*
X0031292Y0131530D01*
X0029675Y0132200D01*
X0018325Y0132200D01*
X0017090Y0131688D02*
X0014100Y0131688D01*
X0014100Y0130090D02*
X0015386Y0130090D01*
X0014800Y0128491D02*
X0014100Y0128491D01*
X0014100Y0126893D02*
X0014813Y0126893D01*
X0015483Y0125294D02*
X0014100Y0125294D01*
X0014100Y0123696D02*
X0017611Y0123696D01*
X0018325Y0122200D02*
X0016708Y0121530D01*
X0015470Y0120292D01*
X0014800Y0118675D01*
X0014800Y0116925D01*
X0015470Y0115308D01*
X0016708Y0114070D01*
X0018325Y0113400D01*
X0029675Y0113400D01*
X0031292Y0114070D01*
X0032530Y0115308D01*
X0033200Y0116925D01*
X0033200Y0118675D01*
X0032530Y0120292D01*
X0031292Y0121530D01*
X0029675Y0122200D01*
X0018325Y0122200D01*
X0018077Y0122097D02*
X0014100Y0122097D01*
X0014100Y0120499D02*
X0015676Y0120499D01*
X0014893Y0118900D02*
X0014100Y0118900D01*
X0014100Y0117302D02*
X0014800Y0117302D01*
X0015306Y0115703D02*
X0014100Y0115703D01*
X0014100Y0114105D02*
X0016673Y0114105D01*
X0018325Y0112200D02*
X0016708Y0111530D01*
X0015470Y0110292D01*
X0014800Y0108675D01*
X0014800Y0106925D01*
X0015470Y0105308D01*
X0016708Y0104070D01*
X0018325Y0103400D01*
X0029675Y0103400D01*
X0031292Y0104070D01*
X0032530Y0105308D01*
X0033200Y0106925D01*
X0033200Y0108675D01*
X0032530Y0110292D01*
X0031292Y0111530D01*
X0029675Y0112200D01*
X0018325Y0112200D01*
X0016085Y0110908D02*
X0014100Y0110908D01*
X0014100Y0112506D02*
X0052050Y0112506D01*
X0052050Y0110908D02*
X0051515Y0110908D01*
X0051480Y0114105D02*
X0052050Y0114105D01*
X0052050Y0122097D02*
X0050539Y0122097D01*
X0049989Y0123696D02*
X0052050Y0123696D01*
X0052050Y0131688D02*
X0050510Y0131688D01*
X0039000Y0122097D02*
X0038600Y0122097D01*
X0038600Y0120499D02*
X0039000Y0120499D01*
X0039000Y0118900D02*
X0038600Y0118900D01*
X0038600Y0117302D02*
X0039000Y0117302D01*
X0039000Y0115703D02*
X0038600Y0115703D01*
X0038600Y0114105D02*
X0039000Y0114105D01*
X0035720Y0114105D02*
X0031327Y0114105D01*
X0032694Y0115703D02*
X0034481Y0115703D01*
X0034019Y0117302D02*
X0033200Y0117302D01*
X0033107Y0118900D02*
X0034114Y0118900D01*
X0034828Y0120499D02*
X0032324Y0120499D01*
X0029923Y0122097D02*
X0036661Y0122097D01*
X0037211Y0123696D02*
X0030389Y0123696D01*
X0032517Y0125294D02*
X0035083Y0125294D01*
X0034413Y0126893D02*
X0033187Y0126893D01*
X0033200Y0128491D02*
X0034400Y0128491D01*
X0034986Y0130090D02*
X0032614Y0130090D01*
X0030910Y0131688D02*
X0036690Y0131688D01*
X0035492Y0134885D02*
X0032108Y0134885D01*
X0033017Y0136484D02*
X0034583Y0136484D01*
X0034400Y0138082D02*
X0033200Y0138082D01*
X0032783Y0139681D02*
X0034817Y0139681D01*
X0036057Y0141279D02*
X0031543Y0141279D01*
X0031699Y0144476D02*
X0035335Y0144476D01*
X0034313Y0146075D02*
X0032848Y0146075D01*
X0033200Y0147673D02*
X0038600Y0147673D01*
X0038600Y0146075D02*
X0039000Y0146075D01*
X0039000Y0144476D02*
X0038600Y0144476D01*
X0038600Y0149272D02*
X0039000Y0149272D01*
X0039000Y0150870D02*
X0038600Y0150870D01*
X0038600Y0152469D02*
X0039000Y0152469D01*
X0037637Y0152469D02*
X0014100Y0152469D01*
X0029000Y0163000D02*
X0029178Y0163000D01*
X0029924Y0163118D01*
X0030643Y0163352D01*
X0031316Y0163695D01*
X0031927Y0164139D01*
X0032461Y0164673D01*
X0032905Y0165284D01*
X0033248Y0165957D01*
X0033482Y0166676D01*
X0033600Y0167422D01*
X0033600Y0167600D01*
X0029000Y0167600D01*
X0029000Y0163000D01*
X0029000Y0163659D02*
X0028600Y0163659D01*
X0028600Y0165257D02*
X0029000Y0165257D01*
X0029000Y0166856D02*
X0028600Y0166856D01*
X0029000Y0168000D02*
X0033600Y0168000D01*
X0033600Y0168178D01*
X0033482Y0168924D01*
X0033248Y0169643D01*
X0032905Y0170316D01*
X0032461Y0170927D01*
X0031927Y0171461D01*
X0031316Y0171905D01*
X0030643Y0172248D01*
X0029924Y0172482D01*
X0029178Y0172600D01*
X0029000Y0172600D01*
X0029000Y0168000D01*
X0029000Y0168454D02*
X0028600Y0168454D01*
X0028600Y0170053D02*
X0029000Y0170053D01*
X0029000Y0171651D02*
X0028600Y0171651D01*
X0031666Y0171651D02*
X0036600Y0171651D01*
X0034971Y0170053D02*
X0033039Y0170053D01*
X0033556Y0168454D02*
X0034400Y0168454D01*
X0034429Y0166856D02*
X0033510Y0166856D01*
X0032886Y0165257D02*
X0035120Y0165257D01*
X0037301Y0163659D02*
X0031245Y0163659D01*
X0030013Y0162060D02*
X0037587Y0162060D01*
X0035239Y0160462D02*
X0032361Y0160462D01*
X0033122Y0158863D02*
X0034478Y0158863D01*
X0034400Y0157265D02*
X0033200Y0157265D01*
X0032679Y0155666D02*
X0034921Y0155666D01*
X0036313Y0154068D02*
X0031287Y0154068D01*
X0031952Y0150870D02*
X0035098Y0150870D01*
X0034231Y0149272D02*
X0032953Y0149272D01*
X0049563Y0152469D02*
X0052050Y0152469D01*
X0052050Y0154068D02*
X0050887Y0154068D01*
X0051961Y0160462D02*
X0052050Y0160462D01*
X0052050Y0162060D02*
X0049613Y0162060D01*
X0049899Y0163659D02*
X0052050Y0163659D01*
X0052050Y0171651D02*
X0050600Y0171651D01*
X0039000Y0184439D02*
X0038600Y0184439D01*
X0038600Y0186038D02*
X0039000Y0186038D01*
X0038600Y0187636D02*
X0033200Y0187636D01*
X0032968Y0189235D02*
X0034219Y0189235D01*
X0035071Y0190833D02*
X0031989Y0190833D01*
X0031197Y0194030D02*
X0036403Y0194030D01*
X0036308Y0194070D02*
X0037925Y0193400D01*
X0049275Y0193400D01*
X0050892Y0194070D01*
X0052130Y0195308D01*
X0052800Y0196925D01*
X0052800Y0198675D01*
X0052130Y0200292D01*
X0050892Y0201530D01*
X0049275Y0202200D01*
X0037925Y0202200D01*
X0036308Y0201530D01*
X0035070Y0200292D01*
X0034400Y0198675D01*
X0034400Y0196925D01*
X0035070Y0195308D01*
X0036308Y0194070D01*
X0037522Y0192432D02*
X0014100Y0192432D01*
X0030103Y0202023D02*
X0037497Y0202023D01*
X0037390Y0203621D02*
X0030210Y0203621D01*
X0032442Y0205220D02*
X0035158Y0205220D01*
X0034444Y0206818D02*
X0033156Y0206818D01*
X0033200Y0208417D02*
X0034400Y0208417D01*
X0034955Y0210015D02*
X0032645Y0210015D01*
X0032398Y0200424D02*
X0035202Y0200424D01*
X0034462Y0198826D02*
X0033138Y0198826D01*
X0033200Y0197227D02*
X0034400Y0197227D01*
X0034937Y0195629D02*
X0032663Y0195629D01*
X0038600Y0192432D02*
X0039000Y0192432D01*
X0039000Y0190833D02*
X0038600Y0190833D01*
X0038600Y0189235D02*
X0039000Y0189235D01*
X0035373Y0184439D02*
X0031662Y0184439D01*
X0032833Y0186038D02*
X0034326Y0186038D01*
X0036020Y0181242D02*
X0031580Y0181242D01*
X0032799Y0179644D02*
X0034801Y0179644D01*
X0034400Y0178045D02*
X0033200Y0178045D01*
X0033002Y0176447D02*
X0034598Y0176447D01*
X0035529Y0174848D02*
X0032071Y0174848D01*
X0049678Y0192432D02*
X0054603Y0192432D01*
X0053005Y0190833D02*
X0052129Y0190833D01*
X0050797Y0194030D02*
X0056202Y0194030D01*
X0057800Y0195629D02*
X0052263Y0195629D01*
X0052800Y0197227D02*
X0059399Y0197227D01*
X0060997Y0198826D02*
X0052738Y0198826D01*
X0051998Y0200424D02*
X0062596Y0200424D01*
X0064194Y0202023D02*
X0049703Y0202023D01*
X0049810Y0203621D02*
X0065793Y0203621D01*
X0067391Y0205220D02*
X0052042Y0205220D01*
X0052756Y0206818D02*
X0068990Y0206818D01*
X0070588Y0208417D02*
X0052800Y0208417D01*
X0052245Y0210015D02*
X0133086Y0210015D01*
X0145749Y0192921D02*
X0144800Y0191972D01*
X0143628Y0190800D01*
X0141730Y0190800D01*
X0142700Y0189830D01*
X0142700Y0185770D01*
X0141730Y0184800D01*
X0141972Y0184800D01*
X0142921Y0185749D01*
X0142900Y0185770D01*
X0142900Y0189830D01*
X0145770Y0192700D01*
X0149830Y0192700D01*
X0152700Y0189830D01*
X0152700Y0185770D01*
X0149830Y0182900D01*
X0145770Y0182900D01*
X0145749Y0182921D01*
X0144800Y0181972D01*
X0143628Y0180800D01*
X0142295Y0180800D01*
X0143083Y0180012D01*
X0145770Y0182700D01*
X0149830Y0182700D01*
X0152700Y0179830D01*
X0152700Y0175770D01*
X0149830Y0172900D01*
X0145770Y0172900D01*
X0145749Y0172921D01*
X0144800Y0171972D01*
X0143628Y0170800D01*
X0141730Y0170800D01*
X0142700Y0169830D01*
X0142700Y0165770D01*
X0141730Y0164800D01*
X0141972Y0164800D01*
X0142921Y0165749D01*
X0142900Y0165770D01*
X0142900Y0169830D01*
X0145770Y0172700D01*
X0149830Y0172700D01*
X0152700Y0169830D01*
X0152700Y0165770D01*
X0149830Y0162900D01*
X0145770Y0162900D01*
X0145749Y0162921D01*
X0144800Y0161972D01*
X0143628Y0160800D01*
X0142295Y0160800D01*
X0143083Y0160012D01*
X0145770Y0162700D01*
X0149830Y0162700D01*
X0152700Y0159830D01*
X0152700Y0155770D01*
X0149830Y0152900D01*
X0145770Y0152900D01*
X0145749Y0152921D01*
X0144800Y0151972D01*
X0143628Y0150800D01*
X0141730Y0150800D01*
X0142700Y0149830D01*
X0142700Y0145770D01*
X0141730Y0144800D01*
X0141972Y0144800D01*
X0142921Y0145749D01*
X0142900Y0145770D01*
X0142900Y0149830D01*
X0145770Y0152700D01*
X0149830Y0152700D01*
X0152700Y0149830D01*
X0152700Y0145770D01*
X0150012Y0143083D01*
X0153100Y0139995D01*
X0153100Y0138000D01*
X0148000Y0138000D01*
X0148000Y0137600D01*
X0153100Y0137600D01*
X0153100Y0135605D01*
X0150012Y0132517D01*
X0152700Y0129830D01*
X0152700Y0125770D01*
X0149830Y0122900D01*
X0145770Y0122900D01*
X0145749Y0122921D01*
X0144800Y0121972D01*
X0144800Y0121972D01*
X0143628Y0120800D01*
X0141730Y0120800D01*
X0142700Y0119830D01*
X0142700Y0115770D01*
X0141730Y0114800D01*
X0141972Y0114800D01*
X0142921Y0115749D01*
X0142900Y0115770D01*
X0142900Y0119830D01*
X0145770Y0122700D01*
X0149830Y0122700D01*
X0152700Y0119830D01*
X0152700Y0115770D01*
X0149830Y0112900D01*
X0145770Y0112900D01*
X0145749Y0112921D01*
X0144800Y0111972D01*
X0143628Y0110800D01*
X0142295Y0110800D01*
X0143083Y0110012D01*
X0145770Y0112700D01*
X0149830Y0112700D01*
X0152700Y0109830D01*
X0152700Y0105770D01*
X0149830Y0102900D01*
X0145770Y0102900D01*
X0145749Y0102921D01*
X0144800Y0101972D01*
X0143628Y0100800D01*
X0141730Y0100800D01*
X0142700Y0099830D01*
X0142700Y0095770D01*
X0141730Y0094800D01*
X0141972Y0094800D01*
X0142921Y0095749D01*
X0142900Y0095770D01*
X0142900Y0099830D01*
X0145770Y0102700D01*
X0149830Y0102700D01*
X0152700Y0099830D01*
X0152700Y0095770D01*
X0149830Y0092900D01*
X0145770Y0092900D01*
X0145749Y0092921D01*
X0144800Y0091972D01*
X0143628Y0090800D01*
X0141730Y0090800D01*
X0142700Y0089830D01*
X0142700Y0085770D01*
X0141730Y0084800D01*
X0141972Y0084800D01*
X0142921Y0085749D01*
X0142900Y0085770D01*
X0142900Y0089830D01*
X0145770Y0092700D01*
X0149830Y0092700D01*
X0152700Y0089830D01*
X0152700Y0085770D01*
X0149830Y0082900D01*
X0145770Y0082900D01*
X0145749Y0082921D01*
X0144800Y0081972D01*
X0143628Y0080800D01*
X0142295Y0080800D01*
X0143083Y0080012D01*
X0145770Y0082700D01*
X0149830Y0082700D01*
X0152700Y0079830D01*
X0152700Y0075770D01*
X0149830Y0072900D01*
X0145770Y0072900D01*
X0145749Y0072921D01*
X0144800Y0071972D01*
X0143628Y0070800D01*
X0141730Y0070800D01*
X0142700Y0069830D01*
X0142700Y0065770D01*
X0141730Y0064800D01*
X0141972Y0064800D01*
X0142921Y0065749D01*
X0142900Y0065770D01*
X0142900Y0069830D01*
X0145770Y0072700D01*
X0149830Y0072700D01*
X0152700Y0069830D01*
X0152700Y0065770D01*
X0150012Y0063083D01*
X0153100Y0059995D01*
X0153100Y0058000D01*
X0148000Y0058000D01*
X0148000Y0057600D01*
X0153100Y0057600D01*
X0153100Y0055605D01*
X0150012Y0052517D01*
X0152700Y0049830D01*
X0152700Y0045770D01*
X0149830Y0042900D01*
X0145770Y0042900D01*
X0142900Y0045770D01*
X0142900Y0049830D01*
X0142921Y0049851D01*
X0141972Y0050800D01*
X0141730Y0050800D01*
X0142700Y0049830D01*
X0142700Y0045770D01*
X0140012Y0043083D01*
X0143083Y0040012D01*
X0145770Y0042700D01*
X0149830Y0042700D01*
X0152700Y0039830D01*
X0152700Y0035770D01*
X0149830Y0032900D01*
X0145770Y0032900D01*
X0145749Y0032921D01*
X0144800Y0031972D01*
X0143628Y0030800D01*
X0141730Y0030800D01*
X0142700Y0029830D01*
X0142700Y0025770D01*
X0141730Y0024800D01*
X0141972Y0024800D01*
X0142921Y0025749D01*
X0142900Y0025770D01*
X0142900Y0029830D01*
X0145770Y0032700D01*
X0149830Y0032700D01*
X0152700Y0029830D01*
X0152700Y0025770D01*
X0149830Y0022900D01*
X0145770Y0022900D01*
X0145749Y0022921D01*
X0144800Y0021972D01*
X0143628Y0020800D01*
X0141730Y0020800D01*
X0142700Y0019830D01*
X0142700Y0015770D01*
X0141030Y0014100D01*
X0144570Y0014100D01*
X0142900Y0015770D01*
X0142900Y0019830D01*
X0145770Y0022700D01*
X0149830Y0022700D01*
X0152700Y0019830D01*
X0152700Y0015770D01*
X0151030Y0014100D01*
X0171500Y0014100D01*
X0171500Y0210500D01*
X0152595Y0210500D01*
X0153100Y0209995D01*
X0153100Y0208000D01*
X0148000Y0208000D01*
X0148000Y0207600D01*
X0153100Y0207600D01*
X0153100Y0205605D01*
X0150012Y0202517D01*
X0152700Y0199830D01*
X0152700Y0195770D01*
X0149830Y0192900D01*
X0145770Y0192900D01*
X0145749Y0192921D01*
X0145502Y0192432D02*
X0145260Y0192432D01*
X0143904Y0190833D02*
X0143662Y0190833D01*
X0142900Y0189235D02*
X0142700Y0189235D01*
X0142700Y0187636D02*
X0142900Y0187636D01*
X0142900Y0186038D02*
X0142700Y0186038D01*
X0145669Y0182841D02*
X0171500Y0182841D01*
X0171500Y0184439D02*
X0151369Y0184439D01*
X0152700Y0186038D02*
X0171500Y0186038D01*
X0171500Y0187636D02*
X0152700Y0187636D01*
X0152700Y0189235D02*
X0171500Y0189235D01*
X0171500Y0190833D02*
X0151696Y0190833D01*
X0150098Y0192432D02*
X0171500Y0192432D01*
X0171500Y0194030D02*
X0150960Y0194030D01*
X0152558Y0195629D02*
X0171500Y0195629D01*
X0171500Y0197227D02*
X0152700Y0197227D01*
X0152700Y0198826D02*
X0171500Y0198826D01*
X0171500Y0200424D02*
X0152105Y0200424D01*
X0150507Y0202023D02*
X0171500Y0202023D01*
X0171500Y0203621D02*
X0151117Y0203621D01*
X0152715Y0205220D02*
X0171500Y0205220D01*
X0171500Y0206818D02*
X0153100Y0206818D01*
X0153100Y0208417D02*
X0171500Y0208417D01*
X0171500Y0210015D02*
X0153080Y0210015D01*
X0151287Y0181242D02*
X0171500Y0181242D01*
X0171500Y0179644D02*
X0152700Y0179644D01*
X0152700Y0178045D02*
X0171500Y0178045D01*
X0171500Y0176447D02*
X0152700Y0176447D01*
X0151778Y0174848D02*
X0171500Y0174848D01*
X0171500Y0173250D02*
X0150179Y0173250D01*
X0150878Y0171651D02*
X0171500Y0171651D01*
X0171500Y0170053D02*
X0152477Y0170053D01*
X0152700Y0168454D02*
X0171500Y0168454D01*
X0171500Y0166856D02*
X0152700Y0166856D01*
X0152187Y0165257D02*
X0171500Y0165257D01*
X0171500Y0163659D02*
X0150588Y0163659D01*
X0150470Y0162060D02*
X0171500Y0162060D01*
X0171500Y0160462D02*
X0152068Y0160462D01*
X0152700Y0158863D02*
X0171500Y0158863D01*
X0171500Y0157265D02*
X0152700Y0157265D01*
X0152596Y0155666D02*
X0171500Y0155666D01*
X0171500Y0154068D02*
X0150997Y0154068D01*
X0150061Y0152469D02*
X0171500Y0152469D01*
X0171500Y0150870D02*
X0151659Y0150870D01*
X0152700Y0149272D02*
X0171500Y0149272D01*
X0171500Y0147673D02*
X0152700Y0147673D01*
X0152700Y0146075D02*
X0171500Y0146075D01*
X0171500Y0144476D02*
X0151406Y0144476D01*
X0150217Y0142878D02*
X0171500Y0142878D01*
X0171500Y0141279D02*
X0151816Y0141279D01*
X0153100Y0139681D02*
X0171500Y0139681D01*
X0171500Y0138082D02*
X0153100Y0138082D01*
X0153100Y0136484D02*
X0171500Y0136484D01*
X0171500Y0134885D02*
X0152381Y0134885D01*
X0150782Y0133287D02*
X0171500Y0133287D01*
X0171500Y0131688D02*
X0150841Y0131688D01*
X0152440Y0130090D02*
X0171500Y0130090D01*
X0171500Y0128491D02*
X0152700Y0128491D01*
X0152700Y0126893D02*
X0171500Y0126893D01*
X0171500Y0125294D02*
X0152224Y0125294D01*
X0150625Y0123696D02*
X0171500Y0123696D01*
X0171500Y0122097D02*
X0150432Y0122097D01*
X0152031Y0120499D02*
X0171500Y0120499D01*
X0171500Y0118900D02*
X0152700Y0118900D01*
X0152700Y0117302D02*
X0171500Y0117302D01*
X0171500Y0115703D02*
X0152633Y0115703D01*
X0151034Y0114105D02*
X0171500Y0114105D01*
X0171500Y0112506D02*
X0150023Y0112506D01*
X0151622Y0110908D02*
X0171500Y0110908D01*
X0171500Y0109309D02*
X0152700Y0109309D01*
X0152700Y0107711D02*
X0171500Y0107711D01*
X0171500Y0106112D02*
X0152700Y0106112D01*
X0151443Y0104514D02*
X0171500Y0104514D01*
X0171500Y0102915D02*
X0149845Y0102915D01*
X0151213Y0101317D02*
X0171500Y0101317D01*
X0171500Y0099718D02*
X0152700Y0099718D01*
X0152700Y0098120D02*
X0171500Y0098120D01*
X0171500Y0096521D02*
X0152700Y0096521D01*
X0151852Y0094923D02*
X0171500Y0094923D01*
X0171500Y0093324D02*
X0150254Y0093324D01*
X0150804Y0091726D02*
X0171500Y0091726D01*
X0171500Y0090127D02*
X0152403Y0090127D01*
X0152700Y0088529D02*
X0171500Y0088529D01*
X0171500Y0086930D02*
X0152700Y0086930D01*
X0152261Y0085332D02*
X0171500Y0085332D01*
X0171500Y0083733D02*
X0150663Y0083733D01*
X0150395Y0082134D02*
X0171500Y0082134D01*
X0171500Y0080536D02*
X0151994Y0080536D01*
X0152700Y0078937D02*
X0171500Y0078937D01*
X0171500Y0077339D02*
X0152700Y0077339D01*
X0152670Y0075740D02*
X0171500Y0075740D01*
X0171500Y0074142D02*
X0151072Y0074142D01*
X0149986Y0072543D02*
X0171500Y0072543D01*
X0171500Y0070945D02*
X0151585Y0070945D01*
X0152700Y0069346D02*
X0171500Y0069346D01*
X0171500Y0067748D02*
X0152700Y0067748D01*
X0152700Y0066149D02*
X0171500Y0066149D01*
X0171500Y0064551D02*
X0151480Y0064551D01*
X0150143Y0062952D02*
X0171500Y0062952D01*
X0171500Y0061354D02*
X0151741Y0061354D01*
X0153100Y0059755D02*
X0171500Y0059755D01*
X0171500Y0058157D02*
X0153100Y0058157D01*
X0153100Y0056558D02*
X0171500Y0056558D01*
X0171500Y0054960D02*
X0152455Y0054960D01*
X0150857Y0053361D02*
X0171500Y0053361D01*
X0171500Y0051763D02*
X0150767Y0051763D01*
X0152365Y0050164D02*
X0171500Y0050164D01*
X0171500Y0048566D02*
X0152700Y0048566D01*
X0152700Y0046967D02*
X0171500Y0046967D01*
X0171500Y0045369D02*
X0152298Y0045369D01*
X0150700Y0043770D02*
X0171500Y0043770D01*
X0171500Y0042172D02*
X0150358Y0042172D01*
X0151956Y0040573D02*
X0171500Y0040573D01*
X0171500Y0038975D02*
X0152700Y0038975D01*
X0152700Y0037376D02*
X0171500Y0037376D01*
X0171500Y0035778D02*
X0152700Y0035778D01*
X0151109Y0034179D02*
X0171500Y0034179D01*
X0171500Y0032581D02*
X0149949Y0032581D01*
X0151547Y0030982D02*
X0171500Y0030982D01*
X0171500Y0029384D02*
X0152700Y0029384D01*
X0152700Y0027785D02*
X0171500Y0027785D01*
X0171500Y0026187D02*
X0152700Y0026187D01*
X0151518Y0024588D02*
X0171500Y0024588D01*
X0171500Y0022990D02*
X0149919Y0022990D01*
X0151139Y0021391D02*
X0171500Y0021391D01*
X0171500Y0019793D02*
X0152700Y0019793D01*
X0152700Y0018194D02*
X0171500Y0018194D01*
X0171500Y0016596D02*
X0152700Y0016596D01*
X0151927Y0014997D02*
X0171500Y0014997D01*
X0145651Y0032581D02*
X0145409Y0032581D01*
X0144052Y0030982D02*
X0143811Y0030982D01*
X0142900Y0029384D02*
X0142700Y0029384D01*
X0142700Y0027785D02*
X0142900Y0027785D01*
X0142900Y0026187D02*
X0142700Y0026187D01*
X0144219Y0021391D02*
X0144461Y0021391D01*
X0142900Y0019793D02*
X0142700Y0019793D01*
X0142700Y0018194D02*
X0142900Y0018194D01*
X0142900Y0016596D02*
X0142700Y0016596D01*
X0141927Y0014997D02*
X0143673Y0014997D01*
X0134570Y0014100D02*
X0086809Y0014100D01*
X0086924Y0014118D01*
X0087643Y0014352D01*
X0088316Y0014695D01*
X0088927Y0015139D01*
X0089461Y0015673D01*
X0089905Y0016284D01*
X0090248Y0016957D01*
X0090482Y0017676D01*
X0090600Y0018422D01*
X0090600Y0021600D01*
X0086000Y0021600D01*
X0086000Y0022000D01*
X0085600Y0022000D01*
X0085600Y0029600D01*
X0085422Y0029600D01*
X0084676Y0029482D01*
X0083957Y0029248D01*
X0083284Y0028905D01*
X0082673Y0028461D01*
X0082139Y0027927D01*
X0081695Y0027316D01*
X0081352Y0026643D01*
X0081118Y0025924D01*
X0081000Y0025178D01*
X0081000Y0022000D01*
X0085600Y0022000D01*
X0085600Y0021600D01*
X0081000Y0021600D01*
X0081000Y0018422D01*
X0081118Y0017676D01*
X0081352Y0016957D01*
X0081695Y0016284D01*
X0082139Y0015673D01*
X0082673Y0015139D01*
X0083284Y0014695D01*
X0083957Y0014352D01*
X0084676Y0014118D01*
X0084791Y0014100D01*
X0050923Y0014100D01*
X0052130Y0015308D01*
X0052387Y0015928D01*
X0052634Y0015681D01*
X0053553Y0015300D01*
X0054547Y0015300D01*
X0055466Y0015681D01*
X0056169Y0016384D01*
X0056550Y0017303D01*
X0056550Y0018297D01*
X0056169Y0019216D01*
X0056050Y0019336D01*
X0056050Y0026014D01*
X0056384Y0025681D01*
X0057303Y0025300D01*
X0058297Y0025300D01*
X0059216Y0025681D01*
X0059919Y0026384D01*
X0060300Y0027303D01*
X0060300Y0028297D01*
X0059919Y0029216D01*
X0059800Y0029336D01*
X0059800Y0031014D01*
X0060134Y0030681D01*
X0061053Y0030300D01*
X0062047Y0030300D01*
X0062966Y0030681D01*
X0063669Y0031384D01*
X0064050Y0032303D01*
X0064050Y0033297D01*
X0063669Y0034216D01*
X0063550Y0034336D01*
X0063550Y0036014D01*
X0063884Y0035681D01*
X0064803Y0035300D01*
X0065797Y0035300D01*
X0066716Y0035681D01*
X0067419Y0036384D01*
X0067800Y0037303D01*
X0067800Y0038297D01*
X0067419Y0039216D01*
X0067300Y0039336D01*
X0067300Y0040301D01*
X0067303Y0040300D01*
X0068297Y0040300D01*
X0069216Y0040681D01*
X0069919Y0041384D01*
X0070300Y0042303D01*
X0070300Y0043297D01*
X0069919Y0044216D01*
X0069800Y0044336D01*
X0069800Y0050301D01*
X0069803Y0050300D01*
X0070797Y0050300D01*
X0071716Y0050681D01*
X0072419Y0051384D01*
X0072800Y0052303D01*
X0072800Y0053297D01*
X0072419Y0054216D01*
X0072300Y0054336D01*
X0072300Y0055301D01*
X0072303Y0055300D01*
X0073297Y0055300D01*
X0074216Y0055681D01*
X0074919Y0056384D01*
X0075300Y0057303D01*
X0075300Y0058297D01*
X0074919Y0059216D01*
X0074800Y0059336D01*
X0074800Y0060301D01*
X0074803Y0060300D01*
X0075797Y0060300D01*
X0076716Y0060681D01*
X0077419Y0061384D01*
X0077800Y0062303D01*
X0077800Y0063297D01*
X0077419Y0064216D01*
X0077300Y0064336D01*
X0077300Y0070301D01*
X0077303Y0070300D01*
X0078297Y0070300D01*
X0079216Y0070681D01*
X0079919Y0071384D01*
X0080300Y0072303D01*
X0080300Y0073297D01*
X0079919Y0074216D01*
X0079800Y0074336D01*
X0079800Y0075301D01*
X0079803Y0075300D01*
X0080797Y0075300D01*
X0081716Y0075681D01*
X0082419Y0076384D01*
X0082800Y0077303D01*
X0082800Y0078297D01*
X0082419Y0079216D01*
X0082300Y0079336D01*
X0082300Y0080301D01*
X0082303Y0080300D01*
X0083297Y0080300D01*
X0084216Y0080681D01*
X0084919Y0081384D01*
X0085300Y0082303D01*
X0085300Y0083297D01*
X0084919Y0084216D01*
X0084800Y0084336D01*
X0084800Y0085301D01*
X0084803Y0085300D01*
X0085797Y0085300D01*
X0086716Y0085681D01*
X0087419Y0086384D01*
X0087800Y0087303D01*
X0087800Y0088297D01*
X0087419Y0089216D01*
X0087300Y0089336D01*
X0087300Y0095301D01*
X0087303Y0095300D01*
X0088297Y0095300D01*
X0089216Y0095681D01*
X0089919Y0096384D01*
X0090300Y0097303D01*
X0090300Y0098297D01*
X0089919Y0099216D01*
X0089800Y0099336D01*
X0089800Y0100301D01*
X0089803Y0100300D01*
X0090797Y0100300D01*
X0091716Y0100681D01*
X0092419Y0101384D01*
X0092800Y0102303D01*
X0092800Y0103297D01*
X0092419Y0104216D01*
X0092300Y0104336D01*
X0092300Y0105301D01*
X0092303Y0105300D01*
X0093297Y0105300D01*
X0094216Y0105681D01*
X0094919Y0106384D01*
X0095300Y0107303D01*
X0095300Y0108297D01*
X0094988Y0109050D01*
X0095797Y0109050D01*
X0096716Y0109431D01*
X0097419Y0110134D01*
X0097695Y0110800D01*
X0133305Y0110800D01*
X0132500Y0109995D01*
X0132500Y0108000D01*
X0137600Y0108000D01*
X0137600Y0107600D01*
X0132500Y0107600D01*
X0132500Y0105605D01*
X0133305Y0104800D01*
X0099336Y0104800D01*
X0099216Y0104919D01*
X0098297Y0105300D01*
X0097303Y0105300D01*
X0096384Y0104919D01*
X0095681Y0104216D01*
X0095300Y0103297D01*
X0095300Y0102303D01*
X0095681Y0101384D01*
X0096384Y0100681D01*
X0097303Y0100300D01*
X0098297Y0100300D01*
X0099216Y0100681D01*
X0099336Y0100800D01*
X0133870Y0100800D01*
X0132900Y0099830D01*
X0132900Y0099800D01*
X0101836Y0099800D01*
X0101716Y0099919D01*
X0100797Y0100300D01*
X0099803Y0100300D01*
X0098884Y0099919D01*
X0098181Y0099216D01*
X0097800Y0098297D01*
X0097800Y0097303D01*
X0098181Y0096384D01*
X0098884Y0095681D01*
X0099803Y0095300D01*
X0100797Y0095300D01*
X0101716Y0095681D01*
X0101836Y0095800D01*
X0132900Y0095800D01*
X0132900Y0095770D01*
X0133870Y0094800D01*
X0104336Y0094800D01*
X0104216Y0094919D01*
X0103297Y0095300D01*
X0102303Y0095300D01*
X0101384Y0094919D01*
X0100681Y0094216D01*
X0100300Y0093297D01*
X0100300Y0092303D01*
X0100681Y0091384D01*
X0101384Y0090681D01*
X0102303Y0090300D01*
X0103297Y0090300D01*
X0104216Y0090681D01*
X0104336Y0090800D01*
X0133870Y0090800D01*
X0132900Y0089830D01*
X0132900Y0089800D01*
X0106836Y0089800D01*
X0106716Y0089919D01*
X0105797Y0090300D01*
X0104803Y0090300D01*
X0103884Y0089919D01*
X0103181Y0089216D01*
X0102800Y0088297D01*
X0102800Y0087303D01*
X0103181Y0086384D01*
X0103884Y0085681D01*
X0104803Y0085300D01*
X0105797Y0085300D01*
X0106716Y0085681D01*
X0106836Y0085800D01*
X0132900Y0085800D01*
X0132900Y0085770D01*
X0133870Y0084800D01*
X0109336Y0084800D01*
X0109216Y0084919D01*
X0108297Y0085300D01*
X0107303Y0085300D01*
X0106384Y0084919D01*
X0105681Y0084216D01*
X0105300Y0083297D01*
X0105300Y0082303D01*
X0105681Y0081384D01*
X0106384Y0080681D01*
X0107303Y0080300D01*
X0108297Y0080300D01*
X0109216Y0080681D01*
X0109336Y0080800D01*
X0133305Y0080800D01*
X0132500Y0079995D01*
X0132500Y0078000D01*
X0137600Y0078000D01*
X0137600Y0077600D01*
X0132500Y0077600D01*
X0132500Y0075605D01*
X0133305Y0074800D01*
X0111836Y0074800D01*
X0111716Y0074919D01*
X0110797Y0075300D01*
X0109803Y0075300D01*
X0108884Y0074919D01*
X0108181Y0074216D01*
X0107800Y0073297D01*
X0107800Y0072303D01*
X0108181Y0071384D01*
X0108884Y0070681D01*
X0109803Y0070300D01*
X0110797Y0070300D01*
X0111716Y0070681D01*
X0111836Y0070800D01*
X0133870Y0070800D01*
X0132900Y0069830D01*
X0132900Y0069800D01*
X0114336Y0069800D01*
X0114216Y0069919D01*
X0113297Y0070300D01*
X0112303Y0070300D01*
X0111384Y0069919D01*
X0110681Y0069216D01*
X0110300Y0068297D01*
X0110300Y0067303D01*
X0110681Y0066384D01*
X0111384Y0065681D01*
X0112303Y0065300D01*
X0113297Y0065300D01*
X0114216Y0065681D01*
X0114336Y0065800D01*
X0132900Y0065800D01*
X0132900Y0065770D01*
X0133870Y0064800D01*
X0116836Y0064800D01*
X0116716Y0064919D01*
X0115797Y0065300D01*
X0114803Y0065300D01*
X0113884Y0064919D01*
X0113181Y0064216D01*
X0112800Y0063297D01*
X0112800Y0062303D01*
X0113181Y0061384D01*
X0113884Y0060681D01*
X0114803Y0060300D01*
X0115797Y0060300D01*
X0116716Y0060681D01*
X0116836Y0060800D01*
X0133870Y0060800D01*
X0132900Y0059830D01*
X0132900Y0059800D01*
X0119336Y0059800D01*
X0119216Y0059919D01*
X0118297Y0060300D01*
X0117303Y0060300D01*
X0116384Y0059919D01*
X0115681Y0059216D01*
X0115300Y0058297D01*
X0115300Y0057303D01*
X0115681Y0056384D01*
X0116384Y0055681D01*
X0117303Y0055300D01*
X0118297Y0055300D01*
X0119216Y0055681D01*
X0119336Y0055800D01*
X0132900Y0055800D01*
X0132900Y0055770D01*
X0133870Y0054800D01*
X0121836Y0054800D01*
X0121716Y0054919D01*
X0120797Y0055300D01*
X0119803Y0055300D01*
X0118884Y0054919D01*
X0118181Y0054216D01*
X0117800Y0053297D01*
X0117800Y0052303D01*
X0118181Y0051384D01*
X0118884Y0050681D01*
X0119803Y0050300D01*
X0120797Y0050300D01*
X0121716Y0050681D01*
X0121836Y0050800D01*
X0133870Y0050800D01*
X0132900Y0049830D01*
X0132900Y0049800D01*
X0124336Y0049800D01*
X0124216Y0049919D01*
X0123297Y0050300D01*
X0122303Y0050300D01*
X0121384Y0049919D01*
X0120681Y0049216D01*
X0120300Y0048297D01*
X0120300Y0047303D01*
X0120681Y0046384D01*
X0121384Y0045681D01*
X0122303Y0045300D01*
X0123297Y0045300D01*
X0124216Y0045681D01*
X0124336Y0045800D01*
X0132900Y0045800D01*
X0132900Y0045770D01*
X0135588Y0043083D01*
X0132500Y0039995D01*
X0132500Y0038000D01*
X0137600Y0038000D01*
X0137600Y0037600D01*
X0132500Y0037600D01*
X0132500Y0035605D01*
X0133305Y0034800D01*
X0126836Y0034800D01*
X0126716Y0034919D01*
X0125797Y0035300D01*
X0124803Y0035300D01*
X0123884Y0034919D01*
X0123181Y0034216D01*
X0122800Y0033297D01*
X0122800Y0032303D01*
X0123181Y0031384D01*
X0123884Y0030681D01*
X0124803Y0030300D01*
X0125797Y0030300D01*
X0126716Y0030681D01*
X0126836Y0030800D01*
X0133870Y0030800D01*
X0132900Y0029830D01*
X0132900Y0025770D01*
X0133870Y0024800D01*
X0129336Y0024800D01*
X0129216Y0024919D01*
X0128297Y0025300D01*
X0127303Y0025300D01*
X0126384Y0024919D01*
X0125681Y0024216D01*
X0125300Y0023297D01*
X0125300Y0022303D01*
X0125681Y0021384D01*
X0126384Y0020681D01*
X0127303Y0020300D01*
X0128297Y0020300D01*
X0129216Y0020681D01*
X0129336Y0020800D01*
X0133870Y0020800D01*
X0132900Y0019830D01*
X0132900Y0015770D01*
X0134570Y0014100D01*
X0133673Y0014997D02*
X0098117Y0014997D01*
X0098292Y0015070D02*
X0099530Y0016308D01*
X0100200Y0017925D01*
X0100200Y0025675D01*
X0099530Y0027292D01*
X0098292Y0028530D01*
X0096675Y0029200D01*
X0094925Y0029200D01*
X0093308Y0028530D01*
X0092070Y0027292D01*
X0091400Y0025675D01*
X0091400Y0017925D01*
X0092070Y0016308D01*
X0093308Y0015070D01*
X0094925Y0014400D01*
X0096675Y0014400D01*
X0098292Y0015070D01*
X0099649Y0016596D02*
X0132900Y0016596D01*
X0132900Y0018194D02*
X0100200Y0018194D01*
X0100200Y0019793D02*
X0132900Y0019793D01*
X0132900Y0026187D02*
X0099988Y0026187D01*
X0100200Y0024588D02*
X0126053Y0024588D01*
X0125300Y0022990D02*
X0100200Y0022990D01*
X0100200Y0021391D02*
X0125678Y0021391D01*
X0132900Y0027785D02*
X0099037Y0027785D01*
X0092563Y0027785D02*
X0089564Y0027785D01*
X0089461Y0027927D02*
X0088927Y0028461D01*
X0088316Y0028905D01*
X0087643Y0029248D01*
X0086924Y0029482D01*
X0086178Y0029600D01*
X0086000Y0029600D01*
X0086000Y0022000D01*
X0090600Y0022000D01*
X0090600Y0025178D01*
X0090482Y0025924D01*
X0090248Y0026643D01*
X0089905Y0027316D01*
X0089461Y0027927D01*
X0090396Y0026187D02*
X0091612Y0026187D01*
X0091400Y0024588D02*
X0090600Y0024588D01*
X0090600Y0022990D02*
X0091400Y0022990D01*
X0091400Y0021391D02*
X0090600Y0021391D01*
X0090600Y0019793D02*
X0091400Y0019793D01*
X0091400Y0018194D02*
X0090564Y0018194D01*
X0090064Y0016596D02*
X0091951Y0016596D01*
X0093483Y0014997D02*
X0088732Y0014997D01*
X0082868Y0014997D02*
X0051820Y0014997D01*
X0056257Y0016596D02*
X0081536Y0016596D01*
X0081036Y0018194D02*
X0056550Y0018194D01*
X0056050Y0019793D02*
X0081000Y0019793D01*
X0081000Y0021391D02*
X0056050Y0021391D01*
X0056050Y0022990D02*
X0081000Y0022990D01*
X0081000Y0024588D02*
X0056050Y0024588D01*
X0052050Y0024588D02*
X0051411Y0024588D01*
X0052050Y0022990D02*
X0014100Y0022990D01*
X0014100Y0024588D02*
X0016189Y0024588D01*
X0016708Y0024070D02*
X0015470Y0025308D01*
X0014800Y0026925D01*
X0014800Y0028675D01*
X0015470Y0030292D01*
X0016708Y0031530D01*
X0018325Y0032200D01*
X0029675Y0032200D01*
X0031292Y0031530D01*
X0032530Y0030292D01*
X0033200Y0028675D01*
X0033200Y0026925D01*
X0032530Y0025308D01*
X0031292Y0024070D01*
X0029675Y0023400D01*
X0018325Y0023400D01*
X0016708Y0024070D01*
X0015106Y0026187D02*
X0014100Y0026187D01*
X0014100Y0027785D02*
X0014800Y0027785D01*
X0015093Y0029384D02*
X0014100Y0029384D01*
X0014100Y0030982D02*
X0016160Y0030982D01*
X0014100Y0032581D02*
X0052050Y0032581D01*
X0052050Y0034179D02*
X0051002Y0034179D01*
X0051440Y0030982D02*
X0052050Y0030982D01*
X0059800Y0030982D02*
X0059832Y0030982D01*
X0059800Y0029384D02*
X0084374Y0029384D01*
X0085600Y0029384D02*
X0086000Y0029384D01*
X0087226Y0029384D02*
X0132900Y0029384D01*
X0132500Y0035778D02*
X0066813Y0035778D01*
X0067800Y0037376D02*
X0132500Y0037376D01*
X0132500Y0038975D02*
X0067519Y0038975D01*
X0068957Y0040573D02*
X0133078Y0040573D01*
X0134676Y0042172D02*
X0070246Y0042172D01*
X0070104Y0043770D02*
X0134900Y0043770D01*
X0133302Y0045369D02*
X0123463Y0045369D01*
X0122137Y0045369D02*
X0069800Y0045369D01*
X0069800Y0046967D02*
X0120439Y0046967D01*
X0120411Y0048566D02*
X0069800Y0048566D01*
X0069800Y0050164D02*
X0121975Y0050164D01*
X0123625Y0050164D02*
X0133235Y0050164D01*
X0133711Y0054960D02*
X0121619Y0054960D01*
X0118981Y0054960D02*
X0072300Y0054960D01*
X0072773Y0053361D02*
X0117827Y0053361D01*
X0118024Y0051763D02*
X0072576Y0051763D01*
X0074992Y0056558D02*
X0115608Y0056558D01*
X0115300Y0058157D02*
X0075300Y0058157D01*
X0074800Y0059755D02*
X0116220Y0059755D01*
X0113211Y0061354D02*
X0077389Y0061354D01*
X0077800Y0062952D02*
X0112800Y0062952D01*
X0113515Y0064551D02*
X0077300Y0064551D01*
X0077300Y0066149D02*
X0110915Y0066149D01*
X0110300Y0067748D02*
X0077300Y0067748D01*
X0077300Y0069346D02*
X0110811Y0069346D01*
X0108620Y0070945D02*
X0079480Y0070945D01*
X0080300Y0072543D02*
X0107800Y0072543D01*
X0108150Y0074142D02*
X0079950Y0074142D01*
X0081776Y0075740D02*
X0132500Y0075740D01*
X0132500Y0077339D02*
X0082800Y0077339D01*
X0082535Y0078937D02*
X0132500Y0078937D01*
X0133041Y0080536D02*
X0108867Y0080536D01*
X0106733Y0080536D02*
X0083867Y0080536D01*
X0085230Y0082134D02*
X0105370Y0082134D01*
X0105480Y0083733D02*
X0085120Y0083733D01*
X0085873Y0085332D02*
X0104727Y0085332D01*
X0105873Y0085332D02*
X0133339Y0085332D01*
X0133197Y0090127D02*
X0106215Y0090127D01*
X0104385Y0090127D02*
X0087300Y0090127D01*
X0087300Y0091726D02*
X0100539Y0091726D01*
X0100311Y0093324D02*
X0087300Y0093324D01*
X0087300Y0094923D02*
X0101392Y0094923D01*
X0104208Y0094923D02*
X0133748Y0094923D01*
X0141852Y0094923D02*
X0142094Y0094923D01*
X0142700Y0096521D02*
X0142900Y0096521D01*
X0142900Y0098120D02*
X0142700Y0098120D01*
X0142700Y0099718D02*
X0142900Y0099718D01*
X0144145Y0101317D02*
X0144387Y0101317D01*
X0145744Y0102915D02*
X0145755Y0102915D01*
X0143978Y0110908D02*
X0143736Y0110908D01*
X0145335Y0112506D02*
X0145577Y0112506D01*
X0142875Y0115703D02*
X0142633Y0115703D01*
X0142700Y0117302D02*
X0142900Y0117302D01*
X0142900Y0118900D02*
X0142700Y0118900D01*
X0142031Y0120499D02*
X0143569Y0120499D01*
X0144926Y0122097D02*
X0145168Y0122097D01*
X0137600Y0107711D02*
X0095300Y0107711D01*
X0094648Y0106112D02*
X0132500Y0106112D01*
X0132500Y0109309D02*
X0096423Y0109309D01*
X0095978Y0104514D02*
X0092300Y0104514D01*
X0092800Y0102915D02*
X0095300Y0102915D01*
X0095748Y0101317D02*
X0092352Y0101317D01*
X0089800Y0099718D02*
X0098683Y0099718D01*
X0097800Y0098120D02*
X0090300Y0098120D01*
X0089976Y0096521D02*
X0098124Y0096521D01*
X0102896Y0088529D02*
X0087704Y0088529D01*
X0087646Y0086930D02*
X0102954Y0086930D01*
X0077300Y0130128D02*
X0077300Y0134472D01*
X0103628Y0160800D01*
X0133305Y0160800D01*
X0132500Y0159995D01*
X0132500Y0158000D01*
X0137600Y0158000D01*
X0137600Y0157600D01*
X0132500Y0157600D01*
X0132500Y0155605D01*
X0133305Y0154800D01*
X0101972Y0154800D01*
X0077300Y0130128D01*
X0077300Y0131688D02*
X0078860Y0131688D01*
X0077300Y0133287D02*
X0080458Y0133287D01*
X0082057Y0134885D02*
X0077714Y0134885D01*
X0079312Y0136484D02*
X0083655Y0136484D01*
X0085254Y0138082D02*
X0080911Y0138082D01*
X0082509Y0139681D02*
X0086852Y0139681D01*
X0088451Y0141279D02*
X0084108Y0141279D01*
X0085706Y0142878D02*
X0090050Y0142878D01*
X0091648Y0144476D02*
X0087305Y0144476D01*
X0088903Y0146075D02*
X0093247Y0146075D01*
X0094845Y0147673D02*
X0090502Y0147673D01*
X0092100Y0149272D02*
X0096444Y0149272D01*
X0098042Y0150870D02*
X0093699Y0150870D01*
X0095297Y0152469D02*
X0099641Y0152469D01*
X0101239Y0154068D02*
X0096896Y0154068D01*
X0098494Y0155666D02*
X0132500Y0155666D01*
X0132500Y0157265D02*
X0100093Y0157265D01*
X0101691Y0158863D02*
X0132500Y0158863D01*
X0132966Y0160462D02*
X0103290Y0160462D01*
X0090421Y0173250D02*
X0086078Y0173250D01*
X0087677Y0174848D02*
X0133257Y0174848D01*
X0133305Y0174800D02*
X0091972Y0174800D01*
X0090800Y0173628D01*
X0069800Y0152628D01*
X0069800Y0156972D01*
X0093628Y0180800D01*
X0133305Y0180800D01*
X0132500Y0179995D01*
X0132500Y0178000D01*
X0137600Y0178000D01*
X0137600Y0177600D01*
X0132500Y0177600D01*
X0132500Y0175605D01*
X0133305Y0174800D01*
X0132500Y0176447D02*
X0089275Y0176447D01*
X0090874Y0178045D02*
X0132500Y0178045D01*
X0132500Y0179644D02*
X0092472Y0179644D01*
X0088823Y0171651D02*
X0084480Y0171651D01*
X0082881Y0170053D02*
X0087224Y0170053D01*
X0085626Y0168454D02*
X0081283Y0168454D01*
X0079684Y0166856D02*
X0084027Y0166856D01*
X0082429Y0165257D02*
X0078086Y0165257D01*
X0076487Y0163659D02*
X0080830Y0163659D01*
X0079232Y0162060D02*
X0074888Y0162060D01*
X0073290Y0160462D02*
X0077633Y0160462D01*
X0076035Y0158863D02*
X0071691Y0158863D01*
X0070093Y0157265D02*
X0074436Y0157265D01*
X0072838Y0155666D02*
X0069800Y0155666D01*
X0069800Y0154068D02*
X0071239Y0154068D01*
X0035685Y0110908D02*
X0031915Y0110908D01*
X0032937Y0109309D02*
X0034663Y0109309D01*
X0034400Y0107711D02*
X0033200Y0107711D01*
X0032863Y0106112D02*
X0034737Y0106112D01*
X0035864Y0104514D02*
X0031736Y0104514D01*
X0031292Y0101530D02*
X0029675Y0102200D01*
X0018325Y0102200D01*
X0016708Y0101530D01*
X0015470Y0100292D01*
X0014800Y0098675D01*
X0014800Y0096925D01*
X0015470Y0095308D01*
X0016708Y0094070D01*
X0018325Y0093400D01*
X0029675Y0093400D01*
X0031292Y0094070D01*
X0032530Y0095308D01*
X0033200Y0096925D01*
X0033200Y0098675D01*
X0032530Y0100292D01*
X0031292Y0101530D01*
X0031506Y0101317D02*
X0036094Y0101317D01*
X0034832Y0099718D02*
X0032768Y0099718D01*
X0033200Y0098120D02*
X0034400Y0098120D01*
X0034567Y0096521D02*
X0033033Y0096521D01*
X0032145Y0094923D02*
X0035455Y0094923D01*
X0036779Y0091726D02*
X0031563Y0091726D01*
X0031316Y0091905D02*
X0030643Y0092248D01*
X0029924Y0092482D01*
X0029178Y0092600D01*
X0029000Y0092600D01*
X0029000Y0088000D01*
X0028600Y0088000D01*
X0028600Y0092600D01*
X0018822Y0092600D01*
X0018076Y0092482D01*
X0017357Y0092248D01*
X0016684Y0091905D01*
X0016073Y0091461D01*
X0015539Y0090927D01*
X0015095Y0090316D01*
X0014752Y0089643D01*
X0014518Y0088924D01*
X0014400Y0088178D01*
X0014400Y0088000D01*
X0028600Y0088000D01*
X0028600Y0087600D01*
X0029000Y0087600D01*
X0029000Y0088000D01*
X0033600Y0088000D01*
X0033600Y0088178D01*
X0033482Y0088924D01*
X0033248Y0089643D01*
X0032905Y0090316D01*
X0032461Y0090927D01*
X0031927Y0091461D01*
X0031316Y0091905D01*
X0033001Y0090127D02*
X0035001Y0090127D01*
X0034400Y0088529D02*
X0033544Y0088529D01*
X0033600Y0087600D02*
X0029000Y0087600D01*
X0029000Y0083000D01*
X0029178Y0083000D01*
X0029924Y0083118D01*
X0030643Y0083352D01*
X0031316Y0083695D01*
X0031927Y0084139D01*
X0032461Y0084673D01*
X0032905Y0085284D01*
X0033248Y0085957D01*
X0033482Y0086676D01*
X0033600Y0087422D01*
X0033600Y0087600D01*
X0033522Y0086930D02*
X0034400Y0086930D01*
X0035060Y0085332D02*
X0032929Y0085332D01*
X0031368Y0083733D02*
X0037121Y0083733D01*
X0037767Y0082134D02*
X0029833Y0082134D01*
X0029675Y0082200D02*
X0018325Y0082200D01*
X0016708Y0081530D01*
X0015470Y0080292D01*
X0014800Y0078675D01*
X0014800Y0076925D01*
X0015470Y0075308D01*
X0016708Y0074070D01*
X0018325Y0073400D01*
X0029675Y0073400D01*
X0031292Y0074070D01*
X0032530Y0075308D01*
X0033200Y0076925D01*
X0033200Y0078675D01*
X0032530Y0080292D01*
X0031292Y0081530D01*
X0029675Y0082200D01*
X0028600Y0083000D02*
X0028600Y0087600D01*
X0014400Y0087600D01*
X0014400Y0087422D01*
X0014518Y0086676D01*
X0014752Y0085957D01*
X0015095Y0085284D01*
X0015539Y0084673D01*
X0016073Y0084139D01*
X0016684Y0083695D01*
X0017357Y0083352D01*
X0018076Y0083118D01*
X0018822Y0083000D01*
X0028600Y0083000D01*
X0028600Y0083733D02*
X0029000Y0083733D01*
X0029000Y0085332D02*
X0028600Y0085332D01*
X0028600Y0086930D02*
X0029000Y0086930D01*
X0029000Y0088529D02*
X0028600Y0088529D01*
X0028600Y0090127D02*
X0029000Y0090127D01*
X0029000Y0091726D02*
X0028600Y0091726D01*
X0032287Y0080536D02*
X0035313Y0080536D01*
X0034509Y0078937D02*
X0033091Y0078937D01*
X0033200Y0077339D02*
X0034400Y0077339D01*
X0034891Y0075740D02*
X0032709Y0075740D01*
X0031364Y0074142D02*
X0036236Y0074142D01*
X0038065Y0072543D02*
X0014100Y0072543D01*
X0014100Y0070945D02*
X0016122Y0070945D01*
X0016708Y0071530D02*
X0015470Y0070292D01*
X0014800Y0068675D01*
X0014800Y0066925D01*
X0015470Y0065308D01*
X0016708Y0064070D01*
X0018325Y0063400D01*
X0029675Y0063400D01*
X0031292Y0064070D01*
X0032530Y0065308D01*
X0033200Y0066925D01*
X0033200Y0068675D01*
X0032530Y0070292D01*
X0031292Y0071530D01*
X0029675Y0072200D01*
X0018325Y0072200D01*
X0016708Y0071530D01*
X0015078Y0069346D02*
X0014100Y0069346D01*
X0014100Y0067748D02*
X0014800Y0067748D01*
X0015121Y0066149D02*
X0014100Y0066149D01*
X0014100Y0064551D02*
X0016227Y0064551D01*
X0014100Y0062952D02*
X0052050Y0062952D01*
X0052050Y0061354D02*
X0051069Y0061354D01*
X0051939Y0064551D02*
X0052050Y0064551D01*
X0052043Y0070945D02*
X0052050Y0070945D01*
X0052050Y0072543D02*
X0049135Y0072543D01*
X0050964Y0074142D02*
X0052050Y0074142D01*
X0052050Y0080536D02*
X0051887Y0080536D01*
X0052050Y0082134D02*
X0049433Y0082134D01*
X0050079Y0083733D02*
X0052050Y0083733D01*
X0052050Y0091726D02*
X0050421Y0091726D01*
X0052050Y0093324D02*
X0014100Y0093324D01*
X0014100Y0091726D02*
X0016437Y0091726D01*
X0014999Y0090127D02*
X0014100Y0090127D01*
X0014100Y0088529D02*
X0014456Y0088529D01*
X0014478Y0086930D02*
X0014100Y0086930D01*
X0014100Y0085332D02*
X0015071Y0085332D01*
X0014100Y0083733D02*
X0016631Y0083733D01*
X0018167Y0082134D02*
X0014100Y0082134D01*
X0014100Y0080536D02*
X0015713Y0080536D01*
X0014909Y0078937D02*
X0014100Y0078937D01*
X0014100Y0077339D02*
X0014800Y0077339D01*
X0015291Y0075740D02*
X0014100Y0075740D01*
X0014100Y0074142D02*
X0016636Y0074142D01*
X0018325Y0062200D02*
X0016708Y0061530D01*
X0015470Y0060292D01*
X0014800Y0058675D01*
X0014800Y0056925D01*
X0015470Y0055308D01*
X0016708Y0054070D01*
X0018325Y0053400D01*
X0029675Y0053400D01*
X0031292Y0054070D01*
X0032530Y0055308D01*
X0033200Y0056925D01*
X0033200Y0058675D01*
X0032530Y0060292D01*
X0031292Y0061530D01*
X0029675Y0062200D01*
X0018325Y0062200D01*
X0016531Y0061354D02*
X0014100Y0061354D01*
X0014100Y0059755D02*
X0015247Y0059755D01*
X0014800Y0058157D02*
X0014100Y0058157D01*
X0014100Y0056558D02*
X0014952Y0056558D01*
X0014100Y0054960D02*
X0015818Y0054960D01*
X0014100Y0053361D02*
X0052050Y0053361D01*
X0052050Y0051763D02*
X0051112Y0051763D01*
X0051782Y0054960D02*
X0052050Y0054960D01*
X0052050Y0043770D02*
X0051020Y0043770D01*
X0052050Y0042172D02*
X0049343Y0042172D01*
X0051849Y0040573D02*
X0052050Y0040573D01*
X0063550Y0035778D02*
X0063787Y0035778D01*
X0063685Y0034179D02*
X0123165Y0034179D01*
X0122800Y0032581D02*
X0064050Y0032581D01*
X0063268Y0030982D02*
X0123582Y0030982D01*
X0140924Y0042172D02*
X0145242Y0042172D01*
X0144900Y0043770D02*
X0140700Y0043770D01*
X0142298Y0045369D02*
X0143302Y0045369D01*
X0142900Y0046967D02*
X0142700Y0046967D01*
X0142700Y0048566D02*
X0142900Y0048566D01*
X0142607Y0050164D02*
X0142365Y0050164D01*
X0142522Y0040573D02*
X0143644Y0040573D01*
X0142900Y0066149D02*
X0142700Y0066149D01*
X0142700Y0067748D02*
X0142900Y0067748D01*
X0142900Y0069346D02*
X0142700Y0069346D01*
X0143773Y0070945D02*
X0144015Y0070945D01*
X0145372Y0072543D02*
X0145614Y0072543D01*
X0143606Y0080536D02*
X0142559Y0080536D01*
X0144963Y0082134D02*
X0145205Y0082134D01*
X0142503Y0085332D02*
X0142261Y0085332D01*
X0142700Y0086930D02*
X0142900Y0086930D01*
X0142900Y0088529D02*
X0142700Y0088529D01*
X0142403Y0090127D02*
X0143197Y0090127D01*
X0144554Y0091726D02*
X0144796Y0091726D01*
X0142900Y0146075D02*
X0142700Y0146075D01*
X0142700Y0147673D02*
X0142900Y0147673D01*
X0142900Y0149272D02*
X0142700Y0149272D01*
X0143699Y0150870D02*
X0143941Y0150870D01*
X0145297Y0152469D02*
X0145539Y0152469D01*
X0143532Y0160462D02*
X0142634Y0160462D01*
X0144888Y0162060D02*
X0145130Y0162060D01*
X0142429Y0165257D02*
X0142187Y0165257D01*
X0142700Y0166856D02*
X0142900Y0166856D01*
X0142900Y0168454D02*
X0142700Y0168454D01*
X0142477Y0170053D02*
X0143123Y0170053D01*
X0144480Y0171651D02*
X0144721Y0171651D01*
X0144313Y0181242D02*
X0144071Y0181242D01*
X0052050Y0104514D02*
X0051336Y0104514D01*
X0052050Y0102915D02*
X0014100Y0102915D01*
X0014100Y0101317D02*
X0016494Y0101317D01*
X0015232Y0099718D02*
X0014100Y0099718D01*
X0014100Y0098120D02*
X0014800Y0098120D01*
X0014967Y0096521D02*
X0014100Y0096521D01*
X0014100Y0094923D02*
X0015855Y0094923D01*
X0016264Y0104514D02*
X0014100Y0104514D01*
X0014100Y0106112D02*
X0015137Y0106112D01*
X0014800Y0107711D02*
X0014100Y0107711D01*
X0014100Y0109309D02*
X0015063Y0109309D01*
X0038600Y0072543D02*
X0039000Y0072543D01*
X0039000Y0070945D02*
X0038600Y0070945D01*
X0038600Y0069346D02*
X0039000Y0069346D01*
X0038600Y0067748D02*
X0033200Y0067748D01*
X0032922Y0069346D02*
X0034255Y0069346D01*
X0035157Y0070945D02*
X0031878Y0070945D01*
X0032879Y0066149D02*
X0034289Y0066149D01*
X0035261Y0064551D02*
X0031773Y0064551D01*
X0031469Y0061354D02*
X0036131Y0061354D01*
X0034847Y0059755D02*
X0032753Y0059755D01*
X0033200Y0058157D02*
X0034400Y0058157D01*
X0034552Y0056558D02*
X0033048Y0056558D01*
X0032182Y0054960D02*
X0035418Y0054960D01*
X0036088Y0051763D02*
X0030731Y0051763D01*
X0031292Y0051530D02*
X0029675Y0052200D01*
X0018325Y0052200D01*
X0016708Y0051530D01*
X0015470Y0050292D01*
X0014800Y0048675D01*
X0014800Y0046925D01*
X0015470Y0045308D01*
X0016708Y0044070D01*
X0018325Y0043400D01*
X0029675Y0043400D01*
X0031292Y0044070D01*
X0032530Y0045308D01*
X0033200Y0046925D01*
X0033200Y0048675D01*
X0032530Y0050292D01*
X0031292Y0051530D01*
X0032583Y0050164D02*
X0034618Y0050164D01*
X0034061Y0048566D02*
X0033200Y0048566D01*
X0033200Y0046967D02*
X0034072Y0046967D01*
X0034652Y0045369D02*
X0032555Y0045369D01*
X0030569Y0043770D02*
X0036180Y0043770D01*
X0037857Y0042172D02*
X0029743Y0042172D01*
X0029675Y0042200D02*
X0018325Y0042200D01*
X0016708Y0041530D01*
X0015470Y0040292D01*
X0014800Y0038675D01*
X0014800Y0036925D01*
X0015470Y0035308D01*
X0016708Y0034070D01*
X0018325Y0033400D01*
X0029675Y0033400D01*
X0031292Y0034070D01*
X0032530Y0035308D01*
X0033200Y0036925D01*
X0033200Y0038675D01*
X0032530Y0040292D01*
X0031292Y0041530D01*
X0029675Y0042200D01*
X0032249Y0040573D02*
X0035351Y0040573D01*
X0034524Y0038975D02*
X0033076Y0038975D01*
X0033200Y0037376D02*
X0034400Y0037376D01*
X0034875Y0035778D02*
X0032725Y0035778D01*
X0031402Y0034179D02*
X0036198Y0034179D01*
X0035760Y0030982D02*
X0031840Y0030982D01*
X0032907Y0029384D02*
X0034693Y0029384D01*
X0034400Y0027785D02*
X0033200Y0027785D01*
X0032894Y0026187D02*
X0034706Y0026187D01*
X0035789Y0024588D02*
X0031811Y0024588D01*
X0031997Y0021391D02*
X0036169Y0021391D01*
X0034863Y0019793D02*
X0033172Y0019793D01*
X0033597Y0018194D02*
X0034400Y0018194D01*
X0034536Y0016596D02*
X0033456Y0016596D01*
X0032697Y0014997D02*
X0035380Y0014997D01*
X0029000Y0018194D02*
X0028600Y0018194D01*
X0028600Y0019793D02*
X0029000Y0019793D01*
X0029000Y0021391D02*
X0028600Y0021391D01*
X0016598Y0034179D02*
X0014100Y0034179D01*
X0014100Y0035778D02*
X0015275Y0035778D01*
X0014800Y0037376D02*
X0014100Y0037376D01*
X0014100Y0038975D02*
X0014924Y0038975D01*
X0014100Y0040573D02*
X0015751Y0040573D01*
X0014100Y0042172D02*
X0018257Y0042172D01*
X0017431Y0043770D02*
X0014100Y0043770D01*
X0014100Y0045369D02*
X0015445Y0045369D01*
X0014800Y0046967D02*
X0014100Y0046967D01*
X0014100Y0048566D02*
X0014800Y0048566D01*
X0015417Y0050164D02*
X0014100Y0050164D01*
X0014100Y0051763D02*
X0017269Y0051763D01*
X0038600Y0051763D02*
X0039000Y0051763D01*
X0039000Y0050164D02*
X0038600Y0050164D01*
X0038600Y0048566D02*
X0039000Y0048566D01*
X0039000Y0046967D02*
X0038600Y0046967D01*
X0038600Y0045369D02*
X0039000Y0045369D01*
X0039000Y0043770D02*
X0038600Y0043770D01*
X0038600Y0064551D02*
X0039000Y0064551D01*
X0039000Y0066149D02*
X0038600Y0066149D01*
X0051745Y0094923D02*
X0052050Y0094923D01*
X0052050Y0101317D02*
X0051106Y0101317D01*
X0060300Y0027785D02*
X0082036Y0027785D01*
X0081204Y0026187D02*
X0059722Y0026187D01*
X0052050Y0021391D02*
X0051031Y0021391D01*
X0085600Y0022990D02*
X0086000Y0022990D01*
X0086000Y0024588D02*
X0085600Y0024588D01*
X0085600Y0026187D02*
X0086000Y0026187D01*
X0086000Y0027785D02*
X0085600Y0027785D01*
X0016003Y0021391D02*
X0014100Y0021391D01*
X0014100Y0019793D02*
X0014828Y0019793D01*
X0014403Y0018194D02*
X0014100Y0018194D01*
X0014100Y0016596D02*
X0014544Y0016596D01*
X0014100Y0014997D02*
X0015303Y0014997D01*
M02*
